<?xml version="1.0" encoding="utf-8"?>
<!-- Generator: Adobe Illustrator 27.5.0, SVG Export Plug-In . SVG Version: 6.00 Build 0)  -->
<svg version="1.1" xmlns="http://www.w3.org/2000/svg" xmlns:xlink="http://www.w3.org/1999/xlink" x="0px" y="0px"
	 viewBox="0 0 500 500" style="enable-background:new 0 0 500 500;" xml:space="preserve">
<g id="BACKGROUND">
	<rect style="fill:#FFFFFF;" width="500" height="500"/>
</g>
<g id="OBJECTS">
	<g>
		<g>
			<path style="fill:#7FC8A9;" d="M247.783,374.774c-61.66-0.421-112.782-49.182-115.441-111.469
				c-0.805-18.857,2.927-36.855,10.219-52.947l-26.32-38.747l-48.284,0.784c-13.599,28.53-20.63,60.701-19.188,94.477
				c4.629,108.447,94.753,193.031,202.583,191.53l-18.356-43.539L247.783,374.774z"/>
			<path style="fill:#F7B531;" d="M350.499,201.834c8.523,15.33,13.706,32.823,14.504,51.541
				c2.659,62.286-44.123,115.227-105.524,120.9l-14.857,40.493l18.427,43.135c107.566-7.692,190.156-99.648,185.527-208.095
				c-1.455-34.092-11.368-65.82-27.615-93.263l-23.986,36.569L350.499,201.834z"/>
			<path style="fill:#ED4848;" d="M147.921,199.95c19.286-33.205,54.576-56.181,95.787-57.94
				c41.351-1.765,78.579,18.263,100.596,49.889l46.632-8.754l23.771-36.497c-37.6-55.778-102.433-91.291-174.566-88.212
				c-72.45,3.092-134.252,44.341-166.851,103.536l47.907-1.101L147.921,199.95z"/>
		</g>
		<g>
			<g>
				<g>
					<circle style="fill:#594789;" cx="380.586" cy="350.737" r="92.403"/>
					<path style="fill:#43275B;" d="M380.76,449.954l-0.041-0.999c1.332-0.055,2.65-0.127,3.955-0.219l0.07,0.997
						C383.43,449.825,382.102,449.899,380.76,449.954z M376.745,449.888c-1.335-0.051-2.677-0.129-3.987-0.231l0.078-0.997
						c1.297,0.102,2.625,0.179,3.948,0.229L376.745,449.888z M388.72,449.393l-0.1-0.995c1.325-0.134,2.636-0.287,3.931-0.46
						l0.133,0.991C391.377,449.104,390.057,449.258,388.72,449.393z M368.782,449.266c-1.318-0.157-2.649-0.342-3.957-0.55
						l0.158-0.987c1.294,0.206,2.611,0.39,3.916,0.544L368.782,449.266z M396.628,448.339l-0.164-0.986
						c1.306-0.217,2.615-0.458,3.893-0.716l0.197,0.98C399.266,447.877,397.946,448.12,396.628,448.339z M360.894,448.007
						c-1.305-0.263-2.617-0.555-3.899-0.868l0.238-0.972c1.268,0.311,2.566,0.6,3.858,0.859L360.894,448.007z M404.454,446.76
						l-0.232-0.973c1.287-0.307,2.576-0.639,3.83-0.987l0.268,0.964C407.053,446.115,405.752,446.45,404.454,446.76z
						 M353.132,446.113c-1.27-0.365-2.554-0.762-3.816-1.181l0.314-0.949c1.25,0.415,2.521,0.808,3.777,1.169L353.132,446.113z
						 M412.145,444.628l-0.303-0.953c1.262-0.4,2.522-0.827,3.747-1.268l0.339,0.94
						C414.691,443.793,413.418,444.224,412.145,444.628z M345.539,443.593c-1.248-0.471-2.499-0.973-3.717-1.491l0.391-0.92
						c1.206,0.513,2.444,1.009,3.68,1.475L345.539,443.593z M419.66,441.922l-0.375-0.927c1.23-0.5,2.453-1.023,3.634-1.557
						l0.412,0.911C422.138,440.888,420.903,441.418,419.66,441.922z M338.17,440.462c-1.212-0.574-2.417-1.175-3.582-1.786
						l0.465-0.886c1.153,0.605,2.346,1.2,3.545,1.768L338.17,440.462z M426.934,438.63l-0.449-0.894
						c1.178-0.591,2.353-1.213,3.495-1.848l0.486,0.874C429.312,437.404,428.124,438.033,426.934,438.63z M331.082,436.748
						c-1.151-0.664-2.304-1.36-3.424-2.068l0.535-0.846c1.108,0.701,2.248,1.39,3.389,2.047L331.082,436.748z M433.917,434.75
						l-0.522-0.852c1.122-0.688,2.241-1.406,3.326-2.135l0.559,0.83C436.183,433.33,435.051,434.056,433.917,434.75z
						 M324.32,432.476c-1.09-0.752-2.182-1.538-3.245-2.336l0.602-0.8c1.052,0.79,2.132,1.568,3.212,2.313L324.32,432.476z
						 M440.546,430.292l-0.594-0.806c1.054-0.775,2.107-1.587,3.131-2.413l0.627,0.778
						C442.675,428.687,441.611,429.508,440.546,430.292z M317.927,427.677c-1.033-0.843-2.058-1.714-3.045-2.588l0.662-0.749
						c0.978,0.865,1.992,1.727,3.016,2.561L317.927,427.677z M446.767,425.277l-0.66-0.751c0.981-0.865,1.96-1.765,2.908-2.676
						l0.693,0.722C448.75,423.493,447.76,424.403,446.767,425.277z M311.941,422.382c-0.964-0.923-1.915-1.872-2.828-2.822
						l0.721-0.693c0.903,0.939,1.845,1.879,2.799,2.793L311.941,422.382z M452.528,419.74l-0.724-0.69
						c0.905-0.948,1.802-1.93,2.667-2.918l0.752,0.658C454.349,417.789,453.443,418.782,452.528,419.74z M306.4,416.629
						c-0.888-0.999-1.761-2.021-2.592-3.037l0.773-0.634c0.823,1.006,1.686,2.018,2.566,3.007L306.4,416.629z M457.789,413.725
						l-0.781-0.625c0.818-1.02,1.627-2.076,2.404-3.138l0.807,0.591C459.433,411.626,458.616,412.694,457.789,413.725z
						 M301.337,410.454c-0.8-1.06-1.587-2.148-2.34-3.234l0.822-0.569c0.745,1.075,1.524,2.152,2.316,3.201L301.337,410.454z
						 M462.505,407.288l-0.83-0.557c0.723-1.079,1.438-2.198,2.125-3.325l0.854,0.521
						C463.959,405.066,463.237,406.197,462.505,407.288z M296.789,403.896c-0.712-1.12-1.409-2.267-2.072-3.409l0.865-0.502
						c0.656,1.13,1.346,2.266,2.051,3.375L296.789,403.896z M466.66,400.479l-0.875-0.485c0.629-1.132,1.249-2.308,1.844-3.493
						l0.895,0.448C467.921,398.147,467.294,399.335,466.66,400.479z M292.785,396.998c-0.619-1.173-1.221-2.372-1.789-3.563
						l0.902-0.431c0.563,1.178,1.158,2.365,1.772,3.526L292.785,396.998z M470.241,393.345l-0.912-0.411
						c0.539-1.194,1.063-2.417,1.554-3.635l0.928,0.375C471.313,390.903,470.785,392.138,470.241,393.345z M289.35,389.805
						c-0.519-1.21-1.021-2.453-1.495-3.692l0.934-0.357c0.47,1.228,0.968,2.458,1.481,3.656L289.35,389.805z M473.232,385.941
						l-0.941-0.337c0.441-1.234,0.865-2.496,1.26-3.749l0.953,0.3C474.106,383.421,473.678,384.694,473.232,385.941z
						 M286.506,382.351c-0.423-1.259-0.825-2.542-1.195-3.813l0.961-0.279c0.365,1.258,0.764,2.527,1.182,3.773L286.506,382.351z
						 M475.628,378.322l-0.965-0.262c0.347-1.281,0.671-2.572,0.963-3.837l0.975,0.225
						C476.306,375.725,475.979,377.029,475.628,378.322z M284.271,374.681c-0.321-1.298-0.617-2.609-0.882-3.897l0.98-0.2
						c0.261,1.274,0.555,2.572,0.872,3.857L284.271,374.681z M477.423,370.539l-0.982-0.188c0.247-1.29,0.472-2.602,0.668-3.9
						l0.988,0.149C477.899,367.912,477.672,369.237,477.423,370.539z M282.665,366.855c-0.215-1.311-0.404-2.641-0.564-3.955
						l0.992-0.121c0.159,1.3,0.347,2.618,0.559,3.915L282.665,366.855z M478.62,362.64l-0.994-0.112
						c0.148-1.305,0.272-2.63,0.37-3.94l0.998,0.074C478.895,359.984,478.769,361.323,478.62,362.64z M281.697,358.926
						c-0.109-1.332-0.191-2.673-0.246-3.988l1-0.041c0.053,1.301,0.135,2.629,0.242,3.948L281.697,358.926z M479.216,354.672
						l-1-0.037c0.048-1.299,0.072-2.608,0.072-3.892l1-0.065v0.065C479.289,352.039,479.264,353.361,479.216,354.672z
						 M282.364,350.944h-1l-0.001-0.2c0-1.331,0.026-2.674,0.078-4.001l1,0.039c-0.052,1.313-0.078,2.644-0.078,3.954
						L282.364,350.944z M478.211,346.722c-0.051-1.321-0.126-2.65-0.226-3.951l0.998-0.076c0.1,1.313,0.176,2.655,0.228,3.989
						L478.211,346.722z M282.675,342.834l-0.996-0.079c0.104-1.31,0.237-2.647,0.396-3.975l0.992,0.118
						C282.911,340.214,282.779,341.538,282.675,342.834z M477.613,338.832c-0.15-1.314-0.325-2.634-0.522-3.922l0.988-0.151
						c0.199,1.301,0.377,2.634,0.528,3.961L477.613,338.832z M283.619,334.983l-0.986-0.159c0.21-1.306,0.451-2.628,0.714-3.93
						l0.98,0.198C284.066,332.381,283.828,333.691,283.619,334.983z M476.418,331.009c-0.249-1.299-0.525-2.602-0.82-3.871
						l0.975-0.227c0.297,1.282,0.576,2.597,0.828,3.909L476.418,331.009z M285.192,327.233l-0.971-0.238
						c0.316-1.291,0.663-2.59,1.03-3.86l0.961,0.277C285.849,324.67,285.505,325.955,285.192,327.233z M474.63,323.302
						c-0.35-1.277-0.726-2.554-1.117-3.795l0.953-0.302c0.396,1.254,0.776,2.543,1.129,3.833L474.63,323.302z M287.388,319.636
						l-0.949-0.316c0.418-1.252,0.869-2.522,1.344-3.774l0.935,0.354C288.249,317.139,287.801,318.396,287.388,319.636z
						 M472.249,315.757c-0.446-1.239-0.922-2.483-1.414-3.696l0.928-0.376c0.496,1.226,0.977,2.481,1.428,3.733L472.249,315.757z
						 M290.201,312.223l-0.92-0.393c0.519-1.217,1.072-2.445,1.646-3.65l0.902,0.43
						C291.262,309.803,290.714,311.019,290.201,312.223z M469.275,308.424c-0.54-1.192-1.114-2.393-1.707-3.571l0.893-0.449
						c0.599,1.19,1.18,2.403,1.725,3.608L469.275,308.424z M293.603,305.068l-0.885-0.466c0.621-1.18,1.272-2.358,1.935-3.503
						l0.865,0.501C294.863,302.733,294.218,303.9,293.603,305.068z M465.715,301.356c-0.641-1.15-1.313-2.301-1.997-3.419
						l0.853-0.522c0.692,1.13,1.37,2.293,2.017,3.455L465.715,301.356z M297.57,298.214l-0.844-0.535
						c0.716-1.129,1.459-2.251,2.209-3.334l0.822,0.569C299.015,295.986,298.279,297.096,297.57,298.214z M461.58,294.604
						c-0.731-1.089-1.499-2.18-2.278-3.24l0.805-0.593c0.789,1.072,1.564,2.174,2.304,3.275L461.58,294.604z M302.074,291.704
						l-0.799-0.602c0.79-1.05,1.621-2.108,2.469-3.145l0.773,0.633C303.678,289.617,302.856,290.665,302.074,291.704z
						 M456.884,288.223c-0.831-1.033-1.689-2.054-2.551-3.035l0.752-0.66c0.871,0.992,1.738,2.024,2.578,3.068L456.884,288.223z
						 M307.083,285.579l-0.748-0.664c0.872-0.983,1.784-1.97,2.71-2.935l0.721,0.692
						C308.85,283.628,307.947,284.606,307.083,285.579z M451.662,282.275c-0.9-0.941-1.841-1.881-2.796-2.794l0.691-0.723
						c0.966,0.923,1.917,1.874,2.827,2.825L451.662,282.275z M312.566,279.877l-0.693-0.721c0.958-0.92,1.945-1.832,2.937-2.709
						l0.663,0.749C314.492,278.065,313.513,278.967,312.566,279.877z M445.951,276.812c-0.99-0.868-2.009-1.722-3.028-2.54
						l0.625-0.78c1.031,0.827,2.062,1.691,3.062,2.568L445.951,276.812z M318.482,274.634l-0.633-0.774
						c1.028-0.84,2.085-1.669,3.142-2.464l0.602,0.799C320.546,272.982,319.5,273.802,318.482,274.634z M439.786,271.865
						c-1.055-0.773-2.145-1.537-3.237-2.268l0.557-0.831c1.104,0.739,2.205,1.511,3.272,2.292L439.786,271.865z M324.797,269.883
						l-0.568-0.822c1.094-0.756,2.213-1.498,3.327-2.203l0.535,0.845C326.989,268.401,325.88,269.135,324.797,269.883z
						 M433.219,267.47c-1.12-0.682-2.271-1.35-3.42-1.984l0.484-0.875c1.161,0.641,2.323,1.316,3.455,2.005L433.219,267.47z
						 M331.468,265.656l-0.5-0.865c1.146-0.664,2.321-1.313,3.491-1.928l0.465,0.885C333.767,264.358,332.604,265,331.468,265.656z
						 M426.299,263.646c-1.165-0.583-2.367-1.153-3.572-1.694l0.41-0.912c1.217,0.547,2.432,1.123,3.609,1.712L426.299,263.646z
						 M338.456,261.982l-0.43-0.903c1.187-0.564,2.408-1.115,3.633-1.639l0.393,0.919
						C340.84,260.878,339.63,261.423,338.456,261.982z M419.089,260.403c-1.216-0.489-2.459-0.962-3.696-1.404l0.336-0.941
						c1.25,0.447,2.506,0.924,3.733,1.418L419.089,260.403z M345.709,258.885l-0.355-0.935c1.242-0.472,2.508-0.924,3.763-1.343
						l0.316,0.948C348.191,257.971,346.938,258.419,345.709,258.885z M411.644,257.738c-1.249-0.394-2.525-0.771-3.794-1.119
						l0.266-0.964c1.279,0.352,2.568,0.731,3.829,1.129L411.644,257.738z M353.208,256.379l-0.277-0.961
						c1.266-0.367,2.564-0.714,3.857-1.033l0.24,0.971C355.747,255.671,354.462,256.015,353.208,256.379z M404.017,255.64
						c-1.272-0.301-2.573-0.585-3.865-0.843l0.195-0.98c1.304,0.26,2.616,0.546,3.9,0.85L404.017,255.64z M360.888,254.488
						l-0.199-0.979c1.3-0.265,2.621-0.506,3.929-0.718l0.16,0.987C363.483,253.987,362.175,254.226,360.888,254.488z
						 M396.259,254.088c-1.29-0.212-2.595-0.406-3.916-0.58l0.131-0.991c1.331,0.175,2.648,0.37,3.947,0.585L396.259,254.088z
						 M368.694,253.226l-0.119-0.993c1.309-0.158,2.647-0.292,3.974-0.399l0.08,0.997
						C371.315,252.936,369.992,253.069,368.694,253.226z M388.411,253.055c-1.301-0.129-2.615-0.24-3.944-0.331l0.068-0.998
						c1.339,0.092,2.665,0.204,3.976,0.334L388.411,253.055z M376.577,252.593l-0.039-0.999c1.318-0.053,2.662-0.08,3.993-0.081v1
						C379.213,252.514,377.882,252.541,376.577,252.593z"/>
				</g>
				<g>
					<g>
						<g>
							<rect x="331.104" y="397.819" style="fill:#7FC8A9;" width="102.509" height="15.421"/>
							<path style="fill:#7FC8A9;" d="M433.142,407.544H331.576c-1.929,0-3.509-1.533-3.567-3.462l-2.479-96.717h113.659
								l-2.479,96.717C436.651,406.011,435.071,407.544,433.142,407.544z"/>
							<g>
								
									<rect x="383.311" y="358.053" transform="matrix(0.0195 -0.9998 0.9998 0.0195 58.5765 776.5846)" style="fill:#43275B;" width="83.803" height="0.75"/>
								
									<rect x="339.13" y="316.527" transform="matrix(0.9998 -0.0193 0.0193 0.9998 -6.8574 6.6221)" style="fill:#43275B;" width="0.75" height="83.803"/>
								
									<rect x="361.892" y="358.053" transform="matrix(0.0053 -1 1 0.0053 43.2094 760.2971)" style="fill:#43275B;" width="83.788" height="0.75"/>
								
									<rect x="340.465" y="358.053" transform="matrix(0.0053 -1 1 0.0053 21.8964 738.8701)" style="fill:#43275B;" width="83.788" height="0.75"/>
								
									<rect x="360.557" y="316.534" transform="matrix(1 -0.0054 0.0054 1 -1.9372 1.9614)" style="fill:#43275B;" width="0.75" height="83.788"/>
							</g>
							<rect x="331.104" y="407.169" style="fill:#43275B;" width="102.51" height="0.75"/>
							<rect x="322.3" y="302.573" style="fill:#7FC8A9;" width="120.119" height="7.502"/>
							<path style="fill:#7FC8A9;" d="M439.188,294.878c-35.426-4.744-78.233-4.744-113.659,0v7.695h113.659L439.188,294.878z"/>
							<rect x="325.571" y="309.7" style="fill:#43275B;" width="113.577" height="0.75"/>
							<rect x="325.571" y="302.198" style="fill:#43275B;" width="113.577" height="0.75"/>
							<rect x="322.34" y="305.949" style="fill:#43275B;" width="120.037" height="0.75"/>
							<path style="fill:#43275B;" d="M401.259,302.573h-37.801v-2.325c0-0.824,0.668-1.491,1.491-1.491h34.818
								c0.824,0,1.491,0.668,1.491,1.491V302.573z"/>
						</g>
						<g>
							<path style="fill:#2FA597;" d="M315.485,344.641l3.888,67.574c0.033,0.574,0.556,1.025,1.191,1.025h12.909
								c0.667,0,1.207-0.49,1.207-1.094v-1.599h21.087v1.569c0,0.621,0.555,1.124,1.24,1.124h12.887c0.629,0,1.147-0.446,1.18-1.015
								l3.889-67.584H315.485z"/>
							<path style="fill:#43275B;" d="M353.621,403.91h-16.794c-1.188,0-2.151,0.873-2.151,1.95v4.687h21.097v-4.687
								C355.772,404.783,354.809,403.91,353.621,403.91z"/>
							<rect x="312.588" y="342.162" style="fill:#2FA597;" width="65.271" height="6.348"/>
							<rect x="312.588" y="340.334" style="fill:#2FA597;" width="65.271" height="1.827"/>
							<rect x="336.554" y="334.602" style="fill:#2FA597;" width="17.339" height="2.125"/>
							<path style="fill:#2FA597;" d="M372.728,340.334h-55.01l0-3.469c17.91-1.401,36.246-1.401,55.01,0L372.728,340.334z"/>
							<path style="fill:#43275B;" d="M353.884,336.3c-5.781-0.143-11.609-0.147-17.321-0.014l-0.018-0.75
								c5.723-0.133,11.563-0.129,17.356,0.014L353.884,336.3z"/>
							<rect x="315.707" y="348.135" style="fill:#43275B;" width="59.032" height="0.75"/>
							<rect x="317.719" y="339.959" style="fill:#43275B;" width="55.009" height="0.75"/>
							<g>
								<g>
									<path style="fill:#FFFFFF;" d="M339.056,374.905l1.7,0.889l-2-6.963l-6.893,2.311l1.867,0.977l-1.045,1.944
										c-0.597,1.111-0.414,2.352,0.254,3.237l-0.002-0.001l3.849,6.195c0.401,0.645,1.107,1.038,1.866,1.038h4.445v-6.04h-5.904
										L339.056,374.905z"/>
									<path style="fill:#FFFFFF;" d="M345.133,363.937l0.984-1.578c0.071-0.114,0.149-0.221,0.231-0.321
										c-0.082,0.101-0.16,0.207-0.231,0.321L345.133,363.937l2.059,3.478l-1.654,0.972l6.967,1.987l1.685-7.072l-1.817,1.068
										l-1.097-1.915c-0.627-1.095-1.776-1.596-2.881-1.497l0.002-0.002l-7.293-0.01c-0.76-0.001-1.466,0.39-1.868,1.035
										l-2.352,3.772l5.125,3.195L345.133,363.937z"/>
									<path style="fill:#FFFFFF;" d="M358.324,374.301l-2.097-3.919l-5.325,2.849l2.785,5.206l0,0l-4.041,0.05l-0.018-1.919
										l-5.196,5.048l5.289,4.987l-0.02-2.107l2.207,0.004c1.262,0.002,2.269-0.744,2.735-1.751l0,0.003l3.646-6.316
										C358.669,375.778,358.682,374.97,358.324,374.301z"/>
								</g>
							</g>
							<path style="fill:#43275B;" d="M355.862,405.86h-0.75v-6.069c0-0.746-0.586-1.353-1.307-1.353h-17.166
								c-0.721,0-1.307,0.607-1.307,1.353v6.069h-0.75v-6.069c0-1.159,0.923-2.103,2.057-2.103h17.166
								c1.134,0,2.057,0.943,2.057,2.103V405.86z"/>
						</g>
						<g>
							<path style="fill:#FFFFFF;" d="M438.024,413.24h-37.059c-1.652,0-2.99-1.267-2.99-2.829l-1.943-54.965h46.925l-1.943,54.965
								C441.014,411.973,439.675,413.24,438.024,413.24z"/>
							<path style="fill:#FFFFFF;" d="M443.54,358.621h-48.092c-0.654,0-1.183-0.53-1.183-1.183v-5.095
								c0-0.654,0.53-1.183,1.183-1.183h48.092c0.654,0,1.183,0.53,1.183,1.183v5.095
								C444.724,358.091,444.194,358.621,443.54,358.621z"/>
							<path style="fill:#FFFFFF;" d="M425.836,357.117h-12.685c-1.656,0-3.003-1.347-3.003-3.002v-4.829
								c0-1.655,1.347-3.002,3.003-3.002h12.685c1.656,0,3.003,1.347,3.003,3.002v4.829
								C428.839,355.77,427.493,357.117,425.836,357.117z M413.152,348.283c-0.553,0-1.003,0.45-1.003,1.002v4.829
								c0,0.553,0.45,1.002,1.003,1.002h12.685c0.553,0,1.003-0.45,1.003-1.002v-4.829c0-0.552-0.45-1.002-1.003-1.002H413.152z"/>
							<rect x="396.032" y="358.246" style="fill:#43275B;" width="46.925" height="0.75"/>
							<g>
								<path style="fill:#43275B;" d="M420.172,405.469h-1.356c-1.401,0-2.542-1.14-2.542-2.542v-34.185
									c0-1.401,1.141-2.541,2.542-2.541h1.356c1.401,0,2.542,1.14,2.542,2.541v34.185
									C422.714,404.329,421.574,405.469,420.172,405.469z M418.816,366.952c-0.988,0-1.792,0.804-1.792,1.791v34.185
									c0,0.988,0.804,1.792,1.792,1.792h1.356c0.988,0,1.792-0.804,1.792-1.792v-34.185c0-0.988-0.804-1.791-1.792-1.791H418.816z
									"/>
							</g>
							<g>
								<path style="fill:#43275B;" d="M408.143,405.469h-1.235c-1.435,0-2.603-1.114-2.603-2.482l-0.87-34.293
									c0-1.378,1.168-2.492,2.603-2.492h1.235c1.435,0,2.603,1.114,2.603,2.482l0.87,34.293
									C410.746,404.356,409.578,405.469,408.143,405.469z M406.038,366.952c-1.021,0-1.853,0.777-1.853,1.732l0.87,34.293
									c0,0.964,0.831,1.742,1.853,1.742h1.235c1.021,0,1.853-0.777,1.853-1.732l-0.87-34.293c0-0.964-0.831-1.742-1.853-1.742
									H406.038z"/>
							</g>
							<g>
								<path style="fill:#43275B;" d="M432.081,405.469h-1.235c-1.435,0-2.603-1.114-2.603-2.482l0.87-34.312
									c0-1.359,1.168-2.473,2.603-2.473h1.235c1.434,0,2.602,1.114,2.602,2.482l-0.87,34.312
									C434.683,404.356,433.515,405.469,432.081,405.469z M431.715,366.952c-1.022,0-1.853,0.777-1.853,1.732l-0.87,34.312
									c0,0.946,0.831,1.723,1.853,1.723h1.235c1.021,0,1.853-0.777,1.853-1.732l0.87-34.312c0-0.946-0.831-1.723-1.852-1.723
									H431.715z"/>
							</g>
						</g>
					</g>
				</g>
			</g>
			<g>
				<g>
					<circle style="fill:#594789;" cx="119.414" cy="350.737" r="92.403"/>
					<path style="fill:#43275B;" d="M119.587,449.954l-0.041-0.999c1.332-0.055,2.65-0.127,3.955-0.219l0.07,0.997
						C122.257,449.825,120.929,449.899,119.587,449.954z M115.572,449.888c-1.335-0.051-2.677-0.129-3.987-0.231l0.078-0.997
						c1.297,0.102,2.625,0.179,3.948,0.229L115.572,449.888z M127.547,449.393l-0.1-0.995c1.325-0.134,2.636-0.287,3.931-0.46
						l0.133,0.991C130.205,449.104,128.884,449.258,127.547,449.393z M107.609,449.266c-1.318-0.157-2.65-0.342-3.957-0.55
						l0.158-0.987c1.294,0.206,2.611,0.39,3.916,0.544L107.609,449.266z M135.456,448.339l-0.164-0.986
						c1.306-0.217,2.615-0.458,3.893-0.716l0.197,0.98C138.093,447.877,136.773,448.12,135.456,448.339z M99.721,448.007
						c-1.305-0.263-2.617-0.555-3.899-0.868l0.238-0.972c1.269,0.311,2.566,0.6,3.858,0.859L99.721,448.007z M143.281,446.76
						l-0.232-0.973c1.287-0.307,2.576-0.639,3.83-0.987l0.268,0.964C145.88,446.115,144.58,446.45,143.281,446.76z M91.959,446.113
						c-1.269-0.365-2.554-0.762-3.816-1.181l0.314-0.949c1.25,0.415,2.521,0.808,3.777,1.169L91.959,446.113z M150.972,444.628
						l-0.303-0.953c1.262-0.4,2.522-0.827,3.747-1.268l0.339,0.94C153.518,443.793,152.246,444.224,150.972,444.628z
						 M84.366,443.593c-1.248-0.471-2.499-0.973-3.717-1.491l0.391-0.92c1.206,0.513,2.444,1.009,3.68,1.475L84.366,443.593z
						 M158.487,441.922l-0.375-0.927c1.23-0.5,2.453-1.023,3.634-1.557l0.412,0.911C160.965,440.888,159.73,441.418,158.487,441.922
						z M76.997,440.462c-1.212-0.574-2.417-1.175-3.582-1.786l0.465-0.886c1.153,0.605,2.346,1.2,3.545,1.768L76.997,440.462z
						 M165.761,438.63l-0.449-0.894c1.178-0.591,2.354-1.213,3.495-1.848l0.486,0.874
						C168.139,437.404,166.951,438.033,165.761,438.63z M69.909,436.748c-1.151-0.664-2.304-1.36-3.424-2.068l0.535-0.846
						c1.108,0.701,2.248,1.39,3.389,2.047L69.909,436.748z M172.744,434.75l-0.521-0.852c1.122-0.688,2.241-1.406,3.326-2.135
						l0.559,0.83C175.01,433.33,173.878,434.056,172.744,434.75z M63.147,432.476c-1.09-0.752-2.182-1.538-3.245-2.336l0.602-0.8
						c1.052,0.79,2.132,1.568,3.212,2.313L63.147,432.476z M179.374,430.292l-0.594-0.806c1.054-0.775,2.106-1.587,3.131-2.413
						l0.627,0.778C181.502,428.687,180.438,429.508,179.374,430.292z M56.754,427.677c-1.033-0.843-2.058-1.714-3.045-2.588
						l0.662-0.749c0.977,0.865,1.992,1.727,3.016,2.561L56.754,427.677z M185.594,425.277l-0.66-0.751
						c0.981-0.865,1.96-1.765,2.908-2.676l0.693,0.722C187.577,423.493,186.587,424.403,185.594,425.277z M50.768,422.382
						c-0.964-0.923-1.915-1.872-2.828-2.822l0.721-0.693c0.903,0.939,1.845,1.879,2.799,2.793L50.768,422.382z M191.355,419.74
						l-0.724-0.69c0.905-0.948,1.802-1.93,2.667-2.918l0.752,0.658C193.176,417.789,192.27,418.782,191.355,419.74z M45.227,416.629
						c-0.888-0.999-1.761-2.021-2.592-3.037l0.773-0.634c0.823,1.006,1.687,2.018,2.566,3.007L45.227,416.629z M196.617,413.725
						l-0.781-0.625c0.818-1.02,1.627-2.076,2.404-3.138l0.807,0.591C198.26,411.626,197.443,412.694,196.617,413.725z
						 M40.165,410.454c-0.8-1.06-1.587-2.148-2.34-3.234l0.822-0.569c0.745,1.075,1.524,2.152,2.316,3.201L40.165,410.454z
						 M201.333,407.288l-0.83-0.557c0.723-1.079,1.438-2.198,2.125-3.325l0.854,0.521
						C202.787,405.066,202.064,406.197,201.333,407.288z M35.617,403.896c-0.712-1.12-1.409-2.267-2.072-3.409l0.865-0.502
						c0.656,1.13,1.346,2.266,2.051,3.375L35.617,403.896z M205.487,400.479l-0.875-0.485c0.629-1.132,1.249-2.308,1.844-3.493
						l0.895,0.448C206.749,398.147,206.122,399.335,205.487,400.479z M31.612,396.998c-0.619-1.173-1.221-2.372-1.789-3.563
						l0.902-0.431c0.563,1.178,1.158,2.365,1.772,3.526L31.612,396.998z M209.068,393.345l-0.912-0.411
						c0.539-1.194,1.063-2.417,1.554-3.635l0.928,0.375C210.14,390.903,209.612,392.138,209.068,393.345z M28.177,389.805
						c-0.518-1.21-1.021-2.453-1.495-3.692l0.934-0.357c0.47,1.228,0.968,2.458,1.481,3.656L28.177,389.805z M212.059,385.941
						l-0.941-0.337c0.441-1.234,0.865-2.496,1.26-3.749l0.953,0.3C212.933,383.421,212.505,384.694,212.059,385.941z
						 M25.333,382.351c-0.423-1.259-0.825-2.542-1.195-3.813l0.961-0.279c0.365,1.258,0.764,2.527,1.182,3.773L25.333,382.351z
						 M214.456,378.322l-0.965-0.262c0.347-1.281,0.671-2.572,0.963-3.837l0.975,0.225
						C215.133,375.725,214.806,377.029,214.456,378.322z M23.098,374.681c-0.321-1.298-0.617-2.609-0.882-3.897l0.98-0.2
						c0.261,1.274,0.555,2.572,0.872,3.857L23.098,374.681z M216.251,370.539l-0.982-0.188c0.247-1.29,0.472-2.602,0.668-3.9
						l0.988,0.149C216.726,367.912,216.499,369.237,216.251,370.539z M21.493,366.855c-0.215-1.311-0.404-2.641-0.564-3.955
						l0.992-0.121c0.159,1.3,0.347,2.618,0.559,3.915L21.493,366.855z M217.447,362.64l-0.994-0.112
						c0.148-1.305,0.272-2.63,0.37-3.94l0.998,0.074C217.722,359.984,217.596,361.323,217.447,362.64z M20.524,358.926
						c-0.109-1.332-0.191-2.673-0.246-3.988l1-0.041c0.053,1.301,0.135,2.629,0.242,3.948L20.524,358.926z M218.043,354.672
						l-1-0.037c0.048-1.299,0.072-2.608,0.072-3.892l1-0.065v0.065C218.116,352.039,218.091,353.361,218.043,354.672z
						 M21.191,350.944h-1l-0.001-0.2c0-1.331,0.026-2.674,0.078-4.001l1,0.039c-0.052,1.313-0.078,2.644-0.078,3.954L21.191,350.944
						z M217.038,346.722c-0.051-1.321-0.126-2.65-0.225-3.951l0.998-0.076c0.1,1.313,0.176,2.655,0.227,3.989L217.038,346.722z
						 M21.502,342.834l-0.996-0.079c0.104-1.31,0.237-2.647,0.396-3.975l0.992,0.118C21.738,340.214,21.606,341.538,21.502,342.834z
						 M216.44,338.832c-0.149-1.314-0.325-2.634-0.522-3.922l0.988-0.151c0.199,1.301,0.377,2.634,0.528,3.961L216.44,338.832z
						 M22.446,334.983l-0.986-0.159c0.21-1.306,0.451-2.628,0.714-3.93l0.98,0.198C22.893,332.381,22.655,333.691,22.446,334.983z
						 M215.246,331.009c-0.249-1.299-0.525-2.602-0.82-3.871l0.975-0.227c0.297,1.282,0.576,2.597,0.828,3.909L215.246,331.009z
						 M24.019,327.233l-0.971-0.238c0.316-1.291,0.663-2.59,1.03-3.86l0.961,0.277C24.676,324.67,24.333,325.955,24.019,327.233z
						 M213.458,323.302c-0.35-1.277-0.726-2.554-1.117-3.795l0.953-0.302c0.396,1.254,0.776,2.543,1.129,3.833L213.458,323.302z
						 M26.215,319.636l-0.949-0.316c0.418-1.252,0.869-2.522,1.344-3.774l0.936,0.354C27.076,317.139,26.628,318.396,26.215,319.636
						z M211.076,315.757c-0.446-1.239-0.922-2.483-1.414-3.696l0.928-0.376c0.496,1.226,0.977,2.481,1.428,3.733L211.076,315.757z
						 M29.028,312.223l-0.92-0.393c0.518-1.217,1.072-2.445,1.646-3.65l0.902,0.43C30.089,309.803,29.542,311.019,29.028,312.223z
						 M208.102,308.424c-0.54-1.192-1.114-2.393-1.707-3.571l0.893-0.449c0.599,1.19,1.18,2.403,1.725,3.608L208.102,308.424z
						 M32.43,305.068l-0.885-0.466c0.621-1.18,1.272-2.358,1.935-3.503l0.865,0.501C33.69,302.733,33.045,303.9,32.43,305.068z
						 M204.542,301.356c-0.641-1.15-1.313-2.301-1.997-3.419l0.854-0.522c0.691,1.13,1.37,2.293,2.017,3.455L204.542,301.356z
						 M36.397,298.214l-0.844-0.535c0.716-1.129,1.459-2.251,2.209-3.334l0.822,0.569C37.842,295.986,37.106,297.096,36.397,298.214
						z M200.407,294.604c-0.731-1.089-1.499-2.18-2.278-3.24l0.805-0.593c0.789,1.072,1.563,2.174,2.304,3.275L200.407,294.604z
						 M40.901,291.704l-0.799-0.602c0.79-1.05,1.621-2.108,2.469-3.145l0.773,0.633C42.505,289.617,41.683,290.665,40.901,291.704z
						 M195.711,288.223c-0.831-1.033-1.689-2.054-2.551-3.035l0.752-0.66c0.871,0.992,1.738,2.024,2.578,3.068L195.711,288.223z
						 M45.911,285.579l-0.748-0.664c0.872-0.983,1.784-1.97,2.71-2.935l0.721,0.692C47.677,283.628,46.774,284.606,45.911,285.579z
						 M190.489,282.275c-0.9-0.941-1.841-1.881-2.796-2.794l0.691-0.723c0.966,0.923,1.917,1.874,2.827,2.825L190.489,282.275z
						 M51.393,279.877l-0.693-0.721c0.958-0.92,1.945-1.832,2.937-2.709l0.663,0.749C53.319,278.065,52.34,278.967,51.393,279.877z
						 M184.778,276.812c-0.99-0.868-2.009-1.722-3.028-2.54l0.625-0.78c1.031,0.827,2.062,1.691,3.062,2.568L184.778,276.812z
						 M57.309,274.634l-0.633-0.774c1.028-0.84,2.085-1.669,3.142-2.464l0.602,0.799C59.374,272.982,58.327,273.802,57.309,274.634z
						 M178.613,271.865c-1.055-0.773-2.145-1.537-3.237-2.268l0.557-0.831c1.105,0.739,2.205,1.511,3.273,2.292L178.613,271.865z
						 M63.625,269.883l-0.568-0.822c1.094-0.756,2.213-1.498,3.327-2.203l0.535,0.845C65.816,268.401,64.707,269.135,63.625,269.883
						z M172.046,267.47c-1.12-0.682-2.271-1.35-3.42-1.984l0.484-0.875c1.161,0.641,2.323,1.316,3.455,2.005L172.046,267.47z
						 M70.295,265.656l-0.5-0.865c1.146-0.664,2.321-1.313,3.491-1.928l0.465,0.885C72.594,264.358,71.431,265,70.295,265.656z
						 M165.126,263.646c-1.165-0.583-2.367-1.153-3.572-1.694l0.41-0.912c1.217,0.547,2.432,1.123,3.609,1.712L165.126,263.646z
						 M77.283,261.982l-0.43-0.903c1.187-0.564,2.408-1.115,3.633-1.639l0.393,0.919C79.668,260.878,78.457,261.423,77.283,261.982z
						 M157.917,260.403c-1.216-0.489-2.459-0.962-3.696-1.404l0.336-0.941c1.25,0.447,2.506,0.924,3.733,1.418L157.917,260.403z
						 M84.537,258.885l-0.355-0.935c1.242-0.472,2.508-0.924,3.763-1.343l0.316,0.948C87.018,257.971,85.765,258.419,84.537,258.885
						z M150.471,257.738c-1.249-0.394-2.525-0.771-3.794-1.119l0.266-0.964c1.279,0.352,2.568,0.731,3.829,1.129L150.471,257.738z
						 M92.036,256.379l-0.277-0.961c1.266-0.367,2.563-0.714,3.857-1.033l0.24,0.971C94.575,255.671,93.289,256.015,92.036,256.379z
						 M142.844,255.64c-1.272-0.301-2.573-0.585-3.865-0.843l0.195-0.98c1.304,0.26,2.616,0.546,3.9,0.85L142.844,255.64z
						 M99.715,254.488l-0.199-0.979c1.3-0.265,2.621-0.506,3.929-0.718l0.16,0.987C102.31,253.987,101.002,254.226,99.715,254.488z
						 M135.086,254.088c-1.29-0.212-2.595-0.406-3.916-0.58l0.131-0.991c1.331,0.175,2.648,0.37,3.947,0.585L135.086,254.088z
						 M107.521,253.226l-0.119-0.993c1.31-0.158,2.647-0.292,3.974-0.399l0.08,0.997
						C110.142,252.936,108.819,253.069,107.521,253.226z M127.238,253.055c-1.301-0.129-2.615-0.24-3.944-0.331l0.068-0.998
						c1.339,0.092,2.665,0.204,3.976,0.334L127.238,253.055z M115.404,252.593l-0.039-0.999c1.318-0.053,2.662-0.08,3.993-0.081v1
						C118.04,252.514,116.709,252.541,115.404,252.593z"/>
				</g>
				<g>
					<g>
						<path style="fill:#56A3D8;" d="M55.732,326.819v-1.327c0-4.59,2.599-8.784,6.71-10.826l17.86-8.873h-0.188v-13.701h18.603
							v13.701h-0.188l17.875,8.88c4.102,2.038,6.695,6.222,6.695,10.802v1.343c0,1.03-0.835,1.866-1.866,1.866l0,0v8.748l0,0
							c1.03,0,1.866,0.835,1.866,1.866v1.987c0,1.03-0.835,1.866-1.866,1.866l0,0v43.99l0,0c1.03,0,1.866,0.835,1.866,1.866v1.987
							c0,1.03-0.835,1.866-1.866,1.866l0,0v5.987l0,0c1.03,0,1.866,0.835,1.866,1.866v6.099c0,3.55-2.878,6.428-6.428,6.428H62.16
							c-3.55,0-6.428-2.878-6.428-6.428v-6.099c0-1.03,0.835-1.866,1.866-1.866l0,0v-5.987l0,0c-1.03,0-1.866-0.835-1.866-1.866
							v-1.987c0-1.03,0.835-1.866,1.866-1.866l0,0v-43.99l0,0c-1.03,0-1.866-0.835-1.866-1.866v-1.987
							c0-1.03,0.835-1.866,1.866-1.866l0,0v-8.748l0,0C56.567,328.685,55.732,327.85,55.732,326.819z"/>
						<path style="fill:#FFFFFF;" d="M79.722,295.46h19.387c0.724,0,1.312-0.587,1.312-1.312v-7.009
							c0-0.724-0.587-1.312-1.312-1.312H79.722c-0.724,0-1.312,0.587-1.312,1.312v7.009C78.41,294.873,78.998,295.46,79.722,295.46z
							"/>
						<rect x="57.598" y="328.31" style="fill:#43275B;" width="63.635" height="0.75"/>
						<rect x="80.114" y="305.419" style="fill:#43275B;" width="18.604" height="0.75"/>
						<rect x="57.598" y="337.058" style="fill:#43275B;" width="63.635" height="0.75"/>
						<rect x="57.598" y="342.807" style="fill:#43275B;" width="63.635" height="0.75"/>
						<rect x="57.598" y="386.846" style="fill:#43275B;" width="63.635" height="0.75"/>
						<rect x="57.598" y="392.676" style="fill:#43275B;" width="63.635" height="0.75"/>
						<rect x="57.598" y="398.506" style="fill:#43275B;" width="63.635" height="0.75"/>
						<path style="fill:#FFFFFF;" d="M57.598,383.24h35.907c2.234,0,4.045-1.811,4.045-4.045v-27.987
							c0-2.234-1.811-4.045-4.045-4.045H57.598V383.24z"/>
						<g>
							<rect x="87.237" y="287.659" style="fill:#43275B;" width="0.75" height="5.97"/>
							<rect x="80.662" y="287.659" style="fill:#43275B;" width="0.75" height="5.97"/>
							<rect x="83.95" y="287.659" style="fill:#43275B;" width="0.75" height="5.97"/>
							<rect x="93.811" y="287.659" style="fill:#43275B;" width="0.75" height="5.97"/>
							<rect x="97.099" y="287.659" style="fill:#43275B;" width="0.75" height="5.97"/>
							<rect x="90.524" y="287.659" style="fill:#43275B;" width="0.75" height="5.97"/>
						</g>
						<path style="fill:#43275B;" d="M65.842,377.422c-3.211,0-6.236-1.245-8.519-3.504l0.527-0.533
							c2.141,2.12,4.979,3.287,7.991,3.287c6.262,0,11.356-5.094,11.356-11.356c0-6.262-5.095-11.357-11.356-11.357
							c-3.034,0-5.886,1.181-8.03,3.326l-0.531-0.53c2.287-2.287,5.327-3.546,8.562-3.546c6.676,0,12.106,5.431,12.106,12.107
							C77.949,371.991,72.518,377.422,65.842,377.422z"/>
					</g>
					<g>
						<rect x="102.895" y="350.087" style="fill:#F7B531;" width="77.334" height="63.153"/>
						<rect x="117.114" y="350.087" style="fill:#43275B;" width="0.75" height="63.153"/>
						<rect x="145.82" y="350.016" style="fill:#43275B;" width="7.938" height="13.177"/>
						<path style="fill:#43275B;" d="M131.297,357.991h-8.769c-0.921,0-1.671-0.75-1.671-1.671v-1.573
							c0-0.921,0.75-1.671,1.671-1.671h8.769c0.921,0,1.671,0.749,1.671,1.671v1.573
							C132.968,357.242,132.218,357.991,131.297,357.991z M122.529,353.827c-0.508,0-0.921,0.413-0.921,0.921v1.573
							c0,0.508,0.413,0.921,0.921,0.921h8.769c0.508,0,0.921-0.413,0.921-0.921v-1.573c0-0.508-0.413-0.921-0.921-0.921H122.529z"/>
						<g>
							<path style="fill:#43275B;" d="M168.022,391.31v7.793c0,1.801,1.506,3.261,3.364,3.261l0,0c1.858,0,3.364-1.46,3.364-3.261
								v-7.793H168.022z"/>
							<rect x="171.011" y="401.601" style="fill:#43275B;" width="0.75" height="7.215"/>
							<rect x="168.46" y="408.441" style="fill:#43275B;" width="5.852" height="0.75"/>
						</g>
					</g>
					<g>
						<path style="fill:#FFFFFF;" d="M108.82,346.899c0,0.002-0.001,0.004-0.001,0.006c0,1.758,1.425,3.184,3.184,3.184h69.679
							c1.758,0,3.184-1.425,3.184-3.184c0-0.002-0.001-0.004-0.001-0.006H108.82z"/>
						<path style="fill:#43275B;" d="M168.569,350.098v-0.75c1.347,0,2.442-1.096,2.442-2.443l0.75-0.005
							C171.761,348.666,170.33,350.098,168.569,350.098z"/>
						<path style="fill:#FFFFFF;" d="M182.545,346.899h-58.76c-2.318,0-4.115-2.024-3.842-4.326l4.537-38.148
							c0.231-1.946,1.882-3.412,3.841-3.412h58.76c2.318,0,4.115,2.024,3.842,4.326l-4.537,38.148
							C186.156,345.434,184.505,346.899,182.545,346.899z"/>
						<polygon style="fill:#43275B;" points="128.224,304.773 123.732,342.54 123.66,343.141 182.644,343.141 187.135,305.373 
							187.208,304.773 						"/>
						<rect x="153.52" y="302.528" style="fill:#43275B;" width="4.244" height="0.75"/>
						<g>
							<polygon style="fill:#52396D;" points="182.968,304.773 156.457,343.141 138.56,343.141 165.071,304.773 							"/>
							<polygon style="fill:#52396D;" points="126.552,343.141 153.063,304.773 157.802,304.773 131.291,343.141 							"/>
						</g>
						<path style="fill:#43275B;" d="M143.333,349.234h-5.722c-0.985,0-1.786-0.801-1.786-1.786v-0.923h9.294v0.923
							C145.12,348.433,144.319,349.234,143.333,349.234z M136.576,347.275v0.173c0,0.571,0.465,1.036,1.036,1.036h5.722
							c0.571,0,1.036-0.465,1.036-1.036v-0.173H136.576z"/>
						<rect x="123.785" y="346.525" style="fill:#43275B;" width="58.761" height="0.75"/>
					</g>
					<g>
						<path style="fill:#ED4848;" d="M147.147,410.525v-11.644h2.652v-2.714H77.804c-2.565,0-4.644,2.079-4.644,4.644v7.785
							c0,2.565,2.079,4.644,4.644,4.644h71.995v-2.714H147.147z"/>
						<path style="fill:#FFFFFF;" d="M147.147,398.881H99.183c-1.978,0-3.582,1.418-3.582,3.167v5.31
							c0,1.749,1.604,3.167,3.582,3.167h47.965V398.881z"/>
						<path style="fill:#43275B;" d="M97.047,413.227c-2.651,0-4.808-2.157-4.808-4.808v-7.432c0-2.651,2.156-4.808,4.808-4.808
							v0.75c-2.237,0-4.058,1.82-4.058,4.058v7.432c0,2.237,1.82,4.058,4.058,4.058V413.227z"/>
						<g>
							<rect x="101.98" y="400.392" style="fill:#43275B;" width="45.167" height="0.75"/>
							<rect x="119.461" y="408.1" style="fill:#43275B;" width="27.685" height="0.75"/>
							<rect x="98.251" y="408.1" style="fill:#43275B;" width="15.362" height="0.75"/>
							<rect x="133.304" y="403.672" style="fill:#43275B;" width="7.464" height="0.75"/>
							<rect x="109.059" y="403.672" style="fill:#43275B;" width="20.744" height="0.75"/>
							<rect x="95.6" y="405.968" style="fill:#43275B;" width="49.531" height="0.75"/>
						</g>
					</g>
				</g>
			</g>
			<g>
				<g>
					<circle style="fill:#594789;" cx="249.99" cy="126.301" r="92.403"/>
					<path style="fill:#43275B;" d="M250.163,225.519l-0.041-0.999c1.332-0.055,2.65-0.128,3.955-0.219l0.07,0.998
						C252.833,225.39,251.505,225.464,250.163,225.519z M246.149,225.452c-1.335-0.051-2.677-0.129-3.987-0.232l0.078-0.997
						c1.297,0.102,2.625,0.179,3.948,0.229L246.149,225.452z M258.124,224.958l-0.1-0.995c1.325-0.134,2.636-0.287,3.931-0.46
						l0.133,0.991C260.781,224.669,259.46,224.823,258.124,224.958z M238.186,224.83c-1.318-0.157-2.649-0.342-3.957-0.55
						l0.158-0.987c1.294,0.206,2.611,0.39,3.916,0.544L238.186,224.83z M266.032,223.903l-0.164-0.986
						c1.306-0.217,2.615-0.458,3.893-0.716l0.197,0.98C268.669,223.441,267.349,223.684,266.032,223.903z M230.298,223.571
						c-1.305-0.263-2.617-0.555-3.899-0.868l0.238-0.972c1.268,0.311,2.566,0.6,3.858,0.859L230.298,223.571z M273.857,222.324
						l-0.232-0.973c1.286-0.307,2.575-0.639,3.831-0.987l0.268,0.964C276.456,221.68,275.155,222.015,273.857,222.324z
						 M222.537,221.678c-1.27-0.365-2.554-0.762-3.816-1.181l0.314-0.949c1.25,0.415,2.521,0.808,3.777,1.169L222.537,221.678z
						 M281.549,220.193l-0.303-0.953c1.262-0.4,2.522-0.827,3.746-1.268l0.339,0.94
						C284.095,219.357,282.823,219.788,281.549,220.193z M214.943,219.158c-1.244-0.47-2.495-0.972-3.717-1.49l0.391-0.921
						c1.21,0.514,2.447,1.01,3.68,1.476L214.943,219.158z M289.063,217.487l-0.375-0.927c1.23-0.499,2.453-1.023,3.634-1.557
						l0.412,0.911C291.542,216.453,290.306,216.982,289.063,217.487z M207.574,216.027c-1.212-0.574-2.417-1.175-3.582-1.786
						l0.465-0.886c1.153,0.605,2.346,1.2,3.545,1.768L207.574,216.027z M296.338,214.195l-0.449-0.893
						c1.178-0.591,2.354-1.213,3.495-1.848l0.486,0.874C298.716,212.969,297.528,213.597,296.338,214.195z M200.485,212.313
						c-1.151-0.664-2.304-1.36-3.424-2.068l0.535-0.846c1.108,0.701,2.248,1.39,3.389,2.047L200.485,212.313z M303.32,210.315
						l-0.521-0.853c1.122-0.688,2.241-1.406,3.326-2.135l0.559,0.83C305.586,208.894,304.455,209.62,303.32,210.315z
						 M193.723,208.041c-1.09-0.752-2.182-1.538-3.245-2.336l0.602-0.8c1.052,0.79,2.132,1.568,3.212,2.313L193.723,208.041z
						 M309.951,205.857l-0.594-0.806c1.054-0.775,2.106-1.587,3.131-2.413l0.627,0.778
						C312.08,204.252,311.015,205.073,309.951,205.857z M187.331,203.241c-1.033-0.843-2.058-1.714-3.045-2.588l0.662-0.749
						c0.978,0.865,1.992,1.727,3.016,2.561L187.331,203.241z M316.171,200.842l-0.66-0.751c0.981-0.865,1.96-1.765,2.908-2.676
						l0.693,0.722C318.154,199.058,317.164,199.968,316.171,200.842z M181.344,197.947c-0.964-0.923-1.915-1.873-2.828-2.822
						l0.721-0.693c0.903,0.939,1.845,1.879,2.799,2.793L181.344,197.947z M321.932,195.305l-0.724-0.69
						c0.905-0.948,1.802-1.93,2.667-2.919l0.752,0.658C323.753,193.354,322.847,194.347,321.932,195.305z M175.803,192.194
						c-0.884-0.995-1.757-2.017-2.593-3.037l0.773-0.634c0.828,1.01,1.691,2.022,2.567,3.007L175.803,192.194z M327.193,189.29
						l-0.781-0.625c0.818-1.021,1.627-2.077,2.404-3.138l0.807,0.591C328.836,187.191,328.019,188.258,327.193,189.29z
						 M170.742,186.019c-0.8-1.06-1.587-2.148-2.34-3.234l0.822-0.569c0.745,1.075,1.524,2.152,2.316,3.201L170.742,186.019z
						 M331.91,182.853l-0.83-0.557c0.723-1.079,1.438-2.198,2.125-3.325l0.854,0.52C333.364,180.632,332.641,181.762,331.91,182.853
						z M166.193,179.461c-0.712-1.12-1.409-2.267-2.072-3.409l0.865-0.502c0.656,1.13,1.346,2.266,2.051,3.375L166.193,179.461z
						 M336.064,176.044l-0.875-0.485c0.629-1.132,1.25-2.308,1.844-3.493l0.894,0.448
						C337.326,173.712,336.699,174.9,336.064,176.044z M162.189,172.564c-0.619-1.173-1.221-2.372-1.789-3.563l0.902-0.431
						c0.563,1.178,1.158,2.365,1.771,3.526L162.189,172.564z M339.645,168.909l-0.912-0.411c0.539-1.194,1.063-2.417,1.554-3.635
						l0.928,0.375C340.717,166.468,340.189,167.703,339.645,168.909z M158.753,165.37c-0.519-1.21-1.021-2.453-1.495-3.692
						l0.934-0.357c0.47,1.228,0.968,2.458,1.481,3.656L158.753,165.37z M342.635,161.505l-0.941-0.337
						c0.441-1.234,0.865-2.496,1.26-3.749l0.953,0.3C343.509,158.985,343.082,160.259,342.635,161.505z M155.91,157.916
						c-0.423-1.259-0.825-2.542-1.195-3.813l0.961-0.279c0.365,1.258,0.764,2.527,1.182,3.773L155.91,157.916z M345.032,153.887
						l-0.965-0.262c0.347-1.281,0.671-2.572,0.963-3.837l0.975,0.225C345.709,151.29,345.382,152.594,345.032,153.887z
						 M153.674,150.246c-0.321-1.298-0.617-2.609-0.882-3.897l0.98-0.2c0.261,1.274,0.555,2.572,0.872,3.857L153.674,150.246z
						 M346.827,146.104l-0.982-0.188c0.247-1.29,0.472-2.602,0.668-3.9l0.988,0.149
						C347.302,143.477,347.076,144.802,346.827,146.104z M152.069,142.421c-0.215-1.311-0.404-2.641-0.564-3.955l0.992-0.121
						c0.159,1.3,0.347,2.618,0.559,3.915L152.069,142.421z M348.024,138.204l-0.994-0.112c0.148-1.313,0.272-2.639,0.369-3.94
						l0.998,0.074C348.298,135.54,348.173,136.878,348.024,138.204z M151.099,134.491c-0.109-1.331-0.191-2.673-0.246-3.988l1-0.041
						c0.053,1.301,0.135,2.629,0.242,3.948L151.099,134.491z M348.62,130.237l-1-0.037c0.048-1.299,0.072-2.608,0.072-3.891l1-0.066
						v0.066C348.692,127.605,348.668,128.926,348.62,130.237z M151.766,126.509h-1v-0.208c0-1.323,0.026-2.667,0.078-3.993l1,0.039
						c-0.052,1.313-0.078,2.644-0.078,3.954V126.509z M347.615,122.287c-0.051-1.321-0.126-2.65-0.226-3.951l0.998-0.076
						c0.1,1.313,0.176,2.655,0.227,3.989L347.615,122.287z M152.079,118.399l-0.996-0.079c0.104-1.31,0.237-2.647,0.395-3.975
						l0.992,0.118C152.314,115.778,152.182,117.103,152.079,118.399z M347.015,114.397c-0.149-1.314-0.325-2.634-0.522-3.922
						l0.988-0.151c0.199,1.301,0.377,2.634,0.528,3.96L347.015,114.397z M153.022,110.548l-0.986-0.159
						c0.21-1.306,0.451-2.628,0.714-3.93l0.98,0.198C153.469,107.946,153.231,109.256,153.022,110.548z M345.822,106.574
						c-0.249-1.299-0.525-2.602-0.82-3.871l0.975-0.226c0.297,1.282,0.576,2.597,0.828,3.909L345.822,106.574z M154.595,102.798
						l-0.971-0.238c0.316-1.291,0.663-2.59,1.03-3.86l0.961,0.277C155.252,100.234,154.909,101.52,154.595,102.798z M344.034,98.867
						c-0.35-1.277-0.726-2.554-1.117-3.795l0.953-0.302c0.397,1.254,0.776,2.543,1.129,3.834L344.034,98.867z M156.792,95.201
						l-0.949-0.316c0.418-1.252,0.869-2.522,1.344-3.774l0.936,0.354C157.652,92.704,157.205,93.961,156.792,95.201z
						 M341.652,91.322c-0.446-1.239-0.922-2.483-1.414-3.696l0.928-0.376c0.496,1.226,0.977,2.481,1.428,3.733L341.652,91.322z
						 M159.604,87.788l-0.92-0.393c0.519-1.217,1.072-2.445,1.646-3.65l0.902,0.43C160.665,85.368,160.118,86.584,159.604,87.788z
						 M338.678,83.989c-0.54-1.192-1.114-2.394-1.707-3.571l0.893-0.449c0.599,1.189,1.18,2.403,1.725,3.607L338.678,83.989z
						 M163.006,80.633l-0.885-0.466c0.621-1.18,1.272-2.358,1.935-3.503l0.865,0.501C164.266,78.298,163.622,79.465,163.006,80.633z
						 M335.119,76.92c-0.641-1.15-1.313-2.301-1.997-3.419l0.853-0.522c0.691,1.13,1.37,2.293,2.017,3.455L335.119,76.92z
						 M166.973,73.778l-0.844-0.535c0.716-1.129,1.459-2.251,2.209-3.335l0.822,0.569C168.418,71.55,167.682,72.661,166.973,73.778z
						 M330.983,70.168c-0.732-1.089-1.499-2.18-2.278-3.24l0.805-0.593c0.789,1.072,1.564,2.174,2.304,3.275L330.983,70.168z
						 M171.477,67.269l-0.799-0.602c0.79-1.05,1.621-2.108,2.469-3.145l0.773,0.633C173.081,65.182,172.259,66.23,171.477,67.269z
						 M326.288,63.787c-0.831-1.033-1.689-2.054-2.551-3.035l0.752-0.66c0.871,0.992,1.738,2.024,2.578,3.068L326.288,63.787z
						 M176.487,61.144l-0.748-0.664c0.872-0.983,1.784-1.97,2.71-2.935l0.721,0.692C178.253,59.193,177.35,60.171,176.487,61.144z
						 M321.065,57.84c-0.9-0.941-1.841-1.881-2.796-2.794l0.691-0.723c0.966,0.923,1.917,1.874,2.827,2.825L321.065,57.84z
						 M181.969,55.442l-0.693-0.721c0.958-0.92,1.945-1.831,2.937-2.709l0.663,0.749C183.895,53.63,182.917,54.532,181.969,55.442z
						 M315.354,52.376c-0.99-0.868-2.009-1.722-3.028-2.539l0.625-0.78c1.031,0.827,2.061,1.69,3.061,2.568L315.354,52.376z
						 M187.885,50.199l-0.633-0.774c1.028-0.84,2.085-1.669,3.142-2.464l0.602,0.799C189.95,48.547,188.903,49.367,187.885,50.199z
						 M309.189,47.43c-1.055-0.773-2.145-1.537-3.237-2.268l0.557-0.831c1.104,0.739,2.205,1.511,3.272,2.292L309.189,47.43z
						 M194.201,45.448l-0.568-0.822c1.094-0.756,2.213-1.498,3.327-2.203l0.535,0.845C196.392,43.966,195.284,44.7,194.201,45.448z
						 M302.622,43.034c-1.12-0.682-2.271-1.35-3.42-1.984l0.484-0.875c1.161,0.641,2.323,1.316,3.455,2.005L302.622,43.034z
						 M200.872,41.221l-0.5-0.865c1.146-0.664,2.321-1.313,3.491-1.928l0.465,0.885C203.17,39.923,202.007,40.565,200.872,41.221z
						 M295.703,39.211c-1.165-0.583-2.367-1.153-3.572-1.694l0.41-0.912c1.217,0.547,2.432,1.123,3.609,1.712L295.703,39.211z
						 M207.859,37.547l-0.43-0.903c1.187-0.564,2.408-1.115,3.633-1.639l0.393,0.919C210.244,36.443,209.034,36.988,207.859,37.547z
						 M288.493,35.968c-1.216-0.489-2.459-0.961-3.696-1.404l0.336-0.941c1.25,0.447,2.506,0.924,3.733,1.418L288.493,35.968z
						 M215.113,34.45l-0.355-0.934c1.242-0.472,2.508-0.924,3.763-1.343l0.316,0.948C217.594,33.536,216.341,33.984,215.113,34.45z
						 M281.046,33.303c-1.249-0.394-2.525-0.771-3.794-1.119l0.266-0.964c1.279,0.351,2.568,0.731,3.829,1.129L281.046,33.303z
						 M222.612,31.944l-0.277-0.961c1.266-0.367,2.564-0.714,3.857-1.033l0.24,0.971C225.151,31.236,223.866,31.581,222.612,31.944z
						 M273.42,31.205c-1.273-0.301-2.573-0.585-3.865-0.843l0.195-0.98c1.304,0.26,2.616,0.546,3.9,0.85L273.42,31.205z
						 M230.292,30.053l-0.199-0.979c1.3-0.265,2.621-0.506,3.929-0.718l0.16,0.987C232.886,29.552,231.579,29.791,230.292,30.053z
						 M265.663,29.653c-1.29-0.212-2.595-0.406-3.916-0.58l0.131-0.991c1.331,0.175,2.647,0.37,3.947,0.584L265.663,29.653z
						 M238.097,28.791l-0.119-0.993c1.31-0.158,2.648-0.292,3.974-0.399l0.08,0.997C240.718,28.501,239.395,28.634,238.097,28.791z
						 M257.814,28.619c-1.301-0.129-2.615-0.24-3.944-0.331l0.068-0.998c1.339,0.092,2.665,0.204,3.976,0.334L257.814,28.619z
						 M245.98,28.158l-0.039-0.999c1.318-0.053,2.662-0.08,3.993-0.081v1C248.617,28.079,247.286,28.106,245.98,28.158z"/>
				</g>
				<g>
					<g>
						<rect x="247.08" y="87.895" style="fill:#56A3D8;" width="55.876" height="96.491"/>
						<g>
							<g>
								<rect x="277.367" y="95.003" style="fill:#43275B;" width="10.446" height="4.447"/>
								<rect x="277.367" y="100.65" style="fill:#43275B;" width="10.446" height="4.447"/>
							</g>
							<g>
								<rect x="292.51" y="95.003" style="fill:#43275B;" width="10.445" height="4.447"/>
								<rect x="292.51" y="100.65" style="fill:#43275B;" width="10.445" height="4.447"/>
							</g>
							<g>
								<rect x="247.08" y="95.003" style="fill:#43275B;" width="10.446" height="4.447"/>
								<rect x="247.08" y="100.65" style="fill:#43275B;" width="10.446" height="4.447"/>
							</g>
							<g>
								<rect x="262.224" y="95.003" style="fill:#43275B;" width="10.445" height="4.447"/>
								<rect x="262.224" y="100.65" style="fill:#43275B;" width="10.445" height="4.447"/>
							</g>
						</g>
						<rect x="241.388" y="83.32" style="fill:#43275B;" width="64.659" height="4.575"/>
						<g>
							<rect x="247.009" y="107.334" style="fill:#43275B;" width="55.876" height="0.75"/>
							<rect x="247.009" y="92.016" style="fill:#43275B;" width="55.876" height="0.75"/>
						</g>
					</g>
					<g>
						<g>
							<polygon style="fill:#FFFFFF;" points="223.035,123.583 201.012,123.583 203.503,64.359 220.545,64.359 							"/>
							<polygon style="fill:#ED4848;" points="221.24,80.889 221.049,76.348 202.999,76.348 202.808,80.889 							"/>
							<polygon style="fill:#ED4848;" points="220.944,73.857 220.768,69.668 203.28,69.668 203.104,73.857 							"/>
						</g>
						<g>
							<polygon style="fill:#FFFFFF;" points="255.634,123.583 233.611,123.583 236.101,64.359 253.143,64.359 							"/>
							<polygon style="fill:#ED4848;" points="253.838,80.889 253.647,76.348 235.597,76.348 235.406,80.889 							"/>
							<polygon style="fill:#ED4848;" points="253.542,73.857 253.366,69.668 235.878,69.668 235.702,73.857 							"/>
						</g>
					</g>
					<g>
						<rect x="191.331" y="125.482" style="fill:#FFFFFF;" width="95.706" height="58.904"/>
						<g>
							<g>
								<rect x="196.244" y="137.455" style="fill:#43275B;" width="8.816" height="5.691"/>
								<rect x="206.767" y="137.455" style="fill:#43275B;" width="8.816" height="5.691"/>
							</g>
							<g>
								<rect x="229.515" y="137.455" style="fill:#43275B;" width="8.816" height="5.691"/>
								<rect x="240.038" y="137.455" style="fill:#43275B;" width="8.816" height="5.691"/>
							</g>
							<g>
								<rect x="262.787" y="137.455" style="fill:#43275B;" width="8.816" height="5.691"/>
								<rect x="273.31" y="137.455" style="fill:#43275B;" width="8.816" height="5.691"/>
							</g>
						</g>
						<rect x="188.698" y="120.026" style="fill:#43275B;" width="100.972" height="7.114"/>
						<g>
							<rect x="210.605" y="163.579" style="fill:#43275B;" width="21.792" height="2.668"/>
							<rect x="211.832" y="166.246" style="fill:#56A3D8;" width="19.339" height="18.14"/>
							<g>
								<rect x="211.831" y="168.559" style="fill:#43275B;" width="19.339" height="0.75"/>
								<rect x="211.831" y="171.75" style="fill:#43275B;" width="19.339" height="0.75"/>
								<rect x="211.831" y="174.941" style="fill:#43275B;" width="19.339" height="0.75"/>
								<rect x="211.831" y="178.133" style="fill:#43275B;" width="19.339" height="0.75"/>
								<rect x="211.831" y="181.324" style="fill:#43275B;" width="19.339" height="0.75"/>
							</g>
						</g>
						<g>
							<rect x="245.972" y="163.579" style="fill:#43275B;" width="21.792" height="2.668"/>
							<rect x="247.199" y="166.246" style="fill:#56A3D8;" width="19.339" height="18.14"/>
							<g>
								<rect x="247.199" y="168.559" style="fill:#43275B;" width="19.339" height="0.75"/>
								<rect x="247.199" y="171.75" style="fill:#43275B;" width="19.339" height="0.75"/>
								<rect x="247.199" y="174.941" style="fill:#43275B;" width="19.339" height="0.75"/>
								<rect x="247.199" y="178.133" style="fill:#43275B;" width="19.339" height="0.75"/>
								<rect x="247.199" y="181.324" style="fill:#43275B;" width="19.339" height="0.75"/>
							</g>
						</g>
						<rect x="191.331" y="129.392" style="fill:#43275B;" width="95.706" height="0.75"/>
						<rect x="191.331" y="179.651" style="fill:#43275B;" width="20.5" height="0.75"/>
						<rect x="231.17" y="179.651" style="fill:#43275B;" width="16.028" height="0.75"/>
						<rect x="266.538" y="179.651" style="fill:#43275B;" width="20.5" height="0.75"/>
					</g>
					<rect x="189.472" y="184.387" style="fill:#43275B;" width="121.035" height="5.054"/>
					<g>
						<path style="fill:#FFFFFF;" d="M298.381,149.761h-5v-32.613c0-1.134-0.852-2.057-1.9-2.057H277.71
							c-1.048,0-1.9,0.923-1.9,2.057v2.878h-5v-2.878c0-3.891,3.096-7.057,6.9-7.057h13.771c3.805,0,6.9,3.166,6.9,7.057V149.761z"
							/>
						<path style="fill:#2FA597;" d="M300.055,149.761h-8.347c-4.995,1.731-8.588,6.465-8.588,12.049v22.577h25.522V161.81
							C308.643,156.226,305.051,151.492,300.055,149.761z"/>
						<rect x="283.172" y="160.296" style="fill:#43275B;" width="25.419" height="0.75"/>
						<path style="fill:#43275B;" d="M300.055,149.761h-8.249v-0.724c0-0.857,0.695-1.553,1.552-1.553h4.944
							c0.968,0,1.753,0.785,1.753,1.753V149.761z"/>
					</g>
				</g>
			</g>
		</g>
	</g>
</g>
</svg>
