<?xml version="1.0" encoding="utf-8"?>
<!-- Generator: Adobe Illustrator 27.5.0, SVG Export Plug-In . SVG Version: 6.00 Build 0)  -->
<svg version="1.1" id="Layer_1" xmlns="http://www.w3.org/2000/svg" xmlns:xlink="http://www.w3.org/1999/xlink" x="0px" y="0px"
	 viewBox="0 0 2000 2000" style="enable-background:new 0 0 2000 2000;" xml:space="preserve">
<g>
	<radialGradient id="SVGID_1_" cx="1000" cy="1000" r="1414.2" gradientUnits="userSpaceOnUse">
		<stop  offset="0" style="stop-color:#FFFFFF"/>
		<stop  offset="0.53" style="stop-color:#FFFFFF"/>
		<stop  offset="1" style="stop-color:#E7E8E9"/>
	</radialGradient>
	<rect x="0" y="0" style="fill-rule:evenodd;clip-rule:evenodd;fill:url(#SVGID_1_);" width="2000" height="2000"/>
	<g>
		<g>
			<path style="fill-rule:evenodd;clip-rule:evenodd;fill:#58595B;" d="M501.706,1123.004L501.706,1123.004L501.706,1123.004z
				 M785.33,1115.197l20.982-114.135c-8.165,11-25.865,19.213-37.517,18.697c-2.454-0.11-4.936-0.333-7.418-0.849
				c-9.087-2.035-16.358-7.182-21.811-13.901c-0.515-0.618-0.976-1.235-1.45-1.872c-0.353-0.211-0.625-0.922-0.896-0.753
				c-6.131-0.014-11.786-5.399-9.589-11.508c1.003-2.646,4.014-4.401,6.957-3.771c3.31,0.929,2.117,4.401,2.714,6.735
				c0.569,1.438,3.092-1.093,3.621-2.524c0.569-1.621,0.313-3.445-0.489-4.931c-1.546-2.963-4.299-4.428-7.582-4.713
				c-1.546-0.068-2.047-0.339-2.428-0.618c-0.149-14.099,7.433-27.865,20.25-34.132c0.774-0.311,1.547-0.617,2.319-0.887
				c0.801-0.279,1.588-0.522,2.388-0.747c1.411-1.043,2.997-0.25,4.314-0.807c0.948-0.203,1.383-0.264,1.885-0.325
				c13.021-1.301,26.964,3.893,33.433,16.425c4.639,9.487,5.493,20.847-1.207,30.26c4.829-11.318,4.001-25.513-4.421-35.047
				c-12.18-13.353-33.922-12.607-46.36,0.515c-6.415,6.307-9.318,14.743-9.332,23.2c0.054,0.38,0.108,0.76,0.257,1.153
				c4.328,1.526,8.708,4.653,8.247,9.84c-0.217,3.032-2.618,6.022-6.063,5.717c-1.519-0.101-2.889-0.847-3.201-2.447
				c-0.515-1.642,0.95-2.415,1.6-3.385c0.964-1.336-1.017-2.407-2.414-2.054c-2.74,0.501-3.96,3.099-3.865,5.743
				c0.203,5.107,5.465,8.213,10.213,7.169c1.98-0.428,2.333-0.15,2.658,0.135c11.91,14.75,33.773,18.243,50.605,8.349
				c-8.544,3.71-18.975,7.392-28.415,4.463c24.55,4.008,47.458-17.517,44.84-43.092c-1.776-11.372-7.365-20.874-16.764-28.517
				c-6.538-4.713-13.726-7.371-20.969-8.09c-0.814-0.082-1.614-0.136-2.414-0.176c-2.578,5.425-7.921,10.864-14.228,7.542
				c-1.75-1.044-3.147-2.679-3.811-4.782c-0.651-3.004,0.894-6.185,3.946-7.06c1.615-0.304,3.568,0.753,3.879,2.367
				c0.11,1.567-1.342,2.138-2.508,2.538c-0.054,0.217-0.136,0.637-0.19,0.833c0.774,1.492,2.456,1.844,3.933,1.072
				c3.269-1.94,3.011-6.817-0.014-9.014c-1.925-1.294-4.19-2-6.564-1.179c-4.49,1.437-6.986,5.961-6.267,10.546
				c0.082,1.722-0.203,2.068-0.501,2.461c-1.844,0.997-3.635,2.143-5.358,3.404c-17.143,12.146-20.182,32.918-17.401,51.446
				c-1.193,1.872-2.496,3.561-3.933,5.128c-13.346,12.153-32.308,15.767-48.299,7.114c-15.07-7.711-21.553-23.844-18.556-39.904
				c0.447-1.831,1.045-3.581,1.778-5.249c-7.081,5.554-18.149,4.971-25.622-0.306c-1.302,0.739-2.645,1.418-3.988,2.075
				c-2.576,1.208-5.181,2.279-7.839,3.201c0.758-2.583,0.949-3.818,1.315-5.757c2.333-8.2,2.115-16.547-0.706-25.154
				c-1.872-5.411-4.883-10.071-8.64-13.861l-8.396-0.197c7.582,5.392,13.103,13.814,14.256,23.933
				c0.611,9.942-2.374,19.008-8.897,27.207c-4.667,5.189-10.24,8.756-16.236,10.715c-0.678,0.211-1.342,0.4-2.021,0.583
				c-3.16-4.11-8.693-7.717-13.414-3.729c-1.275,1.2-2.157,2.835-2.319,4.74c-0.014,2.651,1.899,5.051,4.639,5.228
				c1.397-0.033,2.862-1.301,2.835-2.719c-0.203-1.342-1.519-1.553-2.59-1.675c-0.096-0.162-0.231-0.515-0.313-0.671
				c0.381-1.39,1.736-2.021,3.12-1.642c3.133,1.038,3.811,5.215,1.642,7.629c-1.397,1.444-3.174,2.469-5.303,2.211
				c-4.069-0.386-7.013-3.743-7.257-7.745c-0.245-1.478-0.569-1.722-0.882-1.987c-1.75-0.522-3.458-1.146-5.167-1.906
				c-16.724-7.093-23.126-24.094-24.197-40.263c-1.343-1.35-2.768-2.529-4.26-3.608c-12.044-6.944-26.557-7.357-37.99-0.162
				l7.378,7.217c-0.461-1.154-0.529-2.469-0.189-3.778c0.84-2.632,3.39-4.611,6.374-4.747c5.196-0.319,8.41,4.55,8.749,9.29
				c-0.094,0.237,0.475,0.59,0.8,0.611c0.625,0.196,1.263,0.407,1.886,0.638c5.573,2.047,10.701,5.554,14.174,10.817
				c4.11,6.801,4.665,14.16,2.726,20.888l6.632,6.497c0.393,0.426-3.499,4.428-4.028,5.011
				c-23.153,24.828-36.608,51.201-41.532,76.586c-3.783,19.456-2.577,38.553,3.093,56.254c5.683,17.903,17.674,36.974,31.739,51.324
				c46.969,47.986,105.943,48.706,167.683,53.317c-15.204-44.04,15.978-100.165,53.44-146.172L785.33,1115.197L785.33,1115.197z
				 M812.89,965.281c-0.935-4.265-2.468-8.362-4.557-12.301c-0.882-2.082-1.41-3.432-2.929-6.165
				c3.255,0.38,6.469,0.936,9.657,1.696l0.868,0.21L812.89,965.281L812.89,965.281z M672.252,923.248
				c0.515,0.313,0.99,0.672,1.424,1.112c2.319,2.462,2.672,6.931-0.379,8.904c0.881-1.993,1.803-4.211,0.474-6.253
				c-0.99-1.525-2.278-2.685-3.96-3.051c-5.032-1.085-9.224,4.137-8.083,9.006c1.478,5.372,7.256,8.153,12.328,5.954
				c2.415-1.017,4.165-3.058,5.507-5.174c0.259-0.169,0.597-0.753,1.249-0.706c0.854,0.014,1.682,0.047,2.508,0.115
				c20.807,1.715,39.578,21.96,32.106,43.722c-2.618,6.787-7.515,12.024-13.319,15.699c-0.665,0.421-1.315,0.8-1.981,1.18
				c-0.367,0.108-0.922,0.638-0.76,0.908c0.8,5.432-1.654,11.713-7.568,12.649c-3.404,0.563-6.796-1.037-8.396-3.799
				c-1.221-2.454-1.058-5.27,0.706-7.317c1.451-1.662,5.371-2.571,6.606-0.108c-2.211-0.922-4.801-0.164-5.765,2.271
				c-0.814,1.797-0.122,3.703,1.112,5.074c2.658,2.99,7.676,2.082,9.697-1.207c2.063-3.5,1.289-8.064-1.64-10.675
				c-3.594-2.747-8.64-2.74-12.329,0.075c-0.896,0.725-1.425,1.078-2.157,1.675c-3.242-1.668-6.212-4.151-8.761-7.386
				c-5.589-7.608-2.66-19.883,6.849-23.586c-1.451,2.489-2.618,5.215-3.228,7.975c-0.068,0.306-0.122,0.617-0.19,0.922
				c1.479,0.489,3.256,0.557,4.029,2.36c0.419,1.072,0.339,2.204-0.515,3.093c-0.517,0.543-1.411,0.84-2.143,0.433
				c1.396-0.346,2.55-1.925,1.6-3.261c-1.044-1.56-3.378-1.404-4.368,0.129c-1.071,1.56-0.624,4.042,1.181,4.943
				c0.393,0.251,0.706,0.4,0.95,0.536c0.569,1.315,1.383,2.557,2.494,3.682c5.629,4.789,13.197,4.85,19.844,2.075
				c7.594-3.708,10.497-11.257,10.565-18.825c-0.094-1.14-0.258-2.286-0.515-3.392c-0.407,0.028-0.746,0.021-1.221,0
				c-1.614-0.019-3.133-1.336-3.364-2.957c-0.108-0.996,0.258-1.906,1.058-2.556c0.583-0.449,1.37-0.692,2.075-0.456
				c0.597,0.211,1.071,0.644,1.275,1.275c0.122,0.597-0.23,1.418-1.031,1.329c0.176-0.779-0.217-1.614-1.112-1.308
				c-0.719,0.332-0.962,1.105-0.706,1.811c0.339,1.064,1.479,1.553,2.51,1.289c2.075-0.543,2.618-3.053,1.41-4.7
				c-0.949-1.275-2.482-1.444-3.851-1.397c-0.122-0.047-0.19-0.108-0.244-0.169c-3.418-5.493-8.938-9.833-15.924-11.638
				c-9.779-1.729-18.975,0.936-25.769,6.571c-0.285-0.942-1.072-1.688-2.185-1.675c-0.583,0.042-1.125,0.224-1.438,0.665
				c-0.475,0.671-0.419,1.804,0.543,2.042c0.678,0.162,0.774-0.807,1.112-0.726c0.624,0.054,0.488,0.903,0.081,1.397l-0.094,0.108
				l-0.054,0.047l-0.054,0.028c-1.18,0.753-2.646-0.089-3.025-1.296c-0.624-2.014,1.275-3.553,3.025-3.811
				c0.068-0.115,0.081-0.237,0.095-0.36c-0.203-2.746-1.125-5.371-2.726-7.745c-3.661-5.065-10.688-8.083-16.9-5.825
				c-5.018,1.986-8.693,6.199-8.612,12.05c0.299,4.999,3.378,9.353,8.26,10.343c3.46,0.475,6.972-0.746,8.831-3.703
				c1.763-3.343,1.343-7.04-2.103-9.196c-1.858-0.835-3.39-0.075-4.801,1.092c-1.424,1.16-0.556,3.079-0.19,4.679
				c-3.376-0.082-4.286-4.076-3.458-5.954c2.075-3.839,6.782-5.344,10.621-3.269c2.847,1.458,4.788,4.394,5.506,7.589
				c0.529,4.09-1.071,8.24-4.299,10.661c-3.947,3.018-8.735,4.103-13.374,2.204c-5.535-2.082-9.128-6.749-10.01-12.438
				c-0.475-5.792,1.315-10.831,5.385-15.124c7.229-7.121,16.533-5.039,24.847-2.218l0.258-0.4l1.831,1.126
				c0.096-1.75,0.665-3.472,2.035-5.126c0.788-0.936,1.75-1.676,2.808-2.192L672.252,923.248L672.252,923.248z M561.955,920.705
				c-4.124,2.978-7.57,6.89-9.915,11.604c-0.217,0.299-0.475,0.603-2.225,0.603c-4.19-0.013-8.055,3.587-7.31,7.935
				c0.419,2.265,1.939,4.232,4.34,4.144c1.233,0.047,2.712-1.221,1.668-2.178c-0.733-0.692-2.129-1.085-1.994-2.557
				c-0.04-1.417,1.004-2.306,2.251-2.665c2.862-0.895,5.439,1.187,6.186,3.717c1.342,4.279-1.778,7.739-5.142,9.84
				c-0.067,0.36-0.026,0.678,0,1.018c1.56,7.133,5.575,13.732,12.167,17.876c12.912,8.803,31.44,5.411,39.279-8.118
				c5.345-9.617,3.432-21.762-2.753-30.429c7.419,6.693,8.789,16.458,6.632,25.343c-3.16,11.779-13.997,18.751-25.242,20.046
				c-0.406,0.042-0.826,0.075-1.654,0.075c-1.207-0.196-2.4,0.739-3.785,0.115c-0.704-0.04-1.438-0.094-2.156-0.19
				c-0.705-0.088-1.425-0.182-2.117-0.325c-12.003-2.922-20.942-13.157-23.424-25.099c0.271-0.313,0.624-0.63,1.94-0.957
				c2.713-0.854,4.76-2.604,5.533-5.397c0.393-1.411,0.271-2.999-0.515-4.267c-0.706-1.111-3.296-2.774-3.5-1.451
				c-0.081,2.063,1.56,4.796-1.071,6.199c-2.36,1.065-5.236,0.136-6.565-1.913c-2.983-4.76,0.787-10.362,5.968-11.508
				c0.244,0.108,0.353-0.549,0.624-0.786c0.272-0.631,0.571-1.242,0.868-1.858c1.656-3.269,3.757-6.3,6.307-8.946L561.955,920.705
				L561.955,920.705z M505.951,947.758c1.696,0.495,4.001,0.156,4.449-1.675c-1.682,1.2-4.014,1.031-5.275-0.849
				c-1.032-1.369-0.801-3.099,0-4.489c1.694-3.025,6.089-3.18,8.422-0.767c2.388,2.571,2.578,6.572,0.583,9.318
				c-1.058,1.249-2.442,2.136-3.919,2.625L505.951,947.758L505.951,947.758z M512.149,953.799c1.926-0.203,3.919-0.108,5.9,0.258
				c7.107,1.722,10.946,7.561,12.411,13.943c0.122,0.99,0.19,1.981,0.203,2.978l-0.8,0.142L512.149,953.799L512.149,953.799z
				 M531.369,972.593c0.515,0.237,0.908,0.637,1.153,1.132L531.369,972.593z"/>
			<path style="fill-rule:evenodd;clip-rule:evenodd;fill:#58595B;" d="M1442.109,863.949l-2.293,1.322
				c-0.108,3.533,0.23,7.094,0.976,10.553c0.122,0.536,0.272,1.051,0.624,2.089c0.747,1.403,0.082,3.261,1.439,4.686
				c0.353,0.875,0.718,1.743,1.125,2.59c0.407,0.828,0.828,1.661,1.289,2.482c8.64,13.557,25.011,20.29,40.771,18.351
				c0.272-0.489,0.503-1.051,0.367-2.801c-0.094-3.703,1.193-6.978,4.326-9.081c1.56-1.071,3.568-1.593,5.467-1.167
				c1.654,0.401,4.802,2.917,3.268,3.724c-2.522,0.976-6.55,0.089-7.201,3.907c-0.326,3.357,2.035,6.51,5.113,7.297
				c7.121,1.688,12.425-5.318,11.665-12.188c-0.217-0.264,0.556-0.664,0.732-1.099c0.651-0.603,1.289-1.214,1.912-1.844
				c0.896-0.922,1.764-1.872,2.59-2.849l-2.374-3.832c-1.315,1.9-2.807,3.697-4.475,5.385c-0.285,0.4-0.543,0.814,0.189,2.985
				c1.764,5.174-1.057,11.447-6.726,12.342c-2.957,0.435-6.022-0.603-6.932-3.607c-0.569-1.526,0.395-3.839,1.995-2.971
				c1.167,0.611,2.211,2.171,4.001,1.383c1.75-0.556,2.4-2.183,2.319-3.913c-0.082-3.872-3.731-6.185-7.161-6.043
				c-5.846,0.143-8.803,5.432-9.983,10.458c-0.407,0.236-0.828,0.332-1.247,0.44c-9.44,1.058-19.274-1.132-27.128-7.507
				C1446.814,887.577,1441.606,875.62,1442.109,863.949L1442.109,863.949z M1430.688,870.548c5.806,2.489,11.176,7.493,8.504,14.296
				c-0.936,2.096-2.59,3.879-4.87,4.869c-3.242,1.118-7.012-0.231-8.382-3.526c-0.557-1.75,0.393-4.083,2.169-4.625
				c1.724-0.333,2.55,1.207,3.161,2.482c0.217,0.04,0.706,0.088,0.963,0.094c1.546-1.051,1.736-2.964,0.678-4.543
				c-2.563-3.411-8.015-2.503-10.064,1.186c-1.193,2.306-1.722,4.931-0.501,7.467c2.169,4.849,7.554,7.074,12.586,5.69
				c1.913-0.326,2.347-0.028,2.822,0.257c1.356,1.933,2.849,3.799,4.503,5.568c15.747,17.639,39.387,18.392,59.76,12.953
				c2.225,1.092,4.286,2.34,6.226,3.737c15.313,13.407,21.756,34.165,14.106,53.175c-6.714,17.815-23.967,27.112-42.318,25.811
				c-18.46-2.367-31.846-18.121-30.653-37.503c1.139-8.078,5.276-14.797,11-19.301c0.068-0.088,0.122-0.142,0.149-0.311
				c-0.203-1.533-0.217-3.269,1.072-4.496c1.708-1.567,4.583-1.27,5.465,0.996c0.407,1.133,0.028,2.469-1.125,2.971
				c-0.774,0.393-1.668,0.197-2.129-0.55c-0.448-0.969,0.42-1.511,1.315-1.424c0-0.901-0.964-1.186-1.628-0.997
				c-0.651,0.32-1.085,0.91-1.249,1.621c-0.175,0.8,0.204,1.656,0.774,2.251c0.828,0.807,1.886,1.099,3.025,0.849
				c1.75-0.468,3.037-2.326,2.861-4.131c-0.026-0.529-0.094-0.922-0.162-1.362c1.221-0.428,2.469-0.774,3.745-1.018
				c8.49-0.895,17.265,1.418,22.393,9.454c3.946,7.081,4.814,15.564,0.203,22.481c-1.139,1.371-2.414,2.448-3.811,3.242
				c-0.15,0.285-0.271,0.658-0.475,1.126c-0.774,2.136-3.513,2.957-5.399,1.953c-1.817-0.901-2.292-3.499-0.704-4.896
				c1.396-1.207,3.296-0.116,3.865,1.397c0.353-0.868-0.096-1.825-0.76-2.361c-1.113-0.826-2.374-0.765-3.54-0.156
				c-1.926,1.078-1.75,3.093-2.103,4.801c-0.353-0.026-0.704-0.061-1.057-0.088c-3.188-0.333-6.389-1.303-9.332-2.604
				c5.345,10.144,19.436,11.894,27.263,4.651c3.282-3.261,5.669-6.89,7.147-10.721c-0.772-0.726-1.221-1.303-2.156-2.218
				c-3.608-3.757-4.274-9.426-1.656-13.767c2.564-3.635,7.568-5.074,11.746-3.208c3.961,1.858,5.589,7.365,2.578,10.715
				c-1.383,1.553-3.418,2.576-5.535,1.879c-2.835-0.774-4.028-3.582-3.268-6.158c-2.604,1.689-1.085,5.975,0.949,7.385
				c2.524,1.71,5.683,1.526,8.288-0.149c2.889-2.15,4.26-6.124,3.187-9.881c-1.804-6.504-9.142-8.438-15.11-6.857
				c-0.285,0.211-0.949-0.325-1.113-0.732c-0.501-0.713-1.031-1.397-1.56-2.068c-4.868-6.022-11.351-10.838-19.286-12.913
				c-25.282-5.596-45.574,17.964-44.842,41.456c0.042,0.943,0.082,1.879,0.19,2.822c0.028,0.718,0.733,1.057,0.936,1.315
				c2.55,1.228,5.06,2.929,6.497,5.493c3.105,5.425,0.718,12.214-5.114,14.567c-5.276,1.892-11.678-2.136-11.094-7.907
				c0.19-1.94,1.329-3.534,2.915-4.815c2.103-1.736,4.707-0.997,7.067-0.285c-2.604-3.16-7.554-2.197-10.022,0.713
				c-3.351,4.286-1.804,10.504,2.549,13.367c5.236,3.445,10.35,0.8,15.151-1.533c0.555,0.76,1.167,1.499,1.762,2.225
				c7.094,8.3,17.008,14.174,28.429,15.814c0.094-0.304,0.163-0.419,0.299-0.697c0.854-2.361,3.783-3.601,6.008-2.199
				c1.357,0.957,2.007,2.747,1.207,4.225c-0.23,0.611-0.746,1.181-1.505,1.472c-1.424,0.583-2.983-0.203-3.282-1.682
				c-0.162-1.119,0.854-2.285,2.007-1.892c0.435,0.224,0.651,0.692,0.435,1.125c-0.108,0.176-0.204,0.251-0.38,0.143
				c-0.257-0.21-0.433-0.23-0.638-0.068c-0.094,0.082-0.203,0.271-0.135,0.454c0.203,0.665,0.732,0.896,1.287,0.767
				c1.112-0.264,1.533-1.594,1.086-2.536c-0.692-1.438-2.483-1.614-3.757-0.733c-0.99,0.801-1.385,2.035-1.14,3.242
				c0.597,2.143,2.957,3.114,4.938,2.408c1.519-0.576,2.388-1.96,2.753-3.411c0.108-0.143,0.204-0.211,0.299-0.313
				c11.054-0.847,20.63-5.961,30.558-11.142c0.313-0.19,0.638-0.353,0.963-0.522c0.245-1.954,0.394-4.388,2.66-5.25
				c0.963-0.358,2.021-0.257,2.889,0.197c1.125,0.665,1.694,2,1.221,3.214c-0.245,0.706-0.868,1.371-1.669,1.371
				c-0.474-0.035-0.99-0.176-1.221-0.569c-0.135-0.381-0.285-0.849,0.136-1.263c-0.068,0.632,0.611,1.154,1.167,1.011
				c0.828-0.177,1.017-1.146,0.828-1.906c-0.218-0.563-0.733-0.99-1.343-1.221c-1.411-0.407-2.672,0.468-3.255,1.682
				c-0.569,1.296-0.094,2.794,0.896,3.811c1.329,1.221,3.065,1.221,4.625,0.814c0.23,0.231,0.461,0.489,0.664,0.739l0.068,0.115
				l0.732-0.549l-3.254,26.475c0.624,6.714,3.146,13.007,9.358,18.019c7.121,5.35,14.96,7.196,23.519,5.493
				c8.354-2.272,14.701-8.429,16.926-17.049c2.035-7.257-0.421-14.249-5.575-19.64c-4.176-4.429-10.633-6.097-16.669-4.632
				c-4.665,1.635-8.721,5.011-10.403,9.535c-2.454,6.069,0.597,12.872,6.688,15.326c2.929,0.922,8.761-1.111,8.286-6.178
				c-2.319,0.807-5.032,2.414-7.025,0.489c-1.967-1.926-3.378-4.049-2.428-6.979c2.63-5.519,8.083-6.775,13.386-4.7
				c4.735,2.253,7.149,7.304,7.04,12.574c-0.665,7.44-6.646,12.804-14.051,14.079c-8.762,1.112-15.667-3.649-19.492-10.831
				c-4.435-8.904-1.085-19.897,5.833-26.258c3.282-2.787,7.067-4.599,11.135-5.364c0.176,0,0.367-0.014,0.557,0.067
				c0.664,2.578,3.296,5.147,6.211,3.879c1.71-0.779,2.74-3.106,1.397-4.733c-0.705-0.793-2.4-0.997-2.374,0.082
				c-0.054,0.522,1.397,0.501,1.289,1.546c-0.217,1.465-1.872,1.736-2.957,1.153c-0.732-0.393-1.085-1.174-1.235-2.049
				c-0.339-2.597,2.279-4.313,4.679-3.783c1.574,0.393,2.74,1.513,3.296,3.038c0.19,0.604,0.34,0.971,0.449,1.268
				c0.515,0.143,1.017,0.279,1.518,0.442c19.031,5.75,23.303,29.121,14.69,44.786c1.301,1.824,2.563,3.717,3.757,5.622
				c2.265,3.588,4.272,7.344,6.131,11.189c-4.001-0.718-5.886-0.8-8.831-1.017c-12.68-2.103-25.105-0.367-37.475,5.276
				c-6.497,3.14-11.8,7.575-16.656,12.268c-13.578,13.096-17.822,43.159-11.583,59.136c1.153,2.983,2.482,5.968,4.15,8.803
				c6.307,10.349,15.693,17.157,26.3,21.064c0.949,0.367,1.913,0.678,2.903,0.99c0.379,0.353,1.383,0.393,1.288,0.8
				c2.592,7.554,11.597,12.261,18.217,6.999c2.835-2.36,3.715-6.808,1.722-10.172c-2.536-3.689-6.335-0.76-9.426-0.515
				c-2.021-0.108,0.04-4.26,1.586-5.521c1.736-1.383,4.096-1.804,6.253-1.478c4.314,0.664,7.283,3.444,8.993,7.378
				c0.76,1.886,1.275,2.388,1.79,2.74c4.489-1.479,8.735-3.581,12.6-6.199c-43.389,77.474-118.639,55.447-192.193,54.172
				l-141.371-243.558L1430.688,870.548L1430.688,870.548z M1593.869,1152.558c5.71-12.113,9.969-25.717,12.139-40.643
				c-2.699-12.118-10.579-22.887-22.61-28.131c-15.286-6.395-33.108-1.458-45.031,9.244c8.776-12.208,23.126-15.931,36.785-14.181
				c15.177,2.278,26.217,13.136,31.683,26.339c0.692-7.053,0.95-14.363,0.665-21.925c-2.564-2.719-5.453-5.221-8.654-7.514
				c-13.36-8.375-27.411-11.257-42.182-8.688c-32.607,7.495-49.533,44.739-34.315,73.331c-7.568-10.389-7.379-24.807-6.415-36.892
				c-5.114,24.875,8.354,50.374,31.507,58.864c0.489,0.272,0.976,0.597,1.289,3.215c0.705,6.279,6.728,11.461,13.115,9.589
				c3.31-1.004,5.982-3.608,5.467-7.189c-0.163-1.871-2.306-3.838-3.554-2.101c-0.908,1.193-1.247,3.336-3.485,3.404
				c-2.117,0.285-3.608-1.112-4.382-2.93c-1.803-4.122,0.882-8.328,4.517-9.888c6.185-2.713,11.882,1.357,15.599,6.036
				c0.542,0.054,1.017-0.068,1.505-0.136C1583.56,1160.274,1589.203,1157.02,1593.869,1152.558z"/>
			<path style="fill-rule:evenodd;clip-rule:evenodd;fill:#58595B;" d="M784.203,600.393L784.203,600.393L784.203,600.393z
				 M1056.773,677.934c-40.975-69.457-72.496-130.458-165.785-127.346c-38.399,1.282-77.854,18.5-106.825,49.846l-3.865,4.32
				l-85.707,138.4c1.586-0.922,3.254-1.762,5.018-2.515c6.564-2.354,13.169-2.862,19.382-1.736c0.678,0.135,1.357,0.285,2.049,0.447
				c0.84,5.114,3.987,10.906,10.022,9.643c1.71-0.447,3.27-1.478,4.3-3.078c1.275-2.326,0.732-5.351-1.586-6.803
				c-1.263-0.637-3.147-0.21-3.799,1.052c-0.447,1.275,0.597,2.089,1.492,2.698c0,0.197-0.026,0.571-0.04,0.746
				c-1.004,1.044-2.482,0.95-3.54-0.047c-2.251-2.386-0.882-6.401,2.171-7.486c1.925-0.618,3.974-0.672,5.724,0.57
				c3.404,2.258,4.408,6.618,2.726,10.247c-0.475,1.424-0.326,1.79-0.176,2.183c1.301,1.282,2.508,2.645,3.649,4.117
				c11.365,14.18,8.951,32.179,2.238,46.929c0.529,1.831,1.221,3.54,2.035,5.188c8.206,13.313,23.125,20.826,38.479,17.422
				c14.378-2.814,23.586-14.696,24.929-28.761c0.569-14.282-9.657-26.449-24.508-28.008c-6.239-0.142-11.882,2.136-16.02,5.887
				c-0.067,0.047-0.135,0.088-0.271,0.088c-1.112-0.36-2.428-0.576-3.512,0.237c-1.425,1.092-1.56,3.322,0.054,4.258
				c0.814,0.468,1.858,0.339,2.388-0.454c0.407-0.542,0.365-1.235-0.163-1.708c-0.665-0.449-1.195,0.134-1.235,0.84
				c-0.678-0.129-0.774-0.894-0.529-1.369c0.299-0.454,0.8-0.712,1.369-0.746c0.637-0.021,1.249,0.365,1.614,0.888
				c0.503,0.726,0.597,1.567,0.245,2.38c-0.556,1.275-2.143,2.014-3.486,1.662c-0.407-0.115-0.678-0.197-1.017-0.319
				c-0.475,0.875-0.868,1.79-1.235,2.713c-1.736,6.321-1.139,13.279,4.314,18.168c4.869,3.9,11.176,5.629,16.994,3.011
				c1.194-0.685,2.183-1.519,2.957-2.468c0.231-0.068,0.529-0.122,0.908-0.23c1.724-0.326,2.686-2.272,2.171-3.832
				c-0.461-1.492-2.347-2.176-3.622-1.146c-1.099,0.895-0.501,2.468,0.571,3.092c-0.706,0.176-1.385-0.292-1.682-0.874
				c-0.489-0.929-0.299-1.893,0.297-2.686c1.086-1.322,2.578-0.943,3.935-0.997c0.013-0.278,0.04-0.536,0.067-0.807
				c0.136-2.454-0.189-5.004-0.8-7.399c7.026,5.331,6.551,16.235,0.068,21.24c-2.889,2.068-5.94,3.418-9.033,4.056
				c-0.447-0.678-0.814-1.099-1.411-1.912c-2.374-3.221-6.592-4.435-10.226-3.004c-3.051,1.471-4.787,5.086-3.905,8.484
				c0.908,3.228,4.855,5.175,7.785,3.317c1.37-0.835,2.388-2.265,2.129-3.954c-0.23-2.251-2.197-3.513-4.244-3.249
				c1.614-1.756,4.651-0.067,5.465,1.649c0.976,2.136,0.449,4.496-1.179,6.26c-1.981,1.912-5.168,2.447-7.867,1.153
				c-4.707-2.178-5.236-7.989-3.283-12.322c0.19-0.17-0.135-0.753-0.419-0.929c-0.461-0.461-0.922-0.95-1.357-1.438
				c-3.947-4.45-6.796-9.976-7.352-16.243c-1.03-19.883,19.41-32.26,37.11-28.733c0.718,0.156,1.41,0.332,2.115,0.515
				c0.557,0.115,0.706,0.678,0.882,0.889c0.597,2.068,1.574,4.197,3.324,5.608c3.715,3.044,9.182,2.089,11.678-2.015
				c2.129-3.776-0.136-9.128-4.571-9.419c-1.492-0.101-2.835,0.55-4.015,1.587c-1.574,1.376-1.343,3.445-1.099,5.324
				c-2.075-2.374-0.705-5.996,1.79-7.494c3.676-1.993,8.193-0.013,9.819,3.622c1.926,4.408-0.718,7.954-3.092,11.278
				c0.501,0.536,0.99,1.071,1.465,1.635c5.397,6.415,8.571,14.682,8.368,23.525c-0.244,0.028-0.339,0.089-0.556,0.143
				c-1.886,0.346-3.215,2.421-2.428,4.279c0.542,1.146,1.803,1.858,3.037,1.457c0.489-0.101,1.004-0.419,1.315-0.949
				c0.611-1.011,0.218-2.286-0.854-2.719c-0.828-0.259-1.844,0.379-1.696,1.289c0.11,0.358,0.449,0.583,0.788,0.468
				c0.135-0.056,0.23-0.117,0.162-0.266c-0.122-0.237-0.108-0.359,0.04-0.494c0.068-0.061,0.204-0.115,0.339-0.042
				c0.489,0.237,0.611,0.672,0.421,1.065c-0.325,0.828-1.369,0.963-2.035,0.501c-1.003-0.692-0.909-2.082-0.095-2.936
				c0.732-0.651,1.722-0.78,2.618-0.447c1.532,0.725,1.967,2.638,1.193,4.042c-0.638,1.078-1.79,1.553-2.943,1.661
				c-0.136,0.054-0.176,0.115-0.271,0.176c-2.063,8.274-7.135,14.886-12.329,21.736c-0.176,0.21-0.353,0.44-0.529,0.678
				c-1.492-0.068-3.364-0.265-4.314,1.35c-0.393,0.664-0.447,1.492-0.217,2.197c0.367,0.942,1.315,1.56,2.293,1.342
				c0.569-0.094,1.153-0.468,1.247-1.085c0.026-0.36-0.014-0.779-0.285-1.004c-0.258-0.169-0.597-0.325-0.962-0.061
				c0.487,0.035,0.786,0.604,0.624,1.011c-0.244,0.624-1.018,0.631-1.533,0.393c-0.421-0.244-0.678-0.671-0.772-1.167
				c-0.122-1.125,0.692-1.974,1.682-2.264c1.071-0.279,2.129,0.285,2.767,1.165c0.76,1.147,0.542,2.469,0.04,3.608
				c0.136,0.21,0.313,0.407,0.475,0.604l0.068,0.067l-0.503,0.482l20.468,0.882c5.018,1.315,9.466,4.042,12.478,9.399
				c3.133,6.05,3.54,12.235,1.167,18.501c-2.78,6.056-8.247,10.085-15.069,10.661c-5.764,0.617-10.742-2.11-14.16-6.721
				c-2.835-3.717-3.27-8.831-1.397-13.204c1.818-3.33,4.91-5.982,8.544-6.681c4.911-1.085,9.671,2.096,10.769,7.013
				c0.326,2.34-1.953,6.504-5.75,5.5c0.908-1.654,2.468-3.526,1.275-5.242c-1.207-1.757-2.632-3.086-4.978-2.754
				c-4.531,1.31-6.172,5.276-5.263,9.556c1.125,3.879,4.625,6.335,8.639,6.924c5.711,0.448,10.539-3.397,12.451-8.856
				c1.94-6.49-0.786-12.336-5.737-16.147c-6.199-4.49-14.933-3.344-20.643,1.099c-2.51,2.129-4.368,4.767-5.467,7.744
				c-0.026,0.128-0.067,0.285-0.026,0.426c1.858,0.828,3.486,3.168,2.157,5.196c-0.814,1.207-2.712,1.688-3.771,0.467
				c-0.515-0.643-0.435-1.953,0.365-1.783c0.394,0.021,0.204,1.12,1.004,1.16c1.139,0.021,1.546-1.2,1.261-2.089
				c-0.231-0.603-0.76-0.963-1.41-1.2c-1.926-0.59-3.554,1.2-3.446,3.072c0.082,1.242,0.774,2.258,1.886,2.882
				c0.419,0.217,0.678,0.374,0.881,0.508c0.042,0.407,0.096,0.794,0.136,1.194c1.953,15.164,19.125,21.349,32.092,16.818
				c1.219,1.242,2.482,2.421,3.783,3.568c2.428,2.156,5.006,4.183,7.69,6.049c-0.04-3.112,0.136-4.557,0.339-6.801
				c0.028-9.875,2.944-19.085,8.776-27.724c3.188-4.524,7.229-7.996,11.393-11.075c11.651-8.612,34.979-8.022,46.278-1.275
				c2.129,1.275,4.205,2.651,6.172,4.286c7.011,6.083,10.972,14.051,12.6,22.57l0.108,0.604L1056.773,677.934L1056.773,677.934z
				 M676.47,772.417c-0.218,16.811,12.179,32.45,29.446,34.478c-8.532,0.176-16.331-5.358-22.569-10.464
				c11.637,12.221,30.68,14.534,44.094,5.086c0.325-0.17,0.692-0.306,2.237,0.522c3.676,2.007,8.789,0.657,10.2-3.526
				c0.706-2.19,0.299-4.639-1.858-5.697c-1.071-0.638-2.957-0.217-2.508,1.119c0.311,0.956,1.37,1.96,0.542,3.201
				c-0.637,1.268-1.967,1.56-3.228,1.28c-2.957-0.576-4.246-3.628-3.703-6.211c0.854-4.401,5.235-5.968,9.196-6.22
				c0.231-0.278,0.353-0.583,0.489-0.894c2.007-7.02,1.586-14.745-2.239-21.513c-7.201-13.875-25.132-19.681-38.439-11.467
				c-9.263,5.926-13.332,17.531-12.003,28.089c-3.35-9.406,0.054-18.656,6.185-25.445c8.368-8.892,21.2-9.894,31.725-5.704
				c0.379,0.169,0.76,0.326,1.492,0.726c0.962,0.746,2.468,0.494,3.378,1.696c0.61,0.365,1.221,0.758,1.803,1.179
				c0.597,0.414,1.181,0.849,1.724,1.296c9.182,8.267,12.207,21.511,8.735,33.21c-0.393,0.136-0.854,0.251-2.171-0.082
				c-2.793-0.535-5.425,0.042-7.432,2.13c-1.004,1.057-1.668,2.502-1.56,3.995c0.081,1.315,1.572,4.007,2.386,2.95
				c1.058-1.784,0.896-4.965,3.879-4.958c2.578,0.183,4.667,2.367,4.883,4.795c0.367,5.615-5.615,8.742-10.729,7.297
				c-0.163-0.203-0.569,0.326-0.908,0.4c-0.543,0.428-1.099,0.821-1.642,1.221c-6.157,4.279-13.44,6.836-21.471,6.368
				c-17.482-1.397-31.683-14.675-34.6-31.331L676.47,772.417L676.47,772.417z M876.664,921.763
				c-1.017-3.228,1.032-7.067,4.544-7.175c1.696,0.021,2.983,1.126,2.971,2.814c-0.136,0.157-0.421,0.482-0.557,0.651
				c-1.235-0.217-2.78-0.4-3.432,1.03c-0.474,1.56,0.747,3.439,2.307,3.921c3.092,0.657,5.981-1.378,6.822-4.347
				c0.433-2.164-0.054-4.267-1.099-6.01c-3.975-5.926-11.258-3.661-16.086-0.094c-0.692-0.426-1.383-0.861-2.049-1.308
				c-6.036-4.083-11.122-9.833-14.635-17.057c-4.653-11.196-5.06-22.217-1.249-33.067c9.821-23.75,40.189-31.861,59.924-16.69
				c-6.917-7.046-17.862-8.749-27.14-9.542c19.49-0.718,37.124,12.71,40.608,31.339c0.108,0.325,0.244,0.643,1.249,1.044
				l-3.514,5.195c-1.572,0.414-2.983,1.471-3.838,2.842c-1.018,1.539-1.371,3.133-1.275,4.719l-17.185,25.445
				c-16.778,4.627-35.292-4.971-39.551-21.979c-2.903-12.383,3.107-25.275,12.722-32.939c-10.375,5.1-15,15.49-15.407,26.069
				c-0.231,14.099,9.575,25.282,21.66,30.3c0.461,0.169,0.896,0.333,1.79,0.604c1.439,0.149,2.482,1.593,4.206,1.322
				c0.8,0.204,1.614,0.353,2.442,0.489c0.826,0.115,1.654,0.23,2.454,0.311c2.442,0.096,4.842-0.074,7.189-0.481l-6.293,9.297
				c-0.421,0.19-0.828,0.4-1.547,1.912l-0.393,0.956l-1.682,2.489c-1.424,1.54-3.296,2.585-5.385,2.91L876.664,921.763
				L876.664,921.763z M921.194,878.598c0.23-1.289,0.814-2.523,1.804-3.418c0.217-0.197,0.542-0.4,0.895-0.576L921.194,878.598z"/>
			<path style="fill-rule:evenodd;clip-rule:evenodd;fill:#A1CD3A;" d="M488.902,1151.704l135.036,280.001
				c21.404,46.103,41.708,52.612,73.84,54.593l214.396,0.014c-2.808-3.093-4.897-6.579-6.267-10.268
				c-0.217-0.543-0.393-1.126-0.583-1.696c3.404-2.889,6.335-7.785,2.726-11.692c-1.085-1.085-2.536-1.776-4.192-1.844
				c-2.264,0.096-4.272,1.818-4.326,4.178c0.082,1.235,1.221,2.441,2.442,2.374c1.153-0.245,1.303-1.397,1.357-2.333
				c0.135-0.054,0.433-0.203,0.569-0.285c1.233,0.285,1.804,1.438,1.532,2.658c-0.76,2.713-4.367,3.46-6.524,1.682
				c-1.289-1.125-2.225-2.63-2.103-4.503c0.176-3.526,2.985-6.171,6.415-6.524c1.275-0.285,1.465-0.569,1.682-0.842
				c0.394-1.532,0.868-3.024,1.465-4.517c5.507-14.703,19.925-20.819,33.828-22.351c1.125-1.194,2.088-2.482,2.956-3.799
				c6.253-11.976,5.264-26.34-4.042-36.254c-8.436-9.414-21.321-11.028-32.335-5.819c-10.85,5.888-15.354,18.84-9.969,30.558
				c2.646,4.707,6.822,7.881,11.448,9.264c0.04,0.054,0.094,0.082,0.149,0.162c0.257,1.032,0.651,2.089,1.762,2.524
				c1.425,0.569,3.121-0.299,3.121-1.926c-0.014-0.8-0.583-1.519-1.397-1.56c-0.569-0.04-1.072,0.271-1.194,0.854
				c-0.054,0.705,0.625,0.841,1.153,0.569c0.231,0.571-0.311,0.95-0.758,1.004c-0.475-0.054-0.882-0.313-1.167-0.706
				c-0.285-0.447-0.272-1.071-0.054-1.586c0.325-0.692,0.894-1.126,1.654-1.235c1.193-0.136,2.442,0.706,2.767,1.844
				c0.108,0.339,0.162,0.597,0.217,0.896c0.868-0.028,1.724-0.11,2.564-0.272c5.439-1.464,10.348-5.018,11.583-11.203
				c0.732-5.331-0.746-10.797-5.276-13.943c-1.017-0.583-2.089-0.936-3.119-1.099c-0.162-0.176-0.325-0.353-0.57-0.597
				c-1.004-1.125-2.889-0.976-3.797,0.094c-0.91,1.004-0.583,2.714,0.718,3.201c1.167,0.407,2.063-0.718,2.063-1.79
				c0.447,0.461,0.393,1.139,0.094,1.628c-0.475,0.786-1.275,1.044-2.129,0.963c-1.465-0.203-1.818-1.505-2.455-2.454
				c-0.217,0.081-0.447,0.189-0.638,0.311c-1.885,0.95-3.635,2.319-5.154,3.825c0.854-7.554,9.169-12.003,15.733-9.399
				c2.822,1.221,5.168,2.889,6.999,4.91c-0.285,0.624-0.447,1.085-0.772,1.872c-1.371,3.2-0.407,6.862,2.265,8.911
				c2.454,1.626,5.872,1.329,8.015-0.842c1.981-2.103,1.668-5.9-0.976-7.229c-1.235-0.637-2.726-0.786-3.865,0.163
				c-1.574,1.153-1.628,3.174-0.543,4.585c-2.021-0.407-2.115-3.418-1.193-4.801c1.153-1.654,3.146-2.292,5.154-1.872
				c2.292,0.624,4.11,2.754,4.34,5.331c0.447,4.462-3.622,7.419-7.718,7.881c-0.19-0.082-0.475,0.433-0.475,0.705
				c-0.149,0.556-0.311,1.113-0.487,1.654c-1.56,4.897-4.408,9.44-8.817,12.6c-14.296,9.536-32.485-0.175-37.679-14.865
				c-0.203-0.583-0.379-1.179-0.543-1.776c-0.162-0.461,0.19-0.828,0.272-1.058c1.261-1.355,2.414-3.011,2.699-4.964
				c0.597-4.069-2.496-7.718-6.646-7.758c-3.743,0.096-6.714,4.124-4.978,7.555c0.583,1.153,1.642,1.858,2.957,2.292
				c1.722,0.569,3.147-0.543,4.449-1.56c-0.854,2.59-4.15,3.188-6.389,1.994c-3.092-1.858-3.621-6.077-1.626-8.899
				c2.414-3.376,6.211-2.957,9.725-2.658c0.175-0.624,0.379-1.221,0.569-1.817c2.386-6.836,7.107-12.832,13.781-16.575
				c0.135,0.149,0.203,0.19,0.339,0.325c1.111,1.249,3.214,1.343,4.258-0.067c0.611-0.91,0.57-2.185-0.257-2.903
				c-0.298-0.313-0.76-0.557-1.289-0.557c-1.018-0.012-1.79,0.842-1.628,1.818c0.149,0.76,1.085,1.221,1.682,0.706
				c0.231-0.272,0.244-0.569,0-0.8c-0.094-0.068-0.19-0.11-0.258,0c-0.122,0.203-0.231,0.243-0.393,0.176
				c-0.068,0-0.162-0.082-0.176-0.218c-0.04-0.461,0.244-0.732,0.611-0.786c0.746-0.108,1.315,0.597,1.261,1.302
				c-0.054,1.058-1.139,1.601-2.129,1.357c-0.814-0.245-1.343-0.922-1.479-1.736c-0.149-1.465,1.085-2.632,2.469-2.672
				c1.071,0.014,1.939,0.651,2.522,1.451c0.094,0.054,0.162,0.082,0.245,0.108c7.053-2.115,14.2-1.261,21.579-0.421
				c0.231,0.042,0.475,0.042,0.718,0.096c0.625,1.139,1.289,2.604,2.903,2.59c0.665,0.014,1.315-0.325,1.736-0.8
				c0.529-0.692,0.569-1.655-0.014-2.306c-0.325-0.353-0.868-0.625-1.369-0.435c-0.271,0.136-0.556,0.353-0.61,0.651
				c0,0.271,0.054,0.597,0.393,0.76c-0.19-0.38,0.094-0.868,0.461-0.922c0.583-0.082,0.922,0.461,0.976,0.976
				c0.014,0.393-0.217,0.786-0.529,1.085c-0.772,0.597-1.763,0.353-2.414-0.271c-0.678-0.651-0.746-1.71-0.367-2.55
				c0.515-1.085,1.588-1.492,2.686-1.628c0.068-0.217,0.135-0.407,0.217-0.609v-0.096l0.611,0.19l-8.383-15.599
				c-1.221-4.299-1.165-8.815,1.451-13.4c3.133-5.005,7.542-8.015,13.225-9.033c5.724-0.597,11.122,1.682,14.567,6.483
				c2.997,4.015,3.16,8.911,1.261,13.482c-1.506,3.717-5.112,6.321-9.196,6.85c-3.268,0.108-6.578-0.99-8.721-3.392
				c-2.971-3.188-2.699-8.097,0.475-11.081c1.586-1.275,5.669-1.438,6.606,1.831c-1.642,0.068-3.717-0.285-4.476,1.383
				c-0.76,1.656-1.112,3.323,0.176,4.91c2.943,2.768,6.632,2.253,9.399-0.311c2.401-2.55,2.658-6.239,1.343-9.481
				c-2.197-4.422-7.175-6.295-12.071-5.317c-5.669,1.41-8.803,6.021-9.454,11.365c-0.61,6.578,4.11,12.573,9.915,14.839
				c2.699,0.936,5.465,1.153,8.151,0.637c0.136-0.028,0.258-0.054,0.353-0.164c-0.217-1.762,0.8-3.987,2.889-3.892
				c1.275,0.068,2.456,1.247,2.007,2.59c-0.244,0.651-1.247,1.193-1.478,0.515c-0.162-0.299,0.746-0.638,0.421-1.261
				c-0.489-0.854-1.574-0.637-2.117,0c-0.339,0.433-0.379,0.99-0.244,1.574c0.394,1.668,2.428,2.101,3.785,1.207
				c0.882-0.624,1.329-1.601,1.301-2.686c-0.013-0.407-0.026-0.678-0.013-0.895c0.285-0.19,0.542-0.407,0.826-0.625
				c10.39-8.137,7.419-23.586-1.654-31.194c0.367-1.465,0.692-2.931,0.95-4.396c0.556-2.767,0.922-5.56,1.125-8.382
				c-2.306,1.411-3.444,1.926-5.208,2.754c-7.351,4.312-15.449,6.225-24.454,5.71c-4.761-0.379-9.101-1.844-13.251-3.58
				c-11.503-4.829-21.349-22.421-21.336-33.786c0-2.129,0.108-4.272,0.461-6.429c1.439-7.907,5.603-14.378,11.204-19.328
				c0.515-0.461,1.017-0.896,1.56-1.303c0.176-0.339,0.76-0.583,0.624-0.814c-0.122-2.522,0.868-5.018,2.482-6.74l-281.019-13.061
				l-1.885-0.218C585.351,1233.68,514.509,1174.612,488.902,1151.704L488.902,1151.704z M922.984,1486.312
				c-6.524-3.921-10.607-11.014-11.786-18.474c-0.042-0.367-0.082-0.706-0.122-1.438c0.149-1.032-0.719-2.035-0.217-3.256
				c0-0.611,0.012-1.235,0.067-1.872c0.042-0.596,0.108-1.221,0.204-1.831c2.101-10.457,10.593-18.542,20.805-21.118
				c0.272,0.217,0.557,0.529,0.896,1.64c0.84,2.319,2.414,4.015,4.855,4.585c1.235,0.285,2.59,0.122,3.649-0.583
				c0.936-0.678,2.278-2.957,1.125-3.106c-1.79,0.014-4.068,1.56-5.371-0.678c-1.003-2.008-0.325-4.517,1.383-5.738
				c4.015-2.766,8.979,0.299,10.16,4.72c-0.082,0.244,0.501,0.313,0.706,0.515c0.542,0.218,1.099,0.435,1.626,0.692
				c5.888,2.672,11,6.932,14.188,13.117c5.304,10.796,4.124,23.355-2.129,32.824h-5.696c6.985-8.247,9.453-20.101,4.787-30.546
				c3.906,6.267,3.214,14.514,2.183,21.39c3.933-14.039-2.726-29.175-15.651-34.98c-0.272-0.189-0.529-0.353-0.597-1.885
				c-0.15-3.622-3.404-6.822-7.121-6.008c-1.94,0.433-3.567,1.817-3.432,3.892c0.028,1.072,1.167,2.265,1.94,1.343
				c0.583-0.651,0.868-1.871,2.156-1.804c1.208-0.081,1.994,0.787,2.374,1.872c0.882,2.401-0.814,4.719-2.983,5.439
				c-3.649,1.315-6.742-1.247-8.681-4.069c-0.313-0.04-0.597,0-0.882,0.028c-6.09,1.628-11.637,5.331-14.96,11.162
				c-7.121,11.447-3.526,27.303,8.436,33.57l1.289,0.597H922.984L922.984,1486.312z M943.709,1486.312
				c2.63-0.978,5.126-2.361,7.337-4.083c-1.397,1.668-2.957,3.025-4.653,4.083H943.709L943.709,1486.312z M953.759,1257.091
				c1.75,1.505,3.404,3.242,4.938,5.208c1.153,1.437,2.197,2.929,3.133,4.503c0.353,0.23,0.65,0.475,2.143,0.353
				c3.933-0.787,7.921,1.193,9.331,5.004c0.774,2.021,0.258,4.001-0.786,5.697c-1.79,2.699-5.982,3.106-7.772,0.339
				c-0.732-1.248-0.487-2.686,0.774-3.418c0.177,0.026,0.543,0.08,0.732,0.122c0.38,1.003,0.922,2.237,2.265,2.075
				c1.383-0.325,2.225-2.035,1.899-3.418c-0.854-2.604-3.635-3.839-6.225-3.147c-1.79,0.625-3.147,1.9-3.987,3.446
				c-2.632,5.561,2.251,9.982,7.025,11.99c-0.013,0.704-0.026,1.383-0.054,2.089c-0.365,6.293-2.386,12.586-6.211,18.392
				c-6.253,8.382-14.242,13.55-23.994,15.489c-21.958,3.201-41.354-15.787-38.79-37.096c-2.197,8.247,1.369,17.104,4.869,24.346
				c-9.129-14.16-6.918-33.149,5.371-43.958c0.23-0.299,0.461-0.583,0.026-2.292c-0.76-2.835,0.244-5.996,2.415-7.732l7.839,0.381
				c0.299,0.379,0.515,0.868,0.651,1.41c0.353,1.194-0.503,2.931-1.696,2.171c-0.868-0.529-1.574-1.778-2.983-1.275
				c-1.371,0.325-1.954,1.546-1.981,2.875c-0.136,2.957,2.536,4.924,5.154,5.006c4.475,0.189,7.025-3.677,8.178-7.474
				c0.34-0.136,0.651-0.19,0.978-0.272c7.297-0.285,14.675,1.9,20.358,7.217c11.772,10.24,13.197,28.957,2.115,39.957
				c-7.893,7.61-20.114,8.843-30.055,5.086c8.354,5.439,18.119,4.286,26.15-0.04c10.565-6.063,14.539-18.269,12.939-29.46
				c-0.068-0.407-0.136-0.814-0.339-1.614c-0.543-1.113,0.082-2.51-0.868-3.689c-0.217-0.665-0.447-1.343-0.732-2.007
				c-0.258-0.693-0.543-1.317-0.842-1.995c-4.15-7.636-11.433-12.885-19.626-15.096L953.759,1257.091L953.759,1257.091z
				 M925.263,1255.76c-0.082,0.326-0.15,0.787-0.164,1.493c-0.121,2.847-1.288,5.276-3.783,6.726
				c-1.249,0.733-2.821,1.032-4.232,0.583c-1.249-0.393-3.526-2.482-2.306-3.011c1.993-0.61,5.018,0.299,5.71-2.59
				c0.204-1.221-0.054-2.442-0.637-3.444L925.263,1255.76z"/>
			<path style="fill-rule:evenodd;clip-rule:evenodd;fill:#A1CD3A;" d="M1270.585,542.626l-363.158-13.962
				c24.562,5.126,65.294,17.978,93.058,34.287c17.211,10.105,25.851,21.682,36.296,38.594l130.289,211.217l-19.531,12.308
				l-51.528,29.825l255.643,12.493l124.701-207.656l-52.613,20.067c-5.358,3.045-10.567,6.015-10.906,6.062
				c-0.8,0.028-1.573,0.075-2.36,0.115c-0.339-1.227-0.706-2.475-1.112-3.696l-6.538-10.335c-1.614-1.268-3.567-2.204-5.954-2.679
				c-5.032-0.833-9.521,0.319-13.414,3.458c-3.662,3.378-5.249,8.193-4.069,13.164c0.882,4.239,3.975,7.141,8.043,8.511
				c3.296,1.132,7.026,0.271,9.699-2.075c1.939-2.063,3.106-4.869,2.767-7.61c-0.38-3.75-3.73-6.401-7.474-6.022
				c-1.75,0.305-4.15,2.896-2.59,5.344c0.976-1.031,1.926-2.571,3.444-2.117c1.533,0.449,2.808,1.167,3.107,2.91
				c0.121,3.5-2.319,5.582-5.561,5.947c-3.011,0.103-5.589-1.823-6.918-4.536c-1.628-3.961-0.026-8.274,3.404-10.885
				c4.164-2.896,8.939-2.299,12.778,0.325c4.625,3.357,5.858,9.833,4.014,14.907c-0.922,2.292-2.374,4.211-4.232,5.682
				c-0.094,0.061-0.189,0.11-0.297,0.115c-1.032-1.139-3.053-1.736-4.192-0.332c-0.665,0.861-0.569,2.313,0.543,2.801
				c0.569,0.196,1.492-0.15,1.193-0.685c-0.108-0.279-0.854,0.122-1.072-0.435c-0.285-0.814,0.503-1.383,1.195-1.376
				c0.487,0.007,0.854,0.306,1.179,0.713c0.856,1.233-0.026,2.793-1.383,3.167c-0.894,0.224-1.79-0.054-2.482-0.678
				c-0.257-0.244-0.421-0.395-0.569-0.51c-0.285,0.049-0.583,0.115-0.882,0.169c-11.203,2.138-19.585-8.619-19.368-18.872
				c-1.153-0.583-2.292-1.201-3.404-1.851c-2.103-1.249-4.137-2.599-6.09-4.069c2.225-0.685,3.215-1.16,4.761-1.831
				c6.999-2.293,12.844-6.483,17.646-12.648c1.708-2.285,3.051-4.707,4.056-7.208l-3.161-4.999
				c-1.438,5.615-4.503,10.885-9.29,14.98c-6.836,5.222-14.757,7.488-23.763,6.789c-5.968-0.821-11.218-3.093-15.504-6.443
				c-0.488-0.372-0.949-0.76-1.41-1.153c1.41-4.258,1.315-9.956-3.799-11.393c-1.492-0.346-3.092-0.183-4.515,0.624
				c-1.912,1.268-2.7,3.799-1.505,5.839c0.704,0.997,2.318,1.425,3.322,0.72c0.854-0.793,0.367-1.838-0.068-2.665
				c0.082-0.143,0.258-0.407,0.339-0.55c1.194-0.4,2.279,0.265,2.686,1.451c0.76,2.719-1.885,5.236-4.665,4.856
				c-1.71-0.29-3.296-1.085-4.151-2.732c-1.682-3.1-0.704-6.822,2.035-8.932c0.936-0.894,0.95-1.235,1.004-1.587
				c-0.489-1.505-0.868-3.038-1.139-4.611c-3.011-15.394,6.063-28.185,17.089-36.776c0.326-1.621,0.489-3.201,0.515-4.789
				c-0.936-13.461-9.331-25.186-22.433-28.74c-12.125-3.594-23.926,1.783-30.586,12.004c-6.143,10.701-3.2,24.088,7.528,31.229
				c4.721,2.625,9.929,3.14,14.622,1.92c0.054,0,0.108-0.014,0.203,0.04c0.733,0.732,1.641,1.424,2.808,1.235
				c1.505-0.272,2.508-1.919,1.654-3.276c-0.421-0.678-1.289-0.996-2.021-0.603c-0.515,0.25-0.76,0.8-0.543,1.349
				c0.326,0.618,0.964,0.381,1.275-0.135c0.475,0.379,0.23,0.99-0.135,1.261c-0.421,0.23-0.91,0.21-1.343,0.021
				c-0.501-0.238-0.814-0.774-0.882-1.317c-0.094-0.765,0.162-1.438,0.76-1.925c0.95-0.76,2.442-0.685,3.324,0.128
				c0.271,0.238,0.447,0.407,0.664,0.638c0.705-0.467,1.383-0.996,2.035-1.572c3.865-4.117,6.171-9.692,3.974-15.618
				c-2.156-4.931-6.279-8.796-11.8-9.115c-1.179,0.047-2.265,0.292-3.242,0.713c-0.217-0.047-0.461-0.122-0.786-0.197
				c-1.451-0.447-2.971,0.658-3.201,2.068c-0.23,1.324,0.95,2.611,2.319,2.326c1.193-0.245,1.369-1.682,0.8-2.597
				c0.611,0.156,0.936,0.774,0.936,1.343c0,0.922-0.529,1.567-1.315,1.939c-1.343,0.583-2.347-0.318-3.391-0.814
				c-0.121,0.197-0.257,0.394-0.379,0.597c-1.085,1.818-1.858,3.9-2.346,5.975c-3.242-6.89,1.492-15.049,8.449-16.276
				c3.039-0.428,5.914-0.238,8.532,0.522c0.082,0.685,0.19,1.16,0.313,2.014c0.529,3.425,3.268,6.043,6.618,6.396
				c2.931,0.115,5.697-1.953,6.389-4.917c0.597-2.828-1.654-5.907-4.625-5.657c-1.383,0.11-2.726,0.774-3.215,2.171
				c-0.732,1.818,0.285,3.554,1.954,4.204c-1.94,0.699-3.594-1.831-3.526-3.472c0.108-2.007,1.464-3.614,3.404-4.313
				c2.278-0.658,4.936,0.203,6.483,2.278c2.726,3.554,0.814,8.207-2.428,10.729c-0.231,0.054-0.204,0.631-0.042,0.889
				c0.164,0.549,0.313,1.085,0.449,1.647c1.233,4.978,1.179,10.343-0.896,15.354c-7.161,15.618-27.75,16.893-39.876,7.093
				c-0.475-0.393-0.949-0.8-1.41-1.226c-0.381-0.306-0.258-0.801-0.313-1.025c0.367-1.831,0.475-3.845-0.313-5.635
				c-1.614-3.805-6.171-5.283-9.738-3.14c-3.12,2.042-3.554,7.032-0.258,9.047c1.085,0.664,2.388,0.704,3.689,0.386
				c1.778-0.428,2.428-2.096,2.985-3.628c0.637,2.645-1.858,4.868-4.382,5.018c-3.607,0.04-6.265-3.27-6.049-6.707
				c0.285-4.144,3.73-5.792,6.876-7.393c-0.176-0.603-0.325-1.214-0.461-1.831c-1.56-7.06-0.678-14.663,3.039-21.349
				c0.189,0.075,0.285,0.075,0.487,0.122c1.574,0.495,3.404-0.556,3.568-2.299c0.04-1.099-0.651-2.15-1.75-2.333
				c-0.421-0.122-0.936-0.082-1.383,0.21c-0.882,0.522-1.086,1.656-0.435,2.408c0.529,0.535,1.56,0.461,1.804-0.305
				c0.068-0.313-0.094-0.624-0.421-0.678c-0.135-0.007-0.217,0.007-0.231,0.142c0.014,0.224-0.04,0.326-0.217,0.36
				c-0.082,0.014-0.217,0.007-0.285-0.108c-0.271-0.367-0.176-0.739,0.122-0.976c0.569-0.496,1.438-0.183,1.75,0.44
				c0.488,0.936-0.136,1.947-1.099,2.272c-0.828,0.21-1.642-0.082-2.171-0.699c-0.908-1.181-0.475-2.807,0.706-3.567
				c0.894-0.576,1.98-0.482,2.903-0.089c0.108,0,0.189-0.026,0.285-0.033c4.869-5.5,11.407-8.518,18.121-11.672
				c0.231-0.101,0.447-0.21,0.678-0.304c1.113,0.644,2.468,1.532,3.839,0.685c0.556-0.353,0.935-0.969,1.044-1.6
				c0.094-0.856-0.367-1.703-1.208-1.94c-0.474-0.148-1.071-0.094-1.396,0.346c-0.164,0.251-0.299,0.59-0.19,0.868
				c0.149,0.224,0.339,0.482,0.718,0.435c-0.365-0.218-0.365-0.781-0.08-1.018c0.447-0.379,1.03-0.088,1.343,0.319
				c0.217,0.339,0.243,0.779,0.122,1.193c-0.353,0.915-1.317,1.235-2.197,1.051c-0.924-0.211-1.519-1.072-1.656-2.001
				c-0.108-1.193,0.583-2.101,1.424-2.76c-0.026-0.231-0.067-0.447-0.121-0.658l-0.028-0.088l0.583-0.162l-15.286-8.885
				c-1.696-1.546-3.133-3.308-4.15-5.385C1283.728,543.719,1277.232,543.197,1270.585,542.626L1270.585,542.626z M1364.878,611.84
				c-2.374-0.325-4.815-0.351-7.27-0.04c-0.326-0.007-0.651-0.026-1.493-1.282c-2.047-3.011-6.483-4.035-9.236-1.39
				c-1.411,1.378-2.089,3.411-0.854,5.107c0.569,0.901,2.183,1.343,2.36,0.129c0.149-0.842-0.271-2.042,0.868-2.665
				c0.99-0.699,2.115-0.393,2.997,0.339c2.021,1.607,1.778,4.456,0.326,6.212c-2.415,3.024-6.389,2.461-9.522,1.078
				c-0.299,0.122-0.501,0.312-0.732,0.482c-4.34,4.578-7.121,10.633-6.904,17.347c-0.054,13.503,11.325,25.112,24.794,24.162
				c9.467-0.813,17.225-8.056,20.427-16.662c-1.207,8.532-7.514,14.249-14.92,16.982c-9.955,3.432-20.183-0.936-26.531-8.349
				c-0.244-0.292-0.447-0.563-0.868-1.153c-0.435-0.97-1.696-1.369-1.899-2.651c-0.313-0.536-0.624-1.078-0.91-1.635
				c-0.285-0.542-0.556-1.099-0.8-1.675c-3.703-9.996-0.706-21.335,6.633-28.89c0.365,0.048,0.76,0.15,1.64,0.922
				c1.912,1.54,4.151,2.164,6.525,1.364c1.193-0.414,2.264-1.249,2.807-2.435c0.447-1.031,0.38-3.703-0.664-3.215
				c-1.533,0.943-2.66,3.439-4.951,2.232c-1.899-1.167-2.618-3.669-1.804-5.615c1.954-4.442,7.786-4.435,11.108-1.275
				c0.054,0.217,0.583-0.033,0.882,0.04c0.569-0.101,1.167-0.183,1.736-0.264c1.437-0.183,2.875-0.278,4.314-0.278L1364.878,611.84
				L1364.878,611.84z M1310.652,550.379c-4.679,0.624-9.819-0.849-13.183-4.246C1301.917,547.156,1306.312,548.513,1310.652,550.379
				z"/>
			<path style="fill-rule:evenodd;clip-rule:evenodd;fill:#A1CD3A;" d="M1521.169,1237.763l-297.282,0.758l-1.383-23.071
				l-3.567-53.06l-134.563,203.301l128.554,191.8l3.105-65.565l107.557,3.119c55.854,2.604,75.861-11.19,97.426-46.061
				l173.082-256.429c-7.949,5.832-43.606,36.106-51.771,39.456c-6.483,2.672-12.98,4.571-19.301,5.601L1521.169,1237.763z"/>
		</g>
	</g>
</g>
</svg>
