<?xml version="1.0" encoding="utf-8"?>
<!-- Generator: Adobe Illustrator 27.5.0, SVG Export Plug-In . SVG Version: 6.00 Build 0)  -->
<svg version="1.1" xmlns="http://www.w3.org/2000/svg" xmlns:xlink="http://www.w3.org/1999/xlink" x="0px" y="0px"
	 viewBox="0 0 500 500" style="enable-background:new 0 0 500 500;" xml:space="preserve">
<g id="BACKGROUND">
</g>
<g id="OBJECTS">
	<g>
		<g>
			<path style="fill:#F2F2F2;" d="M129.2,63.717C205.496,52.048,234.68,25.401,243.941,0H0v337.474
				c18.208,8.029,38.703,10.515,61.678,4.896C199.414,308.681-36.882,89.118,129.2,63.717z"/>
			<path style="fill:#F2F2F2;" d="M500,190.468c-27.849-14.256-56.288-9.614-72.101,47.98
				c-38.075,138.669-134.743,193.864-263.233,184.796C99.872,418.672,92.78,458.946,101.668,500H500V190.468z"/>
		</g>
	</g>
	<g>
		<g>
			<path style="fill:#79C97B;" d="M250.814,139.621c-61.73,0-111.772,50.042-111.772,111.772s50.042,111.772,111.772,111.772
				s111.772-50.042,111.772-111.772S312.544,139.621,250.814,139.621z M250.814,341.818c-49.94,0-90.425-40.485-90.425-90.425
				s40.484-90.425,90.425-90.425s90.425,40.485,90.425,90.425S300.754,341.818,250.814,341.818z"/>
			<g>
				<path style="fill:#FFFFFF;" d="M299.611,160.14c-0.457-0.245-1.025-0.073-1.27,0.384c-0.245,0.457-0.072,1.025,0.384,1.27
					c33.108,17.741,53.675,52.073,53.675,89.6c0,44.751-28.684,83.74-71.376,97.018c-0.495,0.154-0.771,0.68-0.617,1.174
					c0.126,0.402,0.496,0.659,0.896,0.659c0.091,0,0.186-0.014,0.278-0.042c20.622-6.414,39.139-19.521,52.14-36.906
					c13.448-17.98,20.555-39.386,20.555-61.903C354.275,213.174,333.329,178.208,299.611,160.14z"/>
				<path style="fill:#FFFFFF;" d="M222.151,348.878c-42.936-12.602-72.923-52.69-72.923-97.485c0-37.527,20.567-71.86,53.674-89.6
					c0.457-0.244,0.628-0.813,0.384-1.27c-0.245-0.456-0.812-0.629-1.27-0.384c-33.718,18.067-54.664,53.034-54.664,91.253
					c0,22.807,7.275,44.435,21.038,62.545c13.32,17.526,32.225,30.574,53.232,36.741c0.088,0.026,0.177,0.038,0.265,0.038
					c0.405,0,0.779-0.265,0.9-0.674C222.933,349.546,222.648,349.024,222.151,348.878z"/>
			</g>
			<path id="SVGID_x5F_1_x5F_" style="fill:none;" d="M193.688,174.926c0,0,54.674-41.929,116.923,4.058"/>
			<text>			<textPath  xlink:href="#SVGID_x5F_1_x5F_" startOffset="0.098%">
<tspan  style="fill:#FFFFFF; font-family:'ChineseRocksRg-Regular'; font-size:15.9443px; letter-spacing:100;">WHAT DOES</tspan>			</textPath>
</text>
			<path id="SVGID_x5F_00000000223241929354835690000012316804214103976851_x5F_" style="fill:none;" d="M194.952,338.63
				c64.036,43.464,116.992-0.615,116.992-0.615"/>
			<text>			<textPath  xlink:href="#SVGID_x5F_00000000223241929354835690000012316804214103976851_x5F_" startOffset="0.61%">
<tspan  style="fill:#FFFFFF; font-family:'ChineseRocksRg-Regular'; font-size:15.9443px; letter-spacing:100;">MEAN?</tspan>			</textPath>
</text>
		</g>
		<g>
			<g>
				<g>
					<path style="fill:#AFEBED;" d="M345.268,244.748c-2.648-27.318-37.417-54.693-37.417-54.693l0,0.014
						c-5.809-4.816-12.193-8.823-19.036-12.179c-3.869-1.897-7.837-3.547-12.067-4.485c-0.176-0.039-0.325-0.206-0.526-0.34
						c-31.056,25.69-53.614,0.451-53.614,0.451c-0.244,0.107-0.502,0.193-0.762,0.249c-2.774,0.595-5.404,1.633-7.976,2.776
						c-3.251,1.446-6.415,3.068-9.49,4.888c-4.173,2.469-8.163,5.175-11.925,8.221c-5.566,4.508-10.462,9.635-14.631,15.43
						c-9.711,10.485-20.734,25.41-22.18,40.329c-2.648,27.318-11.917,28.311-11.917,28.311s8.607,17.875,21.186,17.544
						c10.593-0.279,23.442-18.841,26.611-22.339c-0.133,0.292-2.244,8.049-2.373,8.342c-1.578,3.594-2.307,7.356-2.223,11.274
						c0.051,2.4,0.507,4.789,1.391,7.022c1.569,3.961,3.991,7.278,7.065,10.129c3.852,3.572,8.382,6.047,13.174,8.053
						c8.618,3.607,17.601,5.758,26.911,6.608c6.099,0.557,12.206,0.58,18.317,0.497c9.161-0.126,18.217-1.054,27.058-3.617
						c5.497-1.594,10.874-3.485,15.907-6.248c3.61-1.982,6.945-4.341,9.717-7.422c5.98-6.646,8.033-14.257,5.65-22.973
						c-0.465-1.7-6.823-8.362-7.19-14.601c-0.027-0.458,5.491,6.353,8.074,10.276c0,0,10.42,14.006,22.998,14.337
						c9.137,0.241,16.179-9.126,19.348-14.269c0.938-1.522,0.611-3.508-0.776-4.635
						C351.622,269.305,347.011,262.728,345.268,244.748z"/>
				</g>
				<path style="fill:#FFD100;" d="M166.042,291.045c-0.035-0.023-0.072-0.041-0.108-0.063c-0.012-0.013-0.018-0.027-0.033-0.04
					c-0.338-0.292-0.728-0.495-1.148-0.642c-0.142-0.058-0.284-0.116-0.427-0.174l0,0c-0.487-0.276-0.974-0.553-1.461-0.829
					c-0.104-0.179-0.285-0.234-0.467-0.286c0,0-0.019-0.011-0.019-0.011c-0.039-0.083-0.101-0.134-0.195-0.139
					c-0.463-0.308-0.926-0.615-1.388-0.923c-0.132-0.099-0.264-0.198-0.395-0.298c-0.452-0.379-0.916-0.74-1.416-1.055
					c-0.038-0.093-0.116-0.14-0.201-0.18c-0.023-0.033-0.042-0.071-0.071-0.096c-2.452-2.103-4.689-4.417-6.762-6.891
					c-0.128-0.153-0.268-0.297-0.402-0.445c-0.034-0.052-0.069-0.103-0.103-0.155c-0.366-0.512-0.732-1.024-1.098-1.535
					c-0.034,0.208-0.162,0.361-0.3,0.508c0.138-0.147,0.265-0.3,0.3-0.508c-0.089-0.127-0.178-0.254-0.267-0.38
					c-0.328-0.506-0.655-1.012-0.983-1.518c-0.107-0.222-0.207-0.448-0.378-0.632c-0.255-0.504-0.511-1.008-0.767-1.512v0
					c-0.077-0.188-0.155-0.376-0.232-0.564c-0.112-0.347-0.254-0.678-0.488-0.965c-0.488-0.965-0.953-0.639-0.953-0.639
					c-4.717,4.221-3.598,6.12-3.598,6.12l0.001,0c0.001,0.252,0.048,0.503,0.169,0.749c0.003,0.312,0.129,0.588,0.26,0.862
					c0.21,0.603,0.496,1.168,0.847,1.701c0.292-0.579,0.676-1.096,1.051-1.62c-0.375,0.524-0.76,1.041-1.051,1.62
					c0.072,0.187,0.176,0.352,0.316,0.495c0.169,0.325,0.34,0.647,0.597,0.914c0.045,0.196,0.162,0.35,0.293,0.495
					c0.252,0.409,0.5,0.821,0.839,1.167c0.096,0.225,0.226,0.423,0.432,0.564c0.233,0.417,0.502,0.806,0.869,1.118
					c0.096,0.244,0.261,0.431,0.474,0.579c0.221,0.343,0.479,0.652,0.808,0.898c0.139,0.249,0.335,0.442,0.582,0.584
					c0.337,0.358,0.674,0.715,1.012,1.073c0.131,0.203,0.291,0.38,0.493,0.515c0.27,0.344,0.596,0.627,0.942,0.89
					c0.108,0.172,0.26,0.297,0.431,0.402c0.381,0.38,0.806,0.707,1.235,1.029c0.122-0.16,0.229-0.335,0.37-0.477
					c-0.141,0.142-0.248,0.317-0.37,0.478c0.141,0.131,0.272,0.277,0.456,0.351c0.396,0.371,0.856,0.659,1.286,0.985v0
					c0.439,0.287,0.878,0.574,1.318,0.861c0.142,0.137,0.29,0.266,0.486,0.321c0.638,0.467,1.344,0.815,2.073,1.102
					c0.195,0.077,0.388,0.122,0.581,0.164l0.003,0.013c0,0,0.812,0.434,1.893-0.191
					C162.459,294.206,167.914,292.259,166.042,291.045z"/>
				<path style="fill:#FFD100;" d="M333.709,290.134c0.035-0.023,0.072-0.042,0.108-0.063c0.012-0.013,0.018-0.027,0.033-0.04
					c0.338-0.292,0.728-0.495,1.148-0.642c0.142-0.058,0.284-0.116,0.427-0.174l0,0c0.487-0.276,0.974-0.553,1.461-0.829
					c0.104-0.179,0.285-0.234,0.467-0.286c0,0,0.019-0.011,0.019-0.011c0.039-0.083,0.101-0.134,0.195-0.139
					c0.463-0.308,0.926-0.615,1.388-0.923c0.132-0.099,0.264-0.198,0.395-0.298c0.452-0.379,0.916-0.74,1.416-1.055
					c0.038-0.092,0.116-0.14,0.201-0.18c0.023-0.033,0.042-0.071,0.071-0.096c2.451-2.103,4.688-4.417,6.762-6.891
					c0.128-0.153,0.268-0.297,0.402-0.445c0.034-0.052,0.069-0.103,0.103-0.155c0.366-0.512,0.732-1.024,1.098-1.535
					c0.034,0.208,0.162,0.361,0.3,0.508c-0.138-0.147-0.265-0.3-0.3-0.509c0.089-0.127,0.178-0.254,0.267-0.38
					c0.328-0.506,0.655-1.012,0.983-1.518c0.107-0.222,0.207-0.448,0.378-0.632c0.255-0.504,0.511-1.008,0.767-1.512v0
					c0.077-0.188,0.155-0.376,0.232-0.563c0.112-0.347,0.254-0.678,0.488-0.965c0.488-0.965,0.953-0.639,0.953-0.639
					c4.717,4.221,3.598,6.12,3.598,6.12l-0.001,0c-0.001,0.252-0.048,0.503-0.17,0.749c-0.003,0.312-0.129,0.588-0.26,0.861
					c-0.21,0.603-0.496,1.168-0.847,1.701c-0.292-0.579-0.676-1.096-1.052-1.62c0.375,0.524,0.76,1.041,1.052,1.62
					c-0.072,0.186-0.176,0.352-0.316,0.495c-0.168,0.324-0.34,0.647-0.597,0.914c-0.045,0.196-0.162,0.35-0.293,0.495
					c-0.252,0.409-0.5,0.821-0.839,1.167c-0.096,0.225-0.226,0.423-0.432,0.564c-0.233,0.417-0.502,0.806-0.869,1.118
					c-0.096,0.244-0.261,0.431-0.474,0.579c-0.221,0.343-0.479,0.652-0.807,0.898c-0.139,0.249-0.335,0.442-0.582,0.583
					c-0.337,0.358-0.674,0.715-1.012,1.073c-0.131,0.203-0.291,0.379-0.493,0.515c-0.27,0.344-0.596,0.627-0.942,0.89
					c-0.108,0.172-0.26,0.297-0.431,0.402c-0.381,0.38-0.806,0.707-1.235,1.029c-0.122-0.16-0.229-0.335-0.37-0.477
					c0.141,0.142,0.248,0.317,0.37,0.478c-0.141,0.131-0.272,0.277-0.456,0.351c-0.396,0.371-0.856,0.659-1.286,0.985v0
					c-0.439,0.287-0.879,0.574-1.318,0.861c-0.142,0.137-0.29,0.266-0.486,0.32c-0.638,0.467-1.344,0.815-2.073,1.102
					c-0.195,0.077-0.388,0.122-0.581,0.164l-0.003,0.013c0,0-0.812,0.434-1.893-0.192
					C337.293,293.296,331.837,291.348,333.709,290.134z"/>
				<g>
					<g>
						<g>
							<path style="fill:#98E19A;" d="M341.881,247.583c0.249-1.009,0.569-2.007,0.635-3.056c-0.782-1.356-1.387-2.797-1.986-4.238
								c-0.421-1.013-1.01-1.908-1.729-2.725c-0.424-0.481-0.845-0.964-1.271-1.443c-0.474-0.532-0.659-1.181-0.755-1.864
								c-0.046-0.325,0.027-0.636,0.16-0.936c0.211-0.478,0.463-0.555,0.939-0.264c0.239,0.146,0.473,0.302,0.702,0.463
								c0.874,0.612,1.871,0.897,2.9,1.088c0.357,0.066,0.719,0.053,1.07-0.063c0.103-0.034,0.206-0.068,0.31-0.103
								c-4.682-12.981-14.867-25.156-23.054-33.463c-0.084,0.045-0.169,0.084-0.252,0.146c-0.357,0.266-0.744,0.45-1.177,0.579
								c-1.192,0.355-2.308,0.048-3.403-0.357c-1.026-0.379-1.84-0.994-1.973-2.198c-0.009-0.078-0.048-0.153-0.075-0.228
								c-0.58-1.641-1.816-2.592-3.377-3.19c-0.216-0.083-0.474-0.067-0.714-0.077c-1.163-0.046-2.212,0.351-3.204,0.895
								c-1.592,0.872-3,2.018-4.365,3.194c-1.126,0.97-1.484,2.252-0.936,3.709c0.256,0.68,0.585,1.321,0.969,1.933
								c0.281,0.447,0.49,0.921,0.622,1.429c0.126,0.488-0.013,0.741-0.491,0.948c-0.859,0.373-1.953,0.13-2.641-0.621
								c-0.297-0.324-0.555-0.687-0.811-1.046c-0.212-0.297-0.449-0.565-0.739-0.785c-1.227-0.929-2.986-1.06-4.284-0.128
								c-1.256,0.902-2.542,1.436-4.12,1.371c-1.179-0.048-2.165,0.516-2.902,1.461c-0.173,0.222-0.328,0.457-0.509,0.671
								c-0.207,0.244-0.421,0.485-0.656,0.702c-0.266,0.245-0.528,0.243-0.725-0.024c-0.332-0.451-0.647-0.918-0.94-1.395
								c-0.266-0.432-0.195-0.834,0.179-1.192c0.26-0.25,0.51-0.513,0.739-0.792c0.872-1.06,0.719-2.09-0.303-2.936
								c-0.092-0.076-0.196-0.14-0.292-0.212c-0.749-0.564-1.597-0.915-2.499-1.146c-1.501-0.384-3.034-0.388-4.546-0.207
								c-1.991,0.238-3.651,1.13-4.84,2.821c-0.513,0.73-0.914,1.51-1.27,2.316c-0.484,1.097-1.193,1.985-2.214,2.627
								c-0.406,0.256-0.798,0.542-1.167,0.85c-0.486,0.405-0.814,0.937-0.707,1.578c0.28,1.678,1.462,3.06,3.314,2.66
								c0.759-0.164,1.031,0.074,1.19,0.801c0.094,0.43,0.147,0.874,0.285,1.289c0.255,0.768,0.82,1.172,1.63,1.193
								c0.899,0.023,1.75-0.185,2.55-0.597c1.335-0.688,1.886-1.807,1.759-3.27c-0.069-0.798-0.207-1.589-0.302-2.385
								c-0.043-0.357-0.094-0.719-0.079-1.076c0.035-0.844,0.441-1.426,1.265-1.711c0.623-0.215,1.093-0.116,1.47,0.436
								c0.224,0.328,0.435,0.69,0.545,1.067c0.28,0.961,0.569,1.928,0.727,2.913c0.238,1.48-0.014,2.893-1.002,4.081
								c-1.049,1.261-2.353,2.162-3.928,2.67c-1.18,0.381-2.289,0.28-3.354-0.351c-0.31-0.184-0.625-0.361-0.94-0.537
								c-0.797-0.447-1.594-0.442-2.417-0.046c-2.103,1.014-4.093,2.212-5.956,3.618c-1.251,0.945-1.724,2.18-1.31,3.71
								c0.22,0.812,0.476,1.615,0.732,2.416c0.399,1.244,0.623,1.502-1.139,1.293c-0.237-0.028-0.466-0.12-0.703-0.152
								c-0.396-0.053-0.795-0.104-1.194-0.116c-0.737-0.021-1.326,0.272-1.724,0.907c-0.96,1.531-1.165,3.135-0.426,4.814
								c0.286,0.651,0.751,1.152,1.438,1.373c0.724,0.233,1.464,0.421,2.242,0.323c0.477-0.06,0.954-0.114,1.432-0.165
								c1.312-0.138,2.51-0.553,3.456-1.509c0.564-0.57,1.091-1.177,1.491-1.882c0.297-0.523,0.595-1.047,0.916-1.556
								c0.767-1.215,1.855-1.99,3.271-2.252c0.866-0.16,1.731-0.225,2.624-0.055c1.489,0.282,2.7,0.958,3.634,2.154
								c0.651,0.833,1.123,1.749,1.452,2.751c0.459,1.4,1.222,2.609,2.329,3.595c0.659,0.587,1.297,1.199,1.965,1.775
								c0.79,0.681,1.597,1.342,2.408,1.999c0.286,0.231,0.531,0.488,0.706,0.81c0.396,0.728,0.262,1.225-0.466,1.582
								c-0.733,0.36-1.532,0.525-2.334,0.418c-1.472-0.196-2.941-0.34-4.429-0.378c-1.431-0.036-2.737-0.522-3.908-1.382
								c-0.762-0.559-1.307-1.289-1.848-2.039c-0.843-1.168-1.886-2.068-3.326-2.438c-0.394-0.101-0.787-0.15-1.186-0.174
								c-1.613-0.096-3.202,0.079-4.782,0.396c-1.03,0.207-2.065,0.263-3.098,0.005c-0.521-0.49-0.941-0.145-1.363,0.166
								c-0.456,0.335-0.867,0.72-1.164,1.205c-0.355,0.581-0.719,1.161-1.023,1.769c-0.586,1.176-1.386,2.151-2.486,2.879
								c-0.334,0.221-0.656,0.463-0.971,0.711c-0.697,0.549-1.32,1.166-1.796,1.927c-0.639,1.022-0.875,2.149-0.881,3.328
								c-0.005,1.008-0.091,2.002-0.322,2.983c-0.128,0.546-0.25,1.094-0.377,1.64c-0.347,1.499-0.524,3.031-0.246,4.54
								c0.538,2.911,1.814,5.458,3.996,7.523c1.594,1.509,3.452,2.319,5.648,2.26c1.931-0.051,3.841,0.259,5.766,0.287
								c0.237,0.004,0.475,0.068,0.708,0.126c2.189,0.545,3.943,1.718,5.253,3.572c0.722,1.023,0.945,2.1,0.61,3.302
								c-0.161,0.579-0.289,1.168-0.462,1.743c-0.272,0.899-0.159,1.742,0.302,2.55c0.099,0.174,0.18,0.359,0.281,0.532
								c0.876,1.495,1.195,3.13,1.251,4.839c0.038,1.135-0.18,2.231-0.415,3.332c-0.335,1.569-0.641,3.149-0.562,4.764
								c0.047,0.96,0.131,1.921,0.271,2.871c0.368,2.497,0.764,4.99,1.171,7.481c0.286,1.746,0.719,3.454,1.452,5.073
								c0.299,0.661,0.655,1.284,1.138,1.833c0.75,0.853,1.65,1.053,2.719,0.706c0.997-0.324,1.757-0.97,2.387-1.76
								c0.649-0.814,1.282-1.651,1.826-2.537c1.477-2.405,3.142-4.648,5.187-6.609c0.896-0.858,1.696-1.818,2.515-2.755
								c2.082-2.382,2.835-5.167,2.422-8.278c-0.169-1.27-0.387-2.534-0.608-3.796c-0.273-1.554-0.014-2.945,1.121-4.118
								c0.474-0.49,0.901-1.024,1.343-1.544c1.353-1.59,2.677-3.202,3.763-4.993c0.835-1.377,1.565-2.798,2.004-4.36
								c0.19-0.675,0.234-1.349,0.111-2.023c-0.18-0.987-0.641-1.366-1.653-1.405c-0.48-0.019-0.965-0.016-1.444,0.027
								c-0.619,0.056-1.081-0.182-1.487-0.624c-0.413-0.45-0.73-0.957-0.983-1.506c-0.858-1.858-1.734-3.707-2.557-5.58
								c-1.485-3.378-2.938-6.77-4.401-10.157c-0.302-0.699-0.628-1.39-0.757-2.151c-0.013-0.079-0.049-0.16-0.039-0.235
								c0.009-0.067,0.052-0.158,0.105-0.183c0.058-0.027,0.175-0.018,0.215,0.025c0.304,0.317,0.636,0.619,0.884,0.977
								c0.64,0.926,1.193,1.906,1.569,2.972c0.36,1.02,0.677,2.056,1.034,3.078c0.741,2.12,1.512,4.23,2.241,6.354
								c0.394,1.145,0.906,2.229,1.517,3.269c0.161,0.274,0.366,0.526,0.572,0.77c0.475,0.561,1.094,0.778,1.821,0.753
								c0.572-0.02,1.106-0.179,1.634-0.372c2.659-0.972,4.91-2.533,6.729-4.702c0.596-0.711,1.05-1.51,1.362-2.394
								c0.178-0.505,0.216-1.013,0.227-1.537c0.015-0.738-0.37-1.219-0.988-1.517c-0.318-0.153-0.683-0.236-1.036-0.289
								c-0.634-0.094-1.273-0.178-1.912-0.197c-0.85-0.025-1.474-0.418-1.872-1.12c-0.876-1.547-1.471-3.201-1.713-4.969
								c-0.038-0.275-0.01-0.561,0.004-0.841c0.006-0.116,0.042-0.238,0.092-0.343c0.054-0.112,0.162-0.171,0.295-0.14
								c0.285,0.068,0.512,0.237,0.687,0.46c0.298,0.378,0.594,0.759,0.855,1.162c0.828,1.276,1.962,2.217,3.244,2.996
								c0.483,0.293,1.013,0.506,1.575,0.564c0.757,0.078,1.5,0.272,2.27,0.256c0.314-0.006,0.637,0.066,0.945,0.144
								c1.343,0.342,2.248,1.206,2.776,2.458c0.528,1.252,1.339,2.25,2.393,3.107c1.083,0.881,1.808,2.019,2.049,3.44
								c0.229,1.347,0.332,2.704,0.388,4.064c0.048,1.162,0.05,2.323,0.264,3.474c0.191,1.026,0.382,2.05,0.74,3.033
								c0.207,0.568,0.449,1.118,0.884,1.557c0.2,0.202,0.417,0.365,0.715,0.412c0.725,0.115,1.134-0.066,1.488-0.73
								c0.461-0.865,0.633-1.821,0.742-2.774c0.202-1.751,0.352-3.508,0.495-5.265c0.136-1.662,0.53-3.232,1.416-4.671
								c0.824-1.339,1.75-2.593,2.828-3.736c0.134-0.142,0.262-0.304,0.536-0.264c0.084,0.197,0.204,0.409,0.267,0.637
								c0.574,2.045,1.159,4.087,1.697,6.141c0.273,1.041,0.807,1.822,1.824,2.228c0.446,0.178,0.896,0.344,1.345,0.516
								c0.295-0.522,0.616-1.03,0.879-1.567c1.163-2.378,2.294-4.771,3.464-7.145C339.646,254.86,340.966,251.295,341.881,247.583z"
								/>
						</g>
					</g>
					<g>
						<path style="fill:#98E19A;" d="M300.924,292.799c-0.768-0.187-1.514-0.18-2.043,0.58c-0.114,0.164-0.224,0.332-0.342,0.495
							c-0.518,0.714-1.062,1.394-1.799,1.915c-0.453,0.321-0.839,0.744-1.227,1.147c-0.574,0.596-0.925,1.305-0.957,2.146
							c-0.031,0.854-0.267,1.654-0.603,2.433c-0.38,0.882-0.746,1.771-1.116,2.657c-0.256,0.612-0.294,1.246-0.143,1.885
							c0.11,0.463,0.384,0.654,0.856,0.695c0.779,0.067,1.423-0.17,1.882-0.822c0.184-0.261,0.356-0.533,0.514-0.811
							c0.694-1.224,1.5-2.36,2.445-3.409c1.049-1.163,1.953-2.442,2.614-3.871c0.438-0.948,0.793-1.927,0.788-3.232
							c-0.008-0.125,0.003-0.491-0.064-0.842C301.642,293.31,301.389,292.912,300.924,292.799z"/>
					</g>
					<g>
						<g>
							<path style="fill:#98E19A;" d="M248.143,201.864c-1.417-2.039-2.842-4.074-4.328-6.062c-2.297-3.074-5.134-5.602-8.201-7.881
								c-0.383-0.285-0.77-0.58-1.258-0.681c-0.16,0.139-0.357,0.164-0.557,0.194c-0.713,0.108-1.44,0.165-2.132,0.353
								c-1.022,0.278-1.982,0.345-3.042,0.044c-1.338-0.38-2.631-0.058-3.675,0.937c-0.592,0.564-0.708,1.353-0.365,2.096
								c0.189,0.411,0.479,0.745,0.816,1.03c0.551,0.465,1.116,0.915,1.692,1.35c1.543,1.165,2.983,2.431,4.119,4.015
								c0.912,1.271,1.856,2.516,2.556,3.927c0.439,0.884,0.638,1.796,0.612,2.784c-0.033,1.209-0.296,2.384-0.432,3.577
								c-0.166,1.455,0.064,2.796,1.084,3.923c0.35,0.386,0.67,0.801,1.031,1.174c0.588,0.607,1.131,1.25,1.6,1.952
								c0.512,0.767,1.006,1.545,1.507,2.319c0.414,0.641,0.877,1.24,1.398,1.803c0.594,0.641,1.285,0.863,2.15,0.839
								c0.936-0.026,1.499-0.479,1.849-1.278c0.243-0.555,0.379-1.139,0.367-1.753c-0.02-1.043-0.036-2.086-0.044-3.129
								c-0.004-0.521-0.023-1.046,0.028-1.563c0.143-1.457,0.7-2.704,1.926-3.588c1.169-0.844,2.354-1.67,3.348-2.729
								C249.673,204.208,248.941,203.012,248.143,201.864z"/>
						</g>
					</g>
					<g>
						<g>
							<path style="fill:#98E19A;" d="M234.195,314.104c0.246-1.378,0.467-2.771,0.13-4.176c-0.14-0.584-0.243-1.177-0.368-1.765
								c-0.441-2.067-0.507-4.107,0.062-6.187c0.406-1.482,0.996-2.789,2.184-3.781c1.239-1.034,1.49-2.428,1.406-3.918
								c-0.043-0.756-0.208-1.507-0.332-2.257c-0.202-1.227-0.403-2.45-0.354-3.705c0.035-0.901,0.24-1.744,0.619-2.553
								c0.448-0.956,1.065-1.792,1.82-2.527c0.695-0.677,1.295-1.431,1.761-2.28c0.602-1.098,0.689-2.235-0.023-3.311
								c-0.694-1.05-1.518-1.979-2.837-2.274c-0.194-0.043-0.377-0.135-0.567-0.199c-1.086-0.366-2.02-0.931-2.751-1.851
								c-1.118-1.409-2.61-2.207-4.375-2.545c-1.345-0.258-2.705-0.315-4.064-0.387c-0.761-0.04-1.529,0.021-2.286-0.046
								c-1.623-0.145-3.147-0.606-4.465-1.612c-0.861-0.657-1.733-1.299-2.526-2.042c-0.468-0.439-0.957-0.858-1.461-1.255
								c-2.767-2.183-5.888-3.73-9.134-5.047c-1.226-0.497-2.483-0.597-3.77-0.24c-0.81,0.225-1.628,0.423-2.441,0.64
								c-0.275,0.073-0.549,0.121-0.832,0.071c-0.948-0.167-1.901-0.32-2.803-0.665c-0.447-0.171-0.883-0.387-1.289-0.639
								c-0.506-0.315-0.795-0.775-0.744-1.411c0.025-0.319,0.028-0.645-0.006-0.962c-0.142-1.324-0.797-2.012-2.115-2.244
								c-0.118-0.021-0.24-0.021-0.359-0.037c-0.795-0.101-1.591-0.197-2.385-0.306c-1.811-0.25-3.467-0.966-5.104-1.727
								c-0.869-0.404-1.512-1.072-1.934-1.916c-0.429-0.859-0.784-1.755-1.059-2.681c-0.469-1.579,0.52-3.308,1.798-3.785
								c0.563-0.21,1.114-0.458,1.689-0.628c1.933-0.571,3.76-1.382,5.527-2.345c0.49-0.267,1.016-0.474,1.537-0.68
								c0.987-0.391,1.715-0.096,2.282,0.947c0.27,0.497,0.42,1.042,0.442,1.612c0.02,0.521,0.008,1.044,0.04,1.565
								c0.055,0.88,0.107,1.765,0.576,2.554c0.145,0.244,0.303,0.48,0.574,0.597c0.727,0.315,1.61-0.004,1.934-0.72
								c0.113-0.25,0.194-0.534,0.208-0.806c0.049-0.962,0.083-1.929-0.093-2.881c-0.161-0.876-0.147-1.756-0.173-2.638
								c-0.031-1.012,0.435-1.772,1.14-2.421c0.813-0.749,1.775-1.227,2.837-1.519c0.541-0.149,1.08-0.306,1.611-0.483
								c1.14-0.38,2.055-1.074,2.759-2.044c0.354-0.487,0.698-0.981,1.032-1.482c0.966-1.445,2.163-2.687,3.423-3.87
								c0.318-0.298,0.695-0.546,1.077-0.76c1.483-0.828,3.08-1.353,4.735-1.706c0.515-0.11,1.042-0.113,1.551,0.043
								c0.548,0.169,1.108,0.18,1.669,0.169c1.693-0.032,2.487-0.617,3.012-2.219c0.188-0.572,0.337-1.156,0.54-1.722
								c0.267-0.743,0.742-1.23,1.609-1.179c0.484,0.028,0.955-0.073,1.43-0.158c1.602-0.285,2.273-1.504,2.287-2.81
								c0.008-0.734-0.137-1.436-0.376-2.122c-0.727-2.087-1.715-4.064-2.579-6.092c-0.409-0.961-1.15-1.611-2.124-2.024
								c-0.867-0.368-1.753-0.526-2.691-0.533c-1.582-0.012-2.905,0.545-3.955,1.713c-0.482,0.535-0.916,1.116-1.341,1.699
								c-0.6,0.824-1.33,1.499-2.205,2.016c-0.311,0.183-0.625,0.365-0.952,0.515c-1.254,0.574-2.361,1.36-3.379,2.281
								c-0.238,0.215-0.482,0.424-0.736,0.619c-0.176,0.136-0.44,0.021-0.441-0.199c-0.006-0.722-0.033-1.447,0.023-2.165
								c0.077-0.978-0.396-1.6-1.185-2.051c-0.348-0.199-0.719-0.357-1.07-0.551c-0.43-0.238-0.779-0.559-0.984-1.021
								c-0.283-0.635-0.206-1.056,0.319-1.498c0.466-0.393,1.014-0.641,1.582-0.849c0.984-0.36,2.01-0.536,3.039-0.707
								c1.305-0.217,2.605-0.466,3.847-0.94c2.208-0.842,3.586-2.355,3.853-4.77c0.09-0.811,0.377-1.562,0.836-2.233
								c0.43-0.629,0.887-1.24,1.351-1.845c0.295-0.385,0.534-0.798,0.743-1.234c0.18-0.377,0.211-0.769,0.182-1.174
								c-0.018-0.249-0.101-0.473-0.288-0.643c-0.563-0.514-1.197-0.808-1.977-0.588c-0.308,0.087-0.616,0.183-0.916,0.296
								c-1.397,0.523-2.692,1.242-3.939,2.057c-0.906,0.593-1.81,1.193-2.746,1.735c-1.431,0.829-2.968,1.404-4.586,1.764
								c-1.123,0.249-2.152,0.123-3.029-0.695c-0.205-0.192-0.428-0.365-0.636-0.553c-1.121-1.018-2.43-1.702-3.874-2.118
								c-0.728-0.21-1.464-0.318-2.25-0.205c-0.887,0.127-1.72,0.38-2.535,0.718c-0.741,0.307-1.472,0.637-2.206,0.961
								c-1.658,0.73-3.371,1.272-5.16,1.582c-0.557,0.096-1.106,0.17-1.67,0.175c-0.631,0.006-1.178-0.163-1.643-0.611
								c-0.179-0.173-0.369-0.335-0.565-0.49c-1.677,1.906-3.266,3.892-4.759,5.967c-1.312,1.417-2.648,2.917-3.982,4.485
								c0.231,0.325,0.434,0.677,0.59,1.072c0.706,1.792,0.863,3.67,0.486,5.558c-0.45,2.255-1.677,4.05-3.446,5.496
								c-0.715,0.584-1.425,1.175-2.106,1.797c-1.348,1.232-2.44,2.656-3.168,4.345c-0.57,1.324-0.632,2.63,0.07,3.932
								c0.266,0.494,0.542,0.99,0.74,1.513c0.544,1.431,0.96,2.871,0.653,4.452c-0.244,1.256-0.348,2.54-0.482,3.815
								c-0.05,0.476-0.057,0.968,0.003,1.442c0.172,1.354,0.465,2.685,0.92,3.976c0.066,0.187,0.137,0.388,0.26,0.537
								c0.173,0.21,0.429,0.167,0.667,0.103c0.179-0.049,0.27-0.196,0.272-0.355c0.003-0.279-0.021-0.561-0.064-0.837
								c-0.093-0.593-0.201-1.185-0.311-1.775c-0.22-1.182,0.06-2.31,0.372-3.433c0.017-0.061,0.091-0.127,0.153-0.15
								c0.141-0.051,0.231,0.053,0.284,0.158c0.238,0.464,0.508,0.917,0.687,1.403c0.347,0.939,0.696,1.883,0.941,2.851
								c0.297,1.169,0.847,2.163,1.73,2.969c0.841,0.767,1.263,1.737,1.472,2.829c0.09,0.472,0.188,0.945,0.329,1.403
								c0.343,1.11,1.077,1.859,2.177,2.238c0.455,0.156,0.91,0.326,1.378,0.427c1.267,0.273,2.451,0.759,3.594,1.349
								c1.82,0.939,3.699,1.748,5.591,2.524c0.603,0.247,1.166,0.548,1.652,0.969c0.609,0.529,1.265,0.983,1.941,1.418
								c0.673,0.432,1.273,0.971,1.999,1.334c0.31,0.155,0.594,0.431,0.798,0.717c0.724,1.016,1.704,1.258,2.864,1.049
								c0.197-0.035,0.398-0.068,0.597-0.064c0.456,0.008,0.865,0.158,1.203,0.474c0.357,0.333,0.656,0.712,0.821,1.174
								c0.572,1.6,0.512,3.151-0.413,4.618c-0.214,0.339-0.451,0.664-0.679,0.994c-0.677,0.982-0.818,2.056-0.621,3.216
								c0.279,1.642,1.024,3.035,2.197,4.191c1.008,0.993,1.878,2.09,2.605,3.297c0.649,1.078,1.466,2,2.384,2.852
								c1.675,1.556,3.4,3.057,4.952,4.746c2.434,2.647,4.281,5.615,5.146,9.125c0.414,1.677,1.201,3.123,2.235,4.482
								c1.045,1.373,2.024,2.801,2.785,4.355c0.655,1.337,1.397,2.621,2.196,3.872c1.624,2.543,3.36,4.997,5.683,6.975
								c0.162,0.138,0.302,0.302,0.455,0.452c2.3,0.383,4.621,0.682,6.963,0.897C234.145,318.454,233.79,316.373,234.195,314.104z"
								/>
						</g>
					</g>
				</g>
				<path style="fill:#FFD100;" d="M294.667,311.595c-1.475,0.135-2.859,0.599-4.178,1.265c-0.466,0.206-0.933,0.412-1.4,0.619l0,0
					c-1.781,0.527-3.563,1.054-5.345,1.582c-0.667-0.164-1.214,0.143-1.759,0.457c0.001,0-0.07,0.02-0.07,0.02
					c-0.287-0.099-0.551-0.068-0.781,0.146c-1.8,0.397-3.6,0.794-5.401,1.192c-0.54,0.087-1.081,0.173-1.621,0.259
					c-0.087,0.075-0.162,0.155-0.226,0.237c-0.128,0.165-0.213,0.343-0.27,0.529c0.057-0.186,0.142-0.364,0.27-0.529
					c0.064-0.082,0.138-0.162,0.226-0.237c-1.945,0.207-3.878,0.485-5.779,0.954c-0.309-0.122-0.603-0.045-0.894,0.067
					c-0.132-0.019-0.266-0.065-0.394-0.052c-10.669,1.014-21.346,1.032-32.031,0.288c-0.661-0.046-1.326-0.044-1.988-0.064l0,0
					c-0.202-0.037-0.405-0.073-0.607-0.111c-2.065-0.304-4.13-0.609-6.195-0.913c0.418,0.561,0.49,1.219,0.525,1.886
					c-0.034-0.668-0.106-1.325-0.525-1.886c-0.508-0.079-1.016-0.159-1.523-0.238c-1.963-0.382-3.926-0.764-5.889-1.146
					c-0.776-0.256-1.546-0.538-2.38-0.554v0c-1.791-0.55-3.584-1.099-5.377-1.648l0,0c-0.627-0.248-1.253-0.496-1.88-0.743
					c-1.088-0.53-2.206-0.954-3.427-1.056c-1.118-0.094-1.609,0.375-1.539,1.516c0.012,0.2,0.069,0.396,0.103,0.595
					c0.486,2.78,1.191,5.508,1.997,8.209c0.209,0.7,0.536,0.447,0.92,1.071c0.89,1.443,1.978,2.697,3.677,3.235
					c0.754,0.711,1.701,1.046,2.657,1.362c1.924,0.888,3.933,1.505,6.014,1.894c-0.711-2.029-1.061-4.14-1.448-6.242
					c0.387,2.102,0.737,4.213,1.449,6.242c0.611,0.258,1.246,0.39,1.909,0.384c1.163,0.345,2.328,0.68,3.557,0.679
					c0.573,0.344,1.21,0.418,1.858,0.439c1.558,0.34,3.113,0.695,4.721,0.683c0.758,0.289,1.531,0.435,2.341,0.267
					c1.532,0.402,3.08,0.656,4.673,0.499c0.804,0.334,1.631,0.369,2.475,0.2c1.327,0.263,2.66,0.357,4.004,0.138
					c0.915,0.241,1.826,0.217,2.733-0.046c1.631,0.018,3.262,0.036,4.893,0.054c0.788,0.155,1.576,0.179,2.365,0.009
					c1.442,0.146,2.87,0.021,4.294-0.2c0.66,0.14,1.308,0.062,1.951-0.104c1.785-0.036,3.545-0.299,5.302-0.583
					c-0.1-0.661-0.272-1.32-0.288-1.983c0.016,0.663,0.188,1.322,0.289,1.983c0.639-0.035,1.286-0.013,1.889-0.283
					c1.799-0.091,3.545-0.527,5.316-0.803v0c1.697-0.389,3.393-0.778,5.09-1.167c0.655-0.025,1.302-0.081,1.885-0.423
					c2.585-0.449,5.04-1.335,7.404-2.416c3.218-1.472,5.348-2.982,6.1-6.529c0.444-2.092,0.965-4.168,1.428-6.257
					c0.115-0.519,0.182-1.057,0.193-1.587C295.975,311.99,295.458,311.523,294.667,311.595z M233.332,318.907
					c-0.001-0.003-0.003-0.006-0.005-0.009C233.329,318.901,233.331,318.904,233.332,318.907z M273.855,331.096l-0.006-0.047
					c-0.215-0.053-0.393-0.138-0.519-0.269c0.126,0.131,0.304,0.215,0.519,0.269C273.849,331.049,273.852,331.073,273.855,331.096z"
					/>
				<path style="fill:#E3BA00;" d="M210.906,326.543c-0.496-2.632-1.007-4.324-1.482-6.959c-0.333-1.846-0.647-3.697-0.707-5.58
					c-0.014-0.44,0.076-0.788,0.459-1.03c0.626,0.248,1.253,0.496,1.88,0.744c0.78,4.186,1.576,7.432,2.326,11.624
					c0.15,0.838,0.443,1.688,0.181,2.564C212.607,327.589,211.66,327.254,210.906,326.543z M289.09,313.479
					c-0.037,0.334-0.055,0.67-0.113,0.999c-0.713,4.034-1.442,7.127-2.137,11.164c-0.097,0.563-0.375,1.152-0.003,1.796
					c0.382-0.165,0.741-0.343,1.116-0.479c0.976-0.353,1.479-0.999,1.652-2.061c0.409-2.518,0.97-4.073,1.392-6.59
					c0.244-1.454,0.348-2.932,0.495-4.402c0.032-0.319,0.127-0.716-0.23-0.909c-0.219-0.118-0.512-0.096-0.772-0.137
					C290.023,313.066,289.557,313.272,289.09,313.479z M216.432,315.366c0.175,2.39,0.772,4.707,1.282,7.034
					c0.609,2.781,0.915,4.694,1.864,7.399c0.611,0.258,1.246,0.39,1.909,0.384c-0.103-3.841-0.992-6.63-1.673-10.386
					c-0.238-1.312-0.383-2.659-1.002-3.878C218.036,315.664,217.265,315.381,216.432,315.366z M247.848,333.041
					c0.041-1.132,0.061-2.264,0.126-3.394c0.158-2.732,0.402-4.523,0.352-7.264c-0.012-0.666,0.021-1.341-0.291-1.963
					c-0.185-0.369-0.412-0.699-0.876-0.712c-0.441-0.012-0.789,0.212-0.97,0.589c-0.171,0.354-0.294,0.749-0.345,1.138
					c-0.105,0.793-0.17,0.656-0.212,1.455c-0.18,3.399-0.346,6.798-0.517,10.197C246.03,333.327,246.941,333.303,247.848,333.041z
					 M280.835,329.542c0.633-2.101,0.931-4.274,1.355-6.419c0.489-2.472,0.95-4.011,1.41-6.489c0.082-0.443,0.262-0.914-0.116-1.325
					c-0.5,0.07-0.999,0.14-1.498,0.21c0.001,0-0.07,0.02-0.07,0.02c-0.208,0.13-0.417,0.26-0.625,0.39
					c-1.046,3.802-1.583,6.763-2.172,10.651c-0.17,1.123-0.303,2.247-0.169,3.385C279.604,329.94,280.252,329.884,280.835,329.542z
					 M226.901,331.301c0.428-0.725,0.422-1.535,0.386-2.325c-0.161-3.576-0.356-6.212-0.538-9.786
					c-0.034-0.668-0.106-1.325-0.525-1.886c-0.508-0.079-1.016-0.159-1.523-0.238c-0.463,0.375-0.529,0.907-0.523,1.44
					c0.015,1.326,0.007,2.655,0.103,3.976c0.225,3.108,0.505,5.274,0.763,8.38C225.617,331.206,226.253,331.279,226.901,331.301z
					 M255.105,333.104c-0.135-3.27-0.258-6.54-0.41-9.809c-0.043-0.933-0.177-0.924-0.254-1.856
					c-0.034-0.406-0.106-0.794-0.33-1.141c-0.28-0.433-0.693-0.609-1.194-0.598c-0.418,0.009-0.768,0.369-0.861,0.957
					c-0.073,0.459-0.109,0.931-0.1,1.396c0.035,1.669,0.036,2.404,0.163,4.068c0.178,2.327,0.169,4.672,0.622,6.974
					C253.528,333.25,254.317,333.274,255.105,333.104z M233.963,332.25c-0.032-0.261-0.108-0.526-0.089-0.783
					c0.285-3.873,0.138-6.802-0.132-10.668c-0.062-0.884-0.235-1.717-0.715-2.471c-0.202-0.037-0.405-0.074-0.607-0.111
					c-0.822,0.255-1.164,0.882-1.178,1.675c-0.027,1.605-0.043,2.275,0.011,3.879c0.092,2.739,0.243,5.475,0.369,8.213
					C232.38,332.272,233.153,332.418,233.963,332.25z M274.113,317.135c-0.699,0.603-0.588,1.456-0.635,2.231
					c-0.172,2.799-0.322,4.661-0.428,7.463c-0.043,1.131,0.051,2.267,0.076,3.4c0.011,0.483,0.293,0.713,0.723,0.82
					c0.918-0.234,1.47-0.68,1.531-1.764c0.193-3.467,0.5-5.991,0.735-9.456c0.068-1,0.029-2.005-0.382-2.953
					C275.193,316.963,274.653,317.049,274.113,317.135z M267.44,318.156c-0.674,0.48-0.78,1.195-0.853,1.95
					c-0.356,3.684-0.311,6.438-0.223,10.129c0.016,0.663,0.188,1.322,0.289,1.983c0.639-0.035,1.286-0.013,1.889-0.283
					c0.391-3.975,0.521-7.023,0.556-11.015c0.009-1.021-0.12-1.993-0.766-2.831C268.025,317.967,267.732,318.045,267.44,318.156z
					 M241.111,332.948c0.159-2.816-0.028-5.628-0.13-8.44c-0.043-1.205-0.152-1.47-0.226-2.674c-0.038-0.617-0.21-1.185-0.583-1.685
					c-0.327-0.438-1.038-0.436-1.406-0.008c-0.275,0.32-0.409,0.701-0.443,1.102c-0.063,0.734-0.137,0.537-0.107,1.271
					c0.109,2.746,0.257,5.49,0.394,8.235c0.033,0.667,0.189,1.332,0.026,2.001C239.439,333.082,240.267,333.117,241.111,332.948z
					 M261.351,332.8c0.048-0.125,0.124-0.246,0.142-0.376c0.533-3.865,0.625-6.812,0.5-10.705c-0.013-0.399-0.099-0.8-0.192-1.19
					c-0.102-0.426-0.395-0.691-0.828-0.776c-0.448-0.087-0.924,0.173-1.096,0.683c-0.17,0.503-0.311,1.032-0.357,1.56
					c-0.33,3.747-0.322,6.567-0.266,10.324c0.003,0.195,0.095,0.389,0.146,0.584C260.06,333.043,260.708,332.965,261.351,332.8z"/>
				<path style="fill:#FFD100;" d="M276,171.144c-1.31-1.036-3.213-0.816-4.251,0.494c-0.075,0.095-7.692,9.482-23.74,9.482
					c-15.436,0-20.426-8.257-20.664-8.667c-0.811-1.448-2.639-1.973-4.096-1.174c-1.465,0.805-2.001,2.644-1.197,4.108
					c0.264,0.481,6.69,11.783,25.956,11.783c18.943,0,28.103-11.297,28.484-11.777C277.531,174.084,277.31,172.181,276,171.144z"/>
			</g>
			<g>
				
					<text transform="matrix(1 0 0 1 217.4233 244.3491)" style="fill:#04302E; font-family:'ChineseRocksRg-Regular'; font-size:51.4281px;">ECO</text>
				
					<text transform="matrix(1 0 0 1 219.0288 265.0371)" style="fill:#04302E; font-family:'ChineseRocksRg-Regular'; font-size:20.3947px;">friendly</text>
				
					<text transform="matrix(1 0 0 1 218.7173 287.8438)" style="fill:#04302E; font-family:'ChineseRocksRg-Regular'; font-size:22.7128px;">fashion</text>
			</g>
		</g>
	</g>
	<g>
		<g>
			<g>
				<path style="fill:#04302E;" d="M244.101,60.628L244.101,60.628L244.101,60.628z"/>
				<path style="fill:#98E19A;" d="M210.921,72.542c-14.374,17.065-26.496,36.605-26.496,36.605l13.549,8.405
					c0.082-0.133,8.368-13.449,19.114-27.276c9.549-12.287,16.373-18.984,20.822-22.612c3.554-2.899,8.642-2.937,12.213-0.057
					c1.814,1.463,4.014,3.441,6.612,6.106l0,0C256.735,73.713,236.956,47.195,210.921,72.542z"/>
			</g>
			<path style="fill:#04302E;" d="M297.908,101.498c-5.452-8.332-34.687-53.921-54.102-53.921c-9.25,0-21.744,11.739-32.884,24.966
				c26.035-25.347,45.814,1.171,45.814,1.171c6.511,6.678,15.537,17.679,27.353,35.784c0.175,0.269,0.335,0.513,0.487,0.746
				l-15.726,10.315l34.568,4.632l9.523-33.552L297.908,101.498z"/>
		</g>
		<g>
			<g>
				<path style="fill:#04302E;" d="M399.168,399.512L399.168,399.512L399.168,399.512z"/>
				<path style="fill:#98E19A;" d="M409.869,365.921c-4.818-21.785-12.971-43.286-12.971-43.286l-14.909,5.653
					c0.055,0.146,5.596,14.818,10.047,31.755c3.955,15.05,5.127,24.539,5.306,30.277c0.142,4.585-2.919,8.648-7.376,9.734
					c-2.264,0.552-5.172,1.096-8.868,1.541l0,0C381.098,401.595,414.178,402,409.869,365.921z"/>
			</g>
			<path style="fill:#04302E;" d="M409.868,365.921c4.31,36.079-28.77,35.673-28.77,35.673c-9.26,1.113-23.482,1.596-45.041-0.021
				c-0.32-0.024-0.611-0.046-0.888-0.066l1.364-18.757l-24.685,24.639l20.86,27.952l1.304-17.932
				c9.93,0.734,63.902,5.219,75.7-10.201C415.334,399.862,413.603,382.806,409.868,365.921z"/>
		</g>
		<g>
			<path style="fill:#98E19A;" d="M125.591,420.623c22.048,3.421,45.042,3.631,45.042,3.631l0.146-15.944
				c-0.156-0.001-15.839-0.166-33.236-2.168c-15.459-1.779-24.726-4.133-30.137-6.05c-4.323-1.532-6.998-5.86-6.392-10.407
				c0.308-2.31,0.856-5.217,1.784-8.822l0,0C102.798,380.864,90.41,411.539,125.591,420.623z"/>
			<path style="fill:#04302E;" d="M119.172,338.905c0.139-0.289,0.264-0.552,0.384-0.804l16.982,8.082l-13.995-31.946l-33.618,9.288
				l16.234,7.726c-4.289,8.986-28.064,57.646-17.981,74.238c4.804,7.905,21.325,12.484,38.413,15.135
				c-35.182-9.084-22.793-39.759-22.793-39.759C105.123,371.832,109.837,358.405,119.172,338.905z"/>
		</g>
	</g>
	<g>
		<g>
			<path style="fill:#FFD100;" d="M137.515,80.468c-0.978,0.027-1.937,0.124-2.877,0.273c-5.223-6.654-13.419-10.836-22.525-10.586
				c-11.779,0.323-21.629,7.966-25.328,18.452c-0.015,0-0.029,0-0.044,0c-12.171,0.333-21.767,10.47-21.434,22.641
				c0.333,12.171,10.47,21.768,22.641,21.434c6.832-0.187,12.852-3.464,16.761-8.455c2.813,0.869,5.811,1.307,8.918,1.222
				c4.904-0.134,9.47-1.542,13.402-3.891c3.427,1.999,7.434,3.102,11.693,2.985c12.171-0.333,21.768-10.47,21.434-22.641
				C159.823,89.732,149.686,80.135,137.515,80.468z"/>
			<g>
				<path style="fill:#FFFFFF;" d="M101.294,118.691c-16.5-10.268-13.939-24.682-13.911-24.826c0.049-0.254-0.117-0.5-0.371-0.55
					c-0.25-0.048-0.499,0.117-0.549,0.371c-0.029,0.151-2.733,15.179,14.337,25.801c0.077,0.048,0.163,0.071,0.247,0.071
					c0.157,0,0.31-0.078,0.399-0.221C101.581,119.117,101.514,118.828,101.294,118.691z"/>
				<path style="fill:#FFFFFF;" d="M134.363,88.884c-0.095-0.241-0.366-0.36-0.609-0.262c-0.24,0.096-0.358,0.368-0.262,0.609
					c0.084,0.212,8.246,21.353-9.494,30.753c-0.229,0.121-0.316,0.405-0.195,0.634c0.084,0.159,0.247,0.25,0.415,0.25
					c0.074,0,0.149-0.017,0.219-0.054C142.912,111.023,134.451,89.104,134.363,88.884z"/>
			</g>
			<path style="fill:#04302E;" d="M158.438,121.536c0,0-9.958-4.057-20.187-2.157c1.766-4.649,2.729-10.025,2.238-16.175
				c0,0-21.245,3.64-25.374,20.535c-7.306-15.784-28.854-15.263-28.854-15.263c0.826,7.194,3.408,12.958,6.737,17.56
				c-11.04,0.518-20.284,7.905-20.284,7.905c14.771,15.407,34.172,11.811,41.751,9.587c0.004,0.029,0.001,0.057,0.007,0.085
				l2.629,14.662c0.317,1.769,2.009,2.947,3.778,2.63l2.064-0.37c1.77-0.317,2.947-2.009,2.63-3.779l-2.552-14.235
				C131.82,142.16,149.352,139.12,158.438,121.536z"/>
		</g>
		<g>
			<circle style="fill:#AFEBED;" cx="421.622" cy="254.529" r="45.405"/>
			<path id="SVGID_x5F_00000158717448736060297790000005643156376609410742_x5F_" style="fill:none;" d="M437.944,203.667
				c-29.644-9.014-60.983,7.709-69.997,37.353c-9.014,29.644,7.709,60.983,37.353,69.997c29.644,9.014,60.983-7.709,69.997-37.353
				C484.312,244.02,467.588,212.682,437.944,203.667z"/>
			<text>			<textPath  xlink:href="#SVGID_x5F_00000158717448736060297790000005643156376609410742_x5F_" startOffset="-126.359%">
<tspan  style="fill:#04302E; font-family:'ChineseRocksRg-Regular'; font-size:9.666px; letter-spacing:100;">PRESERVATION</tspan>			</textPath>
</text>
			<polygon style="fill:#0B817A;" points="413.513,291.337 413.513,275.25 394.769,275.25 406.248,257.977 399.568,257.977 
				410.516,241.505 405.814,241.505 421.622,217.72 437.43,241.505 432.729,241.505 443.676,257.977 436.996,257.977 
				448.476,275.25 429.731,275.25 429.731,291.337 			"/>
		</g>
		<g>
			<path id="SVGID_x5F_00000079449925123071959060000010113242058773983877_x5F_" style="fill:none;" d="M270.126,372.165
				c-27.281-8.296-56.121,7.094-64.417,34.375c-8.296,27.281,7.094,56.121,34.375,64.417s56.121-7.094,64.417-34.375
				C312.797,409.301,297.407,380.461,270.126,372.165z"/>
			<text>			<textPath  xlink:href="#SVGID_x5F_00000079449925123071959060000010113242058773983877_x5F_" startOffset="-126.359%">
<tspan  style="fill:#04302E; font-family:'ChineseRocksRg-Regular'; font-size:8.8954px; letter-spacing:100;">LESS WASTE</tspan>			</textPath>
</text>
			<g>
				<g>
					<path style="fill:#0B817A;" d="M235.195,402.603c13.358,0,26.704,0,40.398,0c-0.169,1.763-0.318,3.473-0.501,5.181
						c-1.184,11.079-2.444,22.151-3.504,33.242c-0.21,2.201-1.31,3.223-3.125,3.656c-2.459,0.586-4.978,1.313-7.468,1.3
						c-5.591-0.03-11.211-0.204-16.758-0.844c-4.431-0.511-4.765-1.252-5.251-5.723c-1.304-11.995-2.595-23.991-3.884-35.987
						C235.077,403.21,235.149,402.982,235.195,402.603z"/>
					<path style="fill:#FFD100;" d="M275.334,403.317c-13.377,0-26.753,0-40.983,0c1.069-1.141,1.613-2.232,2.432-2.509
						c3.329-1.125,6.758-1.95,10.113-3.003c0.807-0.253,1.739-0.795,2.157-1.481c1.454-2.392,3.291-4.036,6.228-4.075
						c2.952-0.039,4.979,1.514,6.227,4.003c0.566,1.129,1.232,1.398,2.388,1.665c3.348,0.774,6.656,1.759,9.915,2.853
						c0.808,0.271,1.372,1.266,2.049,1.929C275.684,402.905,275.509,403.111,275.334,403.317z M251.646,397.387
						c2.562,0,4.902,0,7.441,0C256.483,394.372,253.874,394.425,251.646,397.387z"/>
				</g>
				<g>
					<path style="fill:#FFFFFF;" d="M255.311,405.11c-0.8,0.005-1.41,0.624-1.413,1.4l-0.159,35.006
						c-0.004,0.777,0.624,1.41,1.4,1.413c0.002,0,0.005,0,0.007,0c0.774,0,1.403-0.626,1.407-1.401l0.159-35.006
						C256.715,405.746,256.087,405.113,255.311,405.11z"/>
					<path style="fill:#FFFFFF;" d="M268.346,405.479c-0.772-0.084-1.464,0.485-1.542,1.258l-3.527,34.829
						c-0.079,0.773,0.484,1.464,1.258,1.542c0.049,0.005,0.096,0.007,0.144,0.007c0.714,0,1.324-0.54,1.398-1.265l3.527-34.829
						C269.682,406.247,269.119,405.557,268.346,405.479z"/>
					<path style="fill:#FFFFFF;" d="M242.493,405.157c-0.775,0.055-1.359,0.728-1.303,1.503l2.489,34.918
						c0.053,0.741,0.67,1.307,1.402,1.307c0.033,0,0.067-0.001,0.101-0.004c0.775-0.055,1.359-0.728,1.303-1.503l-2.489-34.919
						C243.942,405.686,243.262,405.096,242.493,405.157z"/>
				</g>
			</g>
			<path style="fill:#AFEBED;" d="M255.105,373.746c-24.259,0-43.925,19.666-43.925,43.924c0,24.259,19.666,43.925,43.925,43.925
				c24.259,0,43.924-19.666,43.924-43.925C299.03,393.411,279.364,373.746,255.105,373.746z M255.105,382.435
				c8.362,0,16.04,2.919,22.082,7.786c-17.341,17.638-39,39.532-49.384,49.717c-4.957-6.07-7.933-13.821-7.933-22.268
				C219.87,398.211,235.646,382.435,255.105,382.435z M255.105,452.905c-8.449,0-16.201-2.977-22.271-7.935
				c4.016-3.784,11.32-10.997,24.985-24.791c9.377-9.465,18.756-18.987,24.527-24.855c4.994,6.081,7.993,13.863,7.993,22.346
				C290.34,437.13,274.565,452.905,255.105,452.905z"/>
		</g>
		<g>
			<circle style="fill:#AFEBED;" cx="74.378" cy="218.618" r="45.405"/>
			<path style="fill:#FFFFFF;" d="M103.672,193.214c-0.368-0.032-0.591,0.281-0.602,0.791c-0.045,2.16-1.3,3.727-3.459,4.237
				c-2.391,0.565-4.717,0.083-7.026-0.527c-0.105-0.028-0.229-0.165-0.259-0.274c-0.58-2.156-0.997-4.332-0.622-6.576
				c0.403-2.41,1.978-3.79,4.416-3.882c0.405-0.015,0.673-0.178,0.715-0.584c0.038-0.373-0.279-0.6-0.791-0.613
				c-2.436-0.061-4.533,1.436-5.279,3.775c-0.52,1.629-0.493,3.292-0.257,4.958c0.127,0.895,0.317,1.781,0.487,2.718
				c-0.186-0.034-0.334-0.057-0.48-0.089c-1.862-0.404-3.733-0.58-5.64-0.354c-3.105,0.369-5.316,2.206-6.192,5.208
				c-0.535,1.833-0.524,3.705-0.368,5.583c0.058,0.697,0.163,1.391,0.251,2.122c-0.16-0.052-0.273-0.086-0.385-0.125
				c-1.774-0.623-3.584-0.961-5.474-0.71c-0.406,0.054-0.789,0.138-1.154,0.244c-1.263,0.369-2.286,1.04-3.108,1.897
				c-0.407,0.512-0.731,1.106-0.943,1.77c-0.268,0.838-0.389,1.685-0.413,2.536c-0.023,0.804,0.041,1.612,0.156,2.422
				c0.127,0.895,0.317,1.781,0.487,2.718c-0.186-0.034-0.334-0.058-0.48-0.089c-1.862-0.404-3.733-0.58-5.64-0.354
				c-3.105,0.369-5.316,2.206-6.192,5.208c-0.535,1.833-0.524,3.705-0.368,5.583c0.058,0.697,0.163,1.391,0.251,2.122
				c-0.16-0.052-0.273-0.086-0.385-0.125c-1.774-0.623-3.584-0.961-5.474-0.71c-3.436,0.456-5.386,2.911-6.365,5.697
				c-0.065,0.184,0.127,0.58,0.314,0.701c0.277,0.18,0.602,0.062,0.761-0.286c0.071-0.156,0.13-0.318,0.197-0.477
				c0.904-2.138,2.307-3.758,4.659-4.306c2.24-0.522,4.37-0.035,6.423,0.881c0.162,0.072,0.312,0.285,0.366,0.463
				c0.322,1.067,0.712,2.126,0.898,3.218c0.515,3.018-0.657,5.552-3.183,7.046c-0.515,0.305-1.076,0.535-1.625,0.78
				c-0.356,0.159-0.524,0.411-0.397,0.777c0.129,0.373,0.425,0.471,0.792,0.337c3.982-1.454,6.14-4.414,5.64-8.686
				c-0.138-1.183-0.482-2.342-0.736-3.528c0.086,0.011,0.236,0.027,0.384,0.049c2.104,0.31,4.21,0.437,6.32,0.046
				c3.351-0.621,5.403-2.66,6.027-6.013c0.316-1.698,0.198-3.394-0.093-5.083c-0.08-0.466-0.181-0.928-0.285-1.455
				c0.244,0.05,0.408,0.083,0.571,0.118c1.544,0.338,3.092,0.595,4.657,0.536c0.559-0.021,1.121-0.081,1.685-0.195
				c1.329-0.268,2.43-0.904,3.218-1.789c0.397-0.491,0.721-1.028,0.973-1.609c0.534-1.236,0.731-2.671,0.541-4.297
				c-0.138-1.183-0.482-2.342-0.736-3.528c0.086,0.011,0.235,0.027,0.384,0.049c2.104,0.31,4.21,0.437,6.32,0.046
				c3.351-0.621,5.402-2.66,6.027-6.013c0.316-1.698,0.199-3.394-0.093-5.083c-0.08-0.466-0.181-0.928-0.285-1.455
				c0.243,0.05,0.408,0.083,0.571,0.118c2.096,0.458,4.198,0.774,6.343,0.341c2.785-0.562,4.584-2.722,4.546-5.462
				C104.258,193.611,104.161,193.257,103.672,193.214z M68.496,229.125c-0.783,2.734-2.769,4.077-5.456,4.526
				c-0.761,0.127-1.538,0.154-2.453,0.24c-1.129-0.137-2.392-0.281-3.651-0.456c-0.137-0.019-0.337-0.201-0.36-0.333
				c-0.38-2.143-0.605-4.296-0.161-6.458c0.686-3.345,2.849-5.231,6.254-5.469c1.751-0.122,3.467,0.098,5.153,0.564
				c0.154,0.043,0.362,0.18,0.399,0.314C68.864,224.387,69.177,226.747,68.496,229.125z M79.397,219.075
				c-0.171,0.339-0.372,0.663-0.605,0.968c-0.586,0.681-1.408,1.174-2.444,1.42c-2.391,0.565-4.717,0.083-7.026-0.527
				c-0.105-0.028-0.229-0.165-0.259-0.274c-0.58-2.156-0.997-4.332-0.622-6.576c0.172-1.029,0.57-1.857,1.146-2.491
				c0.525-0.578,1.208-0.982,2.031-1.198c0.212-0.073,0.425-0.145,0.654-0.199c0.371-0.087,0.738-0.136,1.104-0.17
				c1.839-0.17,3.607,0.287,5.319,1.051c0.161,0.072,0.312,0.285,0.366,0.463c0.322,1.067,0.712,2.126,0.898,3.218
				c0.106,0.62,0.137,1.219,0.103,1.794C80.008,217.465,79.782,218.311,79.397,219.075z M91.759,205.904
				c-0.783,2.734-2.769,4.076-5.456,4.526c-0.761,0.127-1.538,0.154-2.453,0.24c-1.13-0.137-2.392-0.281-3.651-0.456
				c-0.137-0.019-0.337-0.201-0.36-0.333c-0.38-2.143-0.605-4.296-0.161-6.458c0.686-3.345,2.849-5.231,6.254-5.469
				c1.751-0.122,3.467,0.098,5.153,0.564c0.154,0.043,0.362,0.181,0.399,0.314C92.127,201.166,92.44,203.526,91.759,205.904z"/>
			<path id="SVGID_x5F_00000069368504335981835690000009431255243218389892_x5F_" style="fill:none;" d="M90.7,167.209
				c-29.644-9.015-60.983,7.709-69.997,37.353c-9.015,29.644,7.709,60.983,37.353,69.997c29.644,9.014,60.983-7.709,69.997-37.353
				C137.067,207.562,120.344,176.223,90.7,167.209z"/>
			<text>			<textPath  xlink:href="#SVGID_x5F_00000069368504335981835690000009431255243218389892_x5F_" startOffset="-126.359%">
<tspan  style="fill:#04302E; font-family:'ChineseRocksRg-Regular'; font-size:9.666px; letter-spacing:100;">ethical sources</tspan>			</textPath>
</text>
		</g>
		<g>
			<g>
				<polygon style="fill:#FFD100;" points="370.229,155.417 369.205,155.398 368.465,140.848 371.129,140.895 				"/>
				
					<rect x="364.275" y="132.956" transform="matrix(0.9998 0.0178 -0.0178 0.9998 2.5066 -6.562)" style="fill:#04302E;" width="11.162" height="9.133"/>
				
					<rect x="366.391" y="99.499" transform="matrix(0.9998 0.0178 -0.0178 0.9998 2.0502 -7.1684)" style="fill:#0B817A;" width="74.838" height="24.226"/>
				<path style="fill:#0B817A;" d="M369.875,136.444L369.875,136.444c-6.654-0.119-11.952-5.609-11.834-12.263l0.24-13.47
					c0.118-6.654,5.609-11.952,12.263-11.833h0.001c6.654,0.119,11.952,5.609,11.834,12.263l-0.24,13.47
					C382.02,131.264,376.53,136.563,369.875,136.444z"/>
				<path style="fill:#0B817A;" d="M440.085,173.963l-8.48-0.151c-9.205-0.164-16.534-7.759-16.37-16.964l0.72-40.463
					c0.164-9.205,7.759-16.534,16.964-16.37l0,0c9.205,0.164,16.534,7.759,16.37,16.963l-0.871,48.943
					C448.336,170.443,444.606,174.043,440.085,173.963z"/>
				<path style="fill:#FFFFFF;" d="M443.653,120.567c-0.109,6.129-5.166,11.009-11.295,10.9c-6.129-0.109-11.009-5.166-10.9-11.295
					c0.109-6.129,5.166-11.009,11.295-10.9C438.882,109.381,443.762,114.438,443.653,120.567z"/>
				<path style="fill:#04302E;" d="M438.58,120.477c-0.059,3.327-2.804,5.976-6.131,5.917c-3.327-0.059-5.976-2.804-5.917-6.131
					c0.059-3.327,2.804-5.976,6.131-5.917C435.99,114.404,438.639,117.149,438.58,120.477z"/>
				<g>
					<path style="fill:#FFFFFF;" d="M366.508,120.716L366.508,120.716c-0.998-0.018-1.793-0.841-1.775-1.84l0.124-6.975
						c0.018-0.998,0.841-1.793,1.84-1.775h0c0.998,0.018,1.793,0.841,1.775,1.839l-0.124,6.975
						C368.33,119.939,367.506,120.734,366.508,120.716z"/>
					<path style="fill:#FFFFFF;" d="M373.801,120.846L373.801,120.846c-0.998-0.018-1.793-0.841-1.775-1.84l0.124-6.976
						c0.018-0.998,0.841-1.793,1.839-1.775h0c0.998,0.018,1.793,0.841,1.775,1.839l-0.124,6.975
						C375.622,120.069,374.799,120.864,373.801,120.846z"/>
				</g>
				<g>
					
						<rect x="425.843" y="86.636" transform="matrix(0.9998 0.0178 -0.0178 0.9998 1.7021 -7.6202)" style="fill:#FFD100;" width="6.712" height="10.465"/>
					
						<rect x="423.47" y="96.783" transform="matrix(0.9998 0.0178 -0.0178 0.9998 1.8195 -7.622)" style="fill:#04302E;" width="11.225" height="3.235"/>
					
						<rect x="423.708" y="83.403" transform="matrix(0.9998 0.0178 -0.0178 0.9998 1.5822 -7.6321)" style="fill:#04302E;" width="11.225" height="3.235"/>
				</g>
				<g>
					
						<rect x="411.013" y="86.636" transform="matrix(0.9998 0.0178 -0.0178 0.9998 1.6998 -7.3565)" style="fill:#FFD100;" width="6.712" height="10.465"/>
					
						<rect x="408.641" y="96.783" transform="matrix(0.9998 0.0178 -0.0178 0.9998 1.8171 -7.358)" style="fill:#04302E;" width="11.225" height="3.235"/>
					
						<rect x="408.879" y="83.403" transform="matrix(0.9998 0.0178 -0.0178 0.9998 1.5798 -7.368)" style="fill:#04302E;" width="11.225" height="3.235"/>
				</g>
				<polygon style="fill:#0B817A;" points="364.15,100.289 374.56,88.732 374.56,101.323 				"/>
				<polygon style="fill:#0B817A;" points="376.439,100.289 386.85,88.732 386.85,101.323 				"/>
				<polygon style="fill:#0B817A;" points="388.729,100.289 399.139,88.732 399.139,101.323 				"/>
				<path style="fill:#E8E8E8;" d="M416.577,83.44c4.04,2.228-4.733-6.037-1.231-10.775s1.236-16.718-14.419-8.359
					c-15.655,8.359-17.002-23.5-36.777-16.085c-19.775,7.416-32.034,26.228-17.604,38.039c10.712,8.767,17.488-10.286,28.015-8.953
					c10.505,1.331,5.226,9.776,15.861,11.424C399.036,90.067,393.913,70.938,416.577,83.44z"/>
				<path style="fill:#E8E8E8;" d="M429.083,83.398c0,0,16.193-10.921,4.185-18.304c-7.622-4.686-13.389,3.862-15.602-10.506
					c-2.41-15.645-17.897-12.993-21.476-7.982c-3.605,5.047-4.017,13.904,12.359,21.339
					C428.337,76.929,429.996,70.804,429.083,83.398z"/>
				<path style="fill:#98E19A;" d="M441.132,173.982l-77.446-1.379c-3.942-0.07-7.081-3.323-7.011-7.265v0
					c0.07-3.942,3.323-7.081,7.266-7.011l77.447,1.378c3.942,0.07,7.081,3.323,7.011,7.266l0,0
					C448.328,170.913,445.075,174.052,441.132,173.982z"/>
			</g>
			
				<text transform="matrix(0.9999 0.0117 -0.0117 0.9999 367.5349 169.612)" style="fill:#04302E; font-family:'ChineseRocksRg-Regular'; font-size:10.3239px; letter-spacing:1;">LESS FACTORIES</text>
		</g>
	</g>
</g>
</svg>
