<?xml version="1.0" encoding="utf-8"?>
<!-- Generator: Adobe Illustrator 27.5.0, SVG Export Plug-In . SVG Version: 6.00 Build 0)  -->
<svg version="1.1" xmlns="http://www.w3.org/2000/svg" xmlns:xlink="http://www.w3.org/1999/xlink" x="0px" y="0px"
	 viewBox="0 0 500 500" style="enable-background:new 0 0 500 500;" xml:space="preserve">
<g id="BACKGROUND">
	<rect style="fill:#FFFCD1;" width="500" height="500"/>
</g>
<g id="OBJECTS">
	<g>
		<path style="fill:#FFE577;" d="M403.293,310.673c-24.482,60.815-84.565,104.786-153.174,104.835
			c-52.281,0.037-98.884-24.249-129.139-62.157l0,0L79.77,377.144v0c32.597,43.858,81.854,74.6,138.405,82.834
			c100.409,14.619,189.903-41.299,226.305-125.525L403.293,310.673L403.293,310.673z"/>
		<path style="fill:#8EC643;" d="M459.462,218.69c-13.355-91.725-85.911-164.282-177.637-177.637
			c-19.296-2.809-38.183-2.995-56.374-0.895l0,0v47.257l0.001,0.002c7.987-1.239,16.145-1.889,24.428-1.895
			c91.217-0.064,165.176,73.894,165.111,165.112c-0.015,21.08-4.178,41.354-11.7,60.039l0,0l41.186,23.779
			C459.501,299.695,465.495,260.125,459.462,218.69z"/>
		<g>
			<path style="fill:#0C9143;" d="M273.226,63.773L224.13,28.384v11.944C109.256,54.324,22.764,160.262,40.538,282.341
				c5.121,35.174,18.956,67.524,39.232,94.803l41.211-23.793c-22.532-28.233-36-64.018-35.973-102.955
				c0.057-80.947,61.257-150.014,139.122-162.758v11.524L273.226,63.773z"/>
			<polygon style="fill:#FFE577;" points="76.553,323.729 70.454,383.943 131.749,348.554 			"/>
			<polygon style="fill:#8EC643;" points="399.882,364.281 455.078,339.457 393.783,304.068 			"/>
		</g>
	</g>
	<g>
		<g>
			<g>
				<path id="SVGID_x5F_1_x5F_" style="fill:none;" d="M441.342,250.515c0-107.341-85.528-194.358-191.031-194.358
					S59.28,143.174,59.28,250.515s85.528,194.358,191.031,194.358S441.342,357.856,441.342,250.515z"/>
				<text>				<textPath  xlink:href="#SVGID_x5F_1_x5F_" startOffset="4880.4688%">
<tspan  style="fill:#2F6014; font-family:'Montserrat-SemiBold'; font-size:17.7699px;">CONSUMPTION &amp; USE</tspan>				</textPath>
</text>
			</g>
		</g>
		<g>
			<g>
				<path id="SVGID_x5F_00000159472254304001307410000003861148670546840460_x5F_" style="fill:none;" d="M429.598,250.515
					c0,99.017-80.269,179.287-179.287,179.287S71.024,349.533,71.024,250.515S151.294,71.229,250.311,71.229
					S429.598,151.498,429.598,250.515z"/>
				<text>				<textPath  xlink:href="#SVGID_x5F_00000159472254304001307410000003861148670546840460_x5F_" startOffset="2904.1504%">
<tspan  style="fill:#FFE577; font-family:'Montserrat-SemiBold'; font-size:17.7699px;">MANUFACTURING                                  </tspan>				</textPath>
</text>
			</g>
		</g>
		<g>
			<path id="SVGID_x5F_00000152237587983201015200000007954997604216177596_x5F_" style="fill:none;" d="M429.598,250.515
				c0,99.017-80.269,179.287-179.287,179.287S71.024,349.533,71.024,250.515S151.294,71.229,250.311,71.229
				S429.598,151.498,429.598,250.515z"/>
			<text>			<textPath  xlink:href="#SVGID_x5F_00000152237587983201015200000007954997604216177596_x5F_" startOffset="6463.314%">
<tspan  style="fill:#FFE577; font-family:'Montserrat-SemiBold'; font-size:17.7699px;">RECYCLING</tspan>			</textPath>
</text>
		</g>
	</g>
	<g>
		
			<ellipse transform="matrix(0.7071 -0.7071 0.7071 0.7071 -38.1811 374.1698)" style="fill:#2F6014;" cx="432.572" cy="233.174" rx="53.604" ry="53.604"/>
		<g>
			<polygon style="fill:#8EC643;" points="392.588,262.315 438.615,262.315 438.615,238.583 419.917,238.583 419.917,244.616 
				397.982,244.616 392.368,250.23 			"/>
			<polygon style="fill:#FFFCD1;" points="472.776,244.616 472.776,262.315 457.314,262.315 457.314,247.572 463.068,247.572 
				463.068,244.616 			"/>
			<polygon style="fill:#FFFCD1;" points="424.951,238.583 427.468,204.421 432.143,204.421 435.02,238.583 			"/>
			<path style="fill:#FFFFFF;" d="M437.155,194.539c1.248,0.178,2.57,0.467,3.731-0.026c0.684-0.29,1.23-0.823,1.831-1.261
				c1.757-1.281,4.085-1.746,6.2-1.238c0.007,1.24,1.617,1.773,2.85,1.645c1.233-0.128,2.6-0.525,3.626,0.171
				c1.241,0.841,1.07,2.886-0.014,3.921c-1.084,1.035-2.707,1.263-4.204,1.209c-1.498-0.054-3.004-0.336-4.485-0.111
				c-1.736,0.264-3.284,1.2-4.907,1.869c-1.624,0.669-3.537,1.059-5.091,0.243c-2.775-1.457-2.441-0.974-5.003-0.772
				c-1.418,0.112-1.884,2.202-2.795,0.074C427.044,195.946,434.796,194.203,437.155,194.539z"/>
			<path style="fill:#FFFFFF;" d="M409.446,204.198c1.126-0.562,2.45-0.496,3.705-0.408c0.586,0.041,1.199,0.08,1.734-0.162
				c0.542-0.246,0.918-0.742,1.342-1.16c1.208-1.192,2.962-1.809,4.651-1.634c1.178,0.122,2.402,0.702,2.881,1.784
				c0.48,1.082-0.179,2.627-1.361,2.706c-0.309,0.021-0.625-0.054-0.925,0.021c-0.743,0.185-0.973,1.098-1.392,1.738
				c-0.583,0.893-1.77,1.343-2.799,1.062c-0.957-0.262-1.74-1.073-2.732-1.13c-2.034-0.115-3.73,3.16-5.886,1.49
				C407.148,207.331,407.822,205.01,409.446,204.198z"/>
			<g>
				<rect x="438.615" y="223.839" style="fill:#FFE577;" width="18.699" height="38.476"/>
				<g>
					<g>
						<rect x="442.301" y="227.316" style="fill:#8EC643;" width="3.057" height="7.372"/>
						<rect x="450.572" y="227.316" style="fill:#8EC643;" width="3.056" height="7.372"/>
						<rect x="442.301" y="237.245" style="fill:#8EC643;" width="3.057" height="7.372"/>
						<rect x="450.572" y="237.245" style="fill:#8EC643;" width="3.056" height="7.372"/>
						<rect x="442.301" y="247.174" style="fill:#8EC643;" width="3.057" height="7.372"/>
						<rect x="450.572" y="247.174" style="fill:#8EC643;" width="3.056" height="7.372"/>
					</g>
				</g>
			</g>
			<g>
				<polygon style="fill:#FFE577;" points="406.252,244.616 408.05,211.973 415.492,211.973 417.759,244.616 				"/>
				<polygon style="fill:#0C9143;" points="407.631,219.587 416.021,219.587 416.557,227.316 407.205,227.316 				"/>
				<polygon style="fill:#0C9143;" points="406.855,233.665 416.999,233.665 417.453,240.215 406.495,240.215 				"/>
			</g>
		</g>
	</g>
	<g>
		
			<ellipse transform="matrix(0.7517 -0.6595 0.6595 0.7517 -33.717 112.967)" style="fill:#2F6014;" cx="133.169" cy="101.262" rx="53.672" ry="53.672"/>
		<g>
			<g>
				<g>
					<polygon style="fill:#8EC643;" points="145.277,122.453 121.768,122.453 118.547,87.23 148.499,87.23 					"/>
					<line style="fill:none;stroke:#8EC643;stroke-miterlimit:10;" x1="114.037" y1="87.23" x2="153.009" y2="87.23"/>
					<rect x="124.928" y="82.615" style="fill:#8EC643;" width="16.484" height="4.615"/>
				</g>
				<g>
					<g>
						<path style="fill:#2F6014;" d="M126.977,101.021l3.838,2.245l4.246-7.675h-4.07c-0.489,0-0.942,0.258-1.192,0.678
							L126.977,101.021z"/>
						<path style="fill:#2F6014;" d="M139.715,101.886l-3.827,2.264l4.647,7.44l1.977-3.557c0.238-0.428,0.232-0.949-0.014-1.371
							L139.715,101.886z"/>
						<path style="fill:#2F6014;" d="M132.742,112.414l0.026-4.446l-8.77,0.161l2.035,3.524c0.244,0.424,0.694,0.687,1.183,0.693
							L132.742,112.414z"/>
					</g>
					<g>
						<g>
							<g>
								<path style="fill:#0C9143;" d="M130.991,95.591l3.049,5.097l-1.225,0.659l4.613,0.776l1.674-4.409l-1.266,0.817
									l-1.296-2.276c-0.234-0.41-0.669-0.664-1.141-0.664H130.991z"/>
							</g>
							<g>
								<path style="fill:#0C9143;" d="M142.511,108.033l-5.936,0.189l0.019-1.391l-2.919,3.656l3.041,3.605l-0.099-1.503
									l2.619-0.027c0.472-0.005,0.905-0.263,1.134-0.675L142.511,108.033z"/>
							</g>
							<g>
								<path style="fill:#0C9143;" d="M126.033,111.652l2.89-5.189l1.183,0.731l-1.635-4.383l-4.655,0.755l1.34,0.688l-1.323,2.26
									c-0.239,0.407-0.24,0.911-0.004,1.32L126.033,111.652z"/>
							</g>
						</g>
					</g>
				</g>
			</g>
			<g>
				<g>
					<polygon style="fill:#FFE577;" points="110.805,122.453 91.452,122.453 88.8,93.457 113.457,93.457 					"/>
					<line style="fill:none;stroke:#FFE577;stroke-miterlimit:10;" x1="85.088" y1="93.457" x2="117.17" y2="93.457"/>
					<rect x="94.053" y="89.658" style="fill:#FFE577;" width="13.569" height="3.799"/>
				</g>
				<g>
					<g>
						<g>
							<g>
								<path style="fill:#2F6014;" d="M95.74,104.81l3.159,1.848l3.495-6.318h-3.35c-0.403,0-0.775,0.212-0.981,0.558L95.74,104.81
									z"/>
							</g>
							<g>
								<path style="fill:#2F6014;" d="M106.226,105.522l-3.15,1.864l3.825,6.124l1.627-2.928c0.196-0.352,0.191-0.781-0.012-1.129
									L106.226,105.522z"/>
							</g>
							<g>
								<path style="fill:#2F6014;" d="M100.486,114.189l0.021-3.66l-7.22,0.132l1.675,2.901c0.201,0.349,0.572,0.565,0.974,0.571
									L100.486,114.189z"/>
							</g>
						</g>
					</g>
					<g>
						<g>
							<g>
								<path style="fill:#0C9143;" d="M99.045,100.34l2.51,4.196l-1.008,0.543l3.798,0.639l1.378-3.63l-1.042,0.672l-1.067-1.874
									c-0.192-0.338-0.551-0.546-0.94-0.546H99.045z"/>
							</g>
							<g>
								<path style="fill:#0C9143;" d="M108.528,110.582l-4.887,0.156l0.015-1.145l-2.403,3.009l2.503,2.968l-0.081-1.237
									l2.156-0.023c0.389-0.004,0.745-0.216,0.934-0.556L108.528,110.582z"/>
							</g>
							<g>
								<path style="fill:#0C9143;" d="M94.963,113.562l2.379-4.272l0.974,0.602l-1.346-3.608l-3.832,0.621l1.103,0.566
									l-1.089,1.861c-0.196,0.335-0.198,0.75-0.003,1.087L94.963,113.562z"/>
							</g>
						</g>
					</g>
				</g>
			</g>
			<g>
				<g>
					<polygon style="fill:#FFFCD1;" points="155.534,122.453 174.886,122.453 177.538,93.457 152.882,93.457 					"/>
					<line style="fill:none;stroke:#FFFCD1;stroke-miterlimit:10;" x1="181.251" y1="93.457" x2="149.169" y2="93.457"/>
					
						<rect x="158.716" y="89.658" transform="matrix(-1 -1.224647e-16 1.224647e-16 -1 331.0021 183.1151)" style="fill:#FFFCD1;" width="13.569" height="3.799"/>
				</g>
				<g>
					<g>
						<g>
							<g>
								<path style="fill:#2F6014;" d="M160.404,104.81l3.159,1.848l3.495-6.318h-3.35c-0.403,0-0.775,0.212-0.981,0.558
									L160.404,104.81z"/>
							</g>
							<g>
								<path style="fill:#2F6014;" d="M170.889,105.522l-3.15,1.864l3.825,6.124l1.627-2.928c0.196-0.352,0.191-0.781-0.012-1.129
									L170.889,105.522z"/>
							</g>
							<g>
								<path style="fill:#2F6014;" d="M165.15,114.189l0.021-3.66l-7.22,0.132l1.675,2.901c0.201,0.349,0.572,0.565,0.974,0.571
									L165.15,114.189z"/>
							</g>
						</g>
					</g>
					<g>
						<g>
							<g>
								<path style="fill:#0C9143;" d="M163.708,100.34l2.51,4.196l-1.008,0.543l3.798,0.639l1.378-3.63l-1.042,0.672l-1.067-1.874
									c-0.192-0.338-0.551-0.546-0.94-0.546H163.708z"/>
							</g>
							<g>
								<path style="fill:#0C9143;" d="M173.191,110.582l-4.887,0.156l0.015-1.145l-2.403,3.009l2.503,2.968l-0.081-1.237
									l2.156-0.023c0.389-0.004,0.745-0.216,0.934-0.556L173.191,110.582z"/>
							</g>
							<g>
								<path style="fill:#0C9143;" d="M159.626,113.562l2.379-4.272l0.974,0.602l-1.346-3.608l-3.832,0.621l1.103,0.566
									l-1.089,1.861c-0.196,0.335-0.198,0.75-0.003,1.087L159.626,113.562z"/>
							</g>
						</g>
					</g>
				</g>
			</g>
		</g>
	</g>
	<g>
		
			<ellipse transform="matrix(0.0216 -0.9998 0.9998 0.0216 -67.8243 733.8381)" style="fill:#2F6014;" cx="341.035" cy="401.573" rx="53.877" ry="53.877"/>
		<g>
			<g>
				<polygon style="fill:#FFE577;" points="323.222,395.467 369.627,395.467 359.749,423.265 326.438,423.265 				"/>
				<g>
					
						<line style="fill:none;stroke:#FFFFFF;stroke-linecap:round;stroke-linejoin:round;stroke-miterlimit:10;" x1="324.018" y1="402.347" x2="366.973" y2="402.347"/>
					
						<line style="fill:none;stroke:#FFFFFF;stroke-linecap:round;stroke-linejoin:round;stroke-miterlimit:10;" x1="324.948" y1="410.386" x2="364.199" y2="410.386"/>
					
						<line style="fill:none;stroke:#FFFFFF;stroke-linecap:round;stroke-linejoin:round;stroke-miterlimit:10;" x1="325.721" y1="417.065" x2="361.989" y2="417.065"/>
					
						<line style="fill:none;stroke:#FFFFFF;stroke-linecap:round;stroke-linejoin:round;stroke-miterlimit:10;" x1="329.654" y1="395.467" x2="332.87" y2="423.265"/>
					
						<line style="fill:none;stroke:#FFFFFF;stroke-linecap:round;stroke-linejoin:round;stroke-miterlimit:10;" x1="337.235" y1="395.467" x2="338.844" y2="423.265"/>
					
						<line style="fill:none;stroke:#FFFFFF;stroke-linecap:round;stroke-linejoin:round;stroke-miterlimit:10;" x1="344.573" y1="395.467" x2="344.573" y2="423.265"/>
					
						<line style="fill:none;stroke:#FFFFFF;stroke-linecap:round;stroke-linejoin:round;stroke-miterlimit:10;" x1="351.019" y1="395.467" x2="350.1" y2="423.265"/>
					
						<line style="fill:none;stroke:#FFFFFF;stroke-linecap:round;stroke-linejoin:round;stroke-miterlimit:10;" x1="359.978" y1="395.467" x2="354.871" y2="423.265"/>
					<polyline style="fill:none;stroke:#FFFFFF;stroke-linecap:round;stroke-linejoin:round;stroke-miterlimit:10;" points="
						323.222,395.467 308.979,395.467 305.073,400.062 					"/>
					<path style="fill:none;stroke:#FFFFFF;stroke-linecap:round;stroke-linejoin:round;stroke-miterlimit:10;" d="M326.438,423.265
						v5.513h29.865c1.522,0,2.757,1.234,2.757,2.757l0,0c0,1.522-1.234,2.757-2.757,2.757h-29.865"/>
				</g>
				<path style="fill:#FFFFFF;" d="M334.613,438.143c0-2.127-1.724-3.851-3.851-3.851c-2.127,0-3.852,1.724-3.852,3.851
					c0,2.127,1.724,3.852,3.852,3.852C332.889,441.995,334.613,440.27,334.613,438.143z"/>
				<path style="fill:#FFFFFF;" d="M357.107,438.143c0-2.127-1.724-3.851-3.852-3.851c-2.127,0-3.851,1.724-3.851,3.851
					c0,2.127,1.724,3.852,3.851,3.852C355.382,441.995,357.107,440.27,357.107,438.143z"/>
			</g>
			<g>
				<rect x="329.412" y="377.2" style="fill:#8EC643;" width="28.33" height="18.268"/>
				<rect x="341.293" y="377.2" style="fill:#FFE577;" width="5.873" height="10.481"/>
			</g>
			<g>
				<rect x="333.38" y="361.152" style="fill:#FFFCD1;" width="21.699" height="16.048"/>
				<rect x="342.181" y="361.152" style="fill:#FFE577;" width="4.098" height="9.17"/>
			</g>
		</g>
	</g>
	<g>
		<text transform="matrix(1 0 0 1 158.2681 238.1631)" style="fill:#0C9143; font-family:'Montserrat-Bold'; font-size:33.8374px;">CIRCULAR</text>
	</g>
	<g>
		
			<text transform="matrix(1 0 0 1 139.7695 280.5166)" style="fill:#2E6013; font-family:'Montserrat-Black'; font-size:39.3125px;">ECONOMY</text>
	</g>
</g>
</svg>
